<svg width="61" height="89" viewBox="0 0 61 89" fill="none" xmlns="http://www.w3.org/2000/svg">
<g clip-path="url(#clip0_108_21)">
<g filter="url(#filter0_d_108_21)">
<path d="M30.4628 88.7752L5.63819 81.6448L0.106018 17.4465H60.8939L55.356 81.6349L30.4628 88.7752Z" fill="#264DE4"/>
</g>
<path d="M50.615 77.5476L55.3473 22.6955H30.5V83.3173L50.615 77.5476Z" fill="#2965F1"/>
<path d="M12.7883 46.5058L13.4703 54.3795H30.5V46.5058H12.7883ZM11.4177 30.5694L12.1095 38.4431H30.5V30.5694H11.4177ZM30.5 66.9546L30.4666 66.9637L21.9915 64.596L21.4496 58.3164H13.8103L14.8764 70.6793L30.465 75.1564L30.5 75.1466V66.9546Z" fill="#EBEBEB"/>
<path d="M14.4122 0H23.629V3.98799H18.2667V7.97598H23.6294V11.9637H14.4122V0ZM25.4725 0H34.6895V3.46779H29.327V4.1613H34.6895V12.1373H25.4728V8.49568H30.8353V7.80217H25.4723V0H25.4725ZM36.5331 0H45.75V3.46779H40.3875V4.1613H45.75V12.1373H36.5331V8.49568H41.8956V7.80217H36.5333V0H36.5331Z" fill="#0E1017"/>
<path d="M48.1631 46.5058L49.5368 30.5694H30.4738V38.4431H41.1969L40.5045 46.5058H30.4738V54.3795H39.8447L38.9612 64.5911L30.4736 66.9613V75.1527L46.0746 70.6793L46.1889 69.349L47.9775 48.6201L48.1631 46.5058Z" fill="white"/>
</g>
<defs>
<filter id="filter0_d_108_21" x="-1.89398" y="17.4465" width="68.7879" height="79.3287" filterUnits="userSpaceOnUse" color-interpolation-filters="sRGB">
<feFlood flood-opacity="0" result="BackgroundImageFix"/>
<feColorMatrix in="SourceAlpha" type="matrix" values="0 0 0 0 0 0 0 0 0 0 0 0 0 0 0 0 0 0 127 0" result="hardAlpha"/>
<feOffset dx="2" dy="4"/>
<feGaussianBlur stdDeviation="2"/>
<feComposite in2="hardAlpha" operator="out"/>
<feColorMatrix type="matrix" values="0 0 0 0 0 0 0 0 0 0 0 0 0 0 0 0 0 0 0.25 0"/>
<feBlend mode="normal" in2="BackgroundImageFix" result="effect1_dropShadow_108_21"/>
<feBlend mode="normal" in="SourceGraphic" in2="effect1_dropShadow_108_21" result="shape"/>
</filter>
<clipPath id="clip0_108_21">
<rect width="61" height="89" fill="white"/>
</clipPath>
</defs>
</svg>
