<svg width="64" height="89" viewBox="0 0 64 89" fill="none" xmlns="http://www.w3.org/2000/svg">
<g clip-path="url(#clip0_2_272)">
<g filter="url(#filter0_d_2_272)">
<path d="M0 71.3746L0.53075 70.6316L25.6317 23.0031L25.6847 22.4989L14.62 1.71462C13.6925 -0.0263842 11.0825 0.413866 10.7785 2.36286L0 71.3746Z" fill="#FFC24A"/>
</g>
<g filter="url(#filter1_d_2_272)">
<path d="M33.7512 38.22L41.99 29.7825L33.7487 14.05C32.9665 12.5607 30.7822 12.5562 30.0082 14.05L25.605 22.4467V23.1617L33.751 38.22H33.7512Z" fill="#F4BD62"/>
</g>
<g filter="url(#filter2_d_2_272)">
<path d="M0 71.3745L0.2405 71.1325L1.1145 70.7775L33.2337 38.7775L33.6407 37.6698L25.6282 22.4012L0 71.3745Z" fill="#F6820C"/>
</g>
<path d="M34.7802 87.5128L63.8489 71.301L55.548 20.1772C55.2882 18.5777 53.326 17.9455 52.181 19.0923L0 71.3745L28.902 87.5115C29.8003 88.0131 30.8121 88.2765 31.8409 88.2767C32.8698 88.2769 33.8817 88.0139 34.7802 87.5128Z" fill="#FDE068"/>
<g filter="url(#filter3_d_2_272)">
<path d="M63.5886 71.165L55.3506 20.4295C55.0931 18.842 53.4611 18.1853 52.3248 19.3235L0.32251 71.275L28.9073 87.2519C29.7988 87.7497 30.8028 88.0112 31.8238 88.0114C32.8449 88.0117 33.849 87.7508 34.7408 87.2534L63.5888 71.1647L63.5886 71.165Z" fill="#FCCA3F"/>
</g>
<path d="M34.78 87.035C33.8815 87.5362 32.8697 87.7991 31.8409 87.7989C30.812 87.7987 29.8003 87.5353 28.902 87.0338L0.232744 71.1288L0.000244141 71.3745L28.902 87.5115C29.8004 88.0131 30.8121 88.2765 31.841 88.2767C32.8699 88.277 33.8817 88.014 34.7803 87.5128L63.849 71.301L63.7778 70.863L34.7803 87.0353L34.78 87.035Z" fill="#EEAB37"/>
</g>
<defs>
<filter id="filter0_d_2_272" x="-2" y="0.625153" width="33.6847" height="78.7494" filterUnits="userSpaceOnUse" color-interpolation-filters="sRGB">
<feFlood flood-opacity="0" result="BackgroundImageFix"/>
<feColorMatrix in="SourceAlpha" type="matrix" values="0 0 0 0 0 0 0 0 0 0 0 0 0 0 0 0 0 0 127 0" result="hardAlpha"/>
<feOffset dx="2" dy="4"/>
<feGaussianBlur stdDeviation="2"/>
<feComposite in2="hardAlpha" operator="out"/>
<feColorMatrix type="matrix" values="0 0 0 0 0 0 0 0 0 0 0 0 0 0 0 0 0 0 0.25 0"/>
<feBlend mode="normal" in2="BackgroundImageFix" result="effect1_dropShadow_2_272"/>
<feBlend mode="normal" in="SourceGraphic" in2="effect1_dropShadow_2_272" result="shape"/>
</filter>
<filter id="filter1_d_2_272" x="23.605" y="12.9314" width="24.385" height="33.2886" filterUnits="userSpaceOnUse" color-interpolation-filters="sRGB">
<feFlood flood-opacity="0" result="BackgroundImageFix"/>
<feColorMatrix in="SourceAlpha" type="matrix" values="0 0 0 0 0 0 0 0 0 0 0 0 0 0 0 0 0 0 127 0" result="hardAlpha"/>
<feOffset dx="2" dy="4"/>
<feGaussianBlur stdDeviation="2"/>
<feComposite in2="hardAlpha" operator="out"/>
<feColorMatrix type="matrix" values="0 0 0 0 0 0 0 0 0 0 0 0 0 0 0 0 0 0 0.25 0"/>
<feBlend mode="normal" in2="BackgroundImageFix" result="effect1_dropShadow_2_272"/>
<feBlend mode="normal" in="SourceGraphic" in2="effect1_dropShadow_2_272" result="shape"/>
</filter>
<filter id="filter2_d_2_272" x="-2" y="22.4012" width="41.6407" height="56.9733" filterUnits="userSpaceOnUse" color-interpolation-filters="sRGB">
<feFlood flood-opacity="0" result="BackgroundImageFix"/>
<feColorMatrix in="SourceAlpha" type="matrix" values="0 0 0 0 0 0 0 0 0 0 0 0 0 0 0 0 0 0 127 0" result="hardAlpha"/>
<feOffset dx="2" dy="4"/>
<feGaussianBlur stdDeviation="2"/>
<feComposite in2="hardAlpha" operator="out"/>
<feColorMatrix type="matrix" values="0 0 0 0 0 0 0 0 0 0 0 0 0 0 0 0 0 0 0.25 0"/>
<feBlend mode="normal" in2="BackgroundImageFix" result="effect1_dropShadow_2_272"/>
<feBlend mode="normal" in="SourceGraphic" in2="effect1_dropShadow_2_272" result="shape"/>
</filter>
<filter id="filter3_d_2_272" x="-1.67749" y="18.7509" width="71.2664" height="77.2605" filterUnits="userSpaceOnUse" color-interpolation-filters="sRGB">
<feFlood flood-opacity="0" result="BackgroundImageFix"/>
<feColorMatrix in="SourceAlpha" type="matrix" values="0 0 0 0 0 0 0 0 0 0 0 0 0 0 0 0 0 0 127 0" result="hardAlpha"/>
<feOffset dx="2" dy="4"/>
<feGaussianBlur stdDeviation="2"/>
<feComposite in2="hardAlpha" operator="out"/>
<feColorMatrix type="matrix" values="0 0 0 0 0 0 0 0 0 0 0 0 0 0 0 0 0 0 0.25 0"/>
<feBlend mode="normal" in2="BackgroundImageFix" result="effect1_dropShadow_2_272"/>
<feBlend mode="normal" in="SourceGraphic" in2="effect1_dropShadow_2_272" result="shape"/>
</filter>
<clipPath id="clip0_2_272">
<rect width="64" height="87.75" fill="white" transform="translate(0 0.625)"/>
</clipPath>
</defs>
</svg>
