<svg width="100" height="43" viewBox="0 0 100 43" fill="none" xmlns="http://www.w3.org/2000/svg">
<g clip-path="url(#clip0_108_44)">
<g filter="url(#filter0_d_108_44)">
<path d="M59.7594 14.943C57.573 14.943 55.9449 16.0164 55.9449 18.6C55.9449 20.5465 57.018 21.898 59.6414 21.898C61.8652 21.898 63.3758 20.5875 63.3758 18.5191C63.3758 16.1754 62.0242 14.943 59.7594 14.943ZM55.3883 33.1855C54.8707 33.8203 54.3551 34.4953 54.3551 35.291C54.3551 36.8797 56.3809 37.3578 59.1637 37.3578C61.4684 37.3578 64.6082 37.1961 64.6082 35.0531C64.6082 33.7793 63.0977 33.7008 61.1891 33.5812L55.3883 33.1855ZM67.1512 15.0629C67.8652 15.9769 68.6215 17.2492 68.6215 19.0769C68.6215 23.4879 65.1641 26.0707 60.1578 26.0707C58.8848 26.0707 57.7324 25.9121 57.018 25.7137L55.7059 27.8191L59.6 28.0574C66.4758 28.4957 70.5277 28.6949 70.5277 33.9781C70.5277 38.5492 66.5152 41.1308 59.6 41.1308C52.4074 41.1308 49.6652 39.3027 49.6652 36.1637C49.6652 34.3754 50.4602 33.4234 51.8512 32.1098C50.5395 31.5555 50.1027 30.5625 50.1027 29.4887C50.1027 28.6137 50.5395 27.8195 51.2559 27.0637C51.9707 26.3098 52.7652 25.5539 53.7191 24.6797C51.7723 23.7258 50.3012 21.6594 50.3012 18.718C50.3012 14.1488 53.3219 11.0105 59.4008 11.0105C61.1102 11.0105 62.1438 11.1676 63.0578 11.4078H70.8078V14.7844L67.1512 15.0629ZM77.7992 7.84139C75.5336 7.84139 74.2223 6.52889 74.2223 4.26288C74.2223 1.99999 75.5332 0.766785 77.7992 0.766785C80.1039 0.766785 81.4156 1.99999 81.4156 4.26288C81.4156 6.52889 80.1043 7.84139 77.7992 7.84139ZM72.6719 31.723V28.5851L74.6992 28.3078C75.2559 28.2277 75.3348 28.109 75.3348 27.5117V15.8281C75.3348 15.3922 75.216 15.1125 74.8172 14.9945L72.6719 14.2387L73.1086 11.0207H81.3355V27.5117C81.3355 28.1484 81.3738 28.2277 81.9719 28.3082L83.9984 28.5855V31.723H72.6719ZM99.7137 30.1824C98.0043 31.0164 95.5008 31.7715 93.2348 31.7715C88.5059 31.7715 86.7184 29.866 86.7184 25.373V14.9625C86.7184 14.7242 86.7184 14.5652 86.3992 14.5652H83.618V11.0273C87.116 10.6289 88.5059 8.88046 88.943 4.54882H92.7188V10.1933C92.7188 10.4707 92.7188 10.5906 93.0371 10.5906H98.6399V14.5644H92.7188V24.0617C92.7188 26.4062 93.2758 27.3195 95.4207 27.3195C96.5348 27.3195 97.6859 27.0422 98.6395 26.6844L99.7137 30.182" fill="#0E1017"/>
</g>
<g filter="url(#filter1_d_108_44)">
<path d="M40.8316 19.7539L22.6613 1.58478C22.4125 1.33586 22.117 1.1384 21.7919 1.00368C21.4667 0.868961 21.1182 0.799622 20.7662 0.799622C20.4142 0.799622 20.0657 0.868961 19.7405 1.00368C19.4154 1.1384 19.1199 1.33586 18.8711 1.58478L15.098 5.35821L19.8844 10.1442C20.447 9.95282 21.0519 9.92287 21.6307 10.0577C22.2094 10.1925 22.7389 10.4868 23.159 10.907C23.5814 11.33 23.8763 11.8632 24.01 12.4458C24.1437 13.0283 24.1109 13.6368 23.9152 14.2016L28.5273 18.8145C29.6434 18.4301 30.9312 18.6789 31.8223 19.5715C32.1185 19.8675 32.3535 20.2191 32.5138 20.606C32.6742 20.9929 32.7567 21.4076 32.7567 21.8264C32.7567 22.2452 32.6742 22.6599 32.5138 23.0468C32.3535 23.4337 32.1185 23.7852 31.8223 24.0813C31.3011 24.6029 30.6152 24.9279 29.8814 25.0008C29.1476 25.0736 28.4112 24.89 27.7976 24.481C27.184 24.0721 26.731 23.4631 26.5159 22.7578C26.3007 22.0524 26.3367 21.2943 26.6176 20.6125L22.316 16.3109L22.3156 27.6313C22.6275 27.7855 22.9123 27.9891 23.159 28.2344C23.4552 28.5305 23.6902 28.8821 23.8505 29.2691C24.0108 29.656 24.0933 30.0708 24.0933 30.4897C24.0933 30.9085 24.0108 31.3233 23.8505 31.7102C23.6902 32.0972 23.4552 32.4488 23.159 32.7449C21.9129 33.991 19.8934 33.991 18.6492 32.7449C18.2775 32.3735 18.0034 31.916 17.8511 31.4131C17.6989 30.9102 17.6733 30.3774 17.7766 29.8622C17.8798 29.347 18.1088 28.8653 18.4432 28.46C18.7775 28.0546 19.2068 27.7381 19.693 27.5387V16.1129C19.3019 15.9532 18.9469 15.7165 18.6492 15.4168C17.7055 14.4742 17.4785 13.0895 17.9621 11.9305L13.2441 7.21173L0.785545 19.6695C0.536589 19.9185 0.339106 20.214 0.204372 20.5393C0.069637 20.8646 0.000289917 21.2132 0.000289917 21.5652C0.000289917 21.9173 0.069637 22.2659 0.204372 22.5912C0.339106 22.9165 0.536589 23.212 0.785545 23.4609L18.9559 41.6305C19.4585 42.133 20.1402 42.4153 20.851 42.4153C21.5618 42.4153 22.2434 42.133 22.7461 41.6305L40.8316 23.5457C41.3343 23.0428 41.6166 22.3608 41.6166 21.6498C41.6166 20.9388 41.3343 20.2568 40.8316 19.7539Z" fill="#DE4C36"/>
</g>
</g>
<defs>
<filter id="filter0_d_108_44" x="47.6652" y="0.766785" width="58.0484" height="48.3641" filterUnits="userSpaceOnUse" color-interpolation-filters="sRGB">
<feFlood flood-opacity="0" result="BackgroundImageFix"/>
<feColorMatrix in="SourceAlpha" type="matrix" values="0 0 0 0 0 0 0 0 0 0 0 0 0 0 0 0 0 0 127 0" result="hardAlpha"/>
<feOffset dx="2" dy="4"/>
<feGaussianBlur stdDeviation="2"/>
<feComposite in2="hardAlpha" operator="out"/>
<feColorMatrix type="matrix" values="0 0 0 0 0 0 0 0 0 0 0 0 0 0 0 0 0 0 0.25 0"/>
<feBlend mode="normal" in2="BackgroundImageFix" result="effect1_dropShadow_108_44"/>
<feBlend mode="normal" in="SourceGraphic" in2="effect1_dropShadow_108_44" result="shape"/>
</filter>
<filter id="filter1_d_108_44" x="-1.99971" y="0.799622" width="49.6163" height="49.6157" filterUnits="userSpaceOnUse" color-interpolation-filters="sRGB">
<feFlood flood-opacity="0" result="BackgroundImageFix"/>
<feColorMatrix in="SourceAlpha" type="matrix" values="0 0 0 0 0 0 0 0 0 0 0 0 0 0 0 0 0 0 127 0" result="hardAlpha"/>
<feOffset dx="2" dy="4"/>
<feGaussianBlur stdDeviation="2"/>
<feComposite in2="hardAlpha" operator="out"/>
<feColorMatrix type="matrix" values="0 0 0 0 0 0 0 0 0 0 0 0 0 0 0 0 0 0 0.25 0"/>
<feBlend mode="normal" in2="BackgroundImageFix" result="effect1_dropShadow_108_44"/>
<feBlend mode="normal" in="SourceGraphic" in2="effect1_dropShadow_108_44" result="shape"/>
</filter>
<clipPath id="clip0_108_44">
<rect width="100" height="42.1875" fill="white" transform="translate(0 0.40625)"/>
</clipPath>
</defs>
</svg>
