<svg width="96" height="95" viewBox="0 0 96 95" fill="none" xmlns="http://www.w3.org/2000/svg">
<g clip-path="url(#clip0_2_263)">
<g filter="url(#filter0_d_2_263)">
<path d="M48.0004 0.625C21.4939 0.625 0 22.1151 0 48.6254C0 69.8331 13.7535 87.826 32.8256 94.1729C35.2245 94.6172 36.1054 93.1315 36.1054 91.8636C36.1054 90.7191 36.0604 86.938 36.0401 82.9274C22.6864 85.8306 19.8686 77.2637 19.8686 77.2637C17.685 71.7156 14.5387 70.24 14.5387 70.24C10.1839 67.261 14.8673 67.3225 14.8673 67.3225C19.6871 67.6608 22.2251 72.2688 22.2251 72.2688C26.5065 79.6068 33.4545 77.4854 36.1935 76.2588C36.6244 73.1568 37.8682 71.0387 39.2411 69.8403C28.5795 68.6268 17.3719 64.5107 17.3719 46.1185C17.3719 40.8779 19.2469 36.5957 22.3174 33.2342C21.819 32.0252 20.1761 27.1435 22.7824 20.5315C22.7824 20.5315 26.8132 19.2415 35.9861 25.4519C39.8149 24.3884 43.9211 23.8551 48.0004 23.8368C52.0796 23.8551 56.1893 24.388 60.0251 25.4519C69.1868 19.2419 73.212 20.5319 73.212 20.5319C75.8246 27.1431 74.181 32.0256 73.6826 33.2342C76.7602 36.5957 78.6225 40.8779 78.6225 46.1185C78.6225 64.5546 67.3935 68.614 56.7049 69.8024C58.4265 71.2919 59.9606 74.2131 59.9606 78.6914C59.9606 85.1136 59.9051 90.2826 59.9051 91.8636C59.9051 93.1413 60.7691 94.6379 63.2021 94.1661C82.2637 87.8125 96 69.8264 96 48.6257C96 22.1151 74.5091 0.625 48.0004 0.625ZM17.9779 69.0025C17.8721 69.241 17.4967 69.3126 17.1551 69.1488C16.8068 68.9924 16.6114 68.6673 16.7239 68.428C16.8274 68.1824 17.2035 68.1137 17.5507 68.2784C17.8995 68.4351 18.0983 68.7633 17.9779 69.0025ZM20.3389 71.1092C20.1101 71.3215 19.6624 71.2229 19.3586 70.8876C19.0448 70.5531 18.9859 70.1054 19.218 69.8901C19.4543 69.6779 19.8881 69.7773 20.2028 70.1118C20.517 70.4504 20.5777 70.8947 20.3389 71.1092ZM21.9589 73.8047C21.6645 74.0091 21.1838 73.8175 20.8864 73.3908C20.5924 72.964 20.5924 72.4521 20.8927 72.247C21.1909 72.0419 21.6645 72.2264 21.9656 72.6501C22.2589 73.084 22.2589 73.5959 21.9585 73.8051L21.9589 73.8047ZM24.6979 76.9266C24.435 77.2169 23.8744 77.1389 23.4641 76.7429C23.0445 76.3559 22.9279 75.8069 23.1919 75.5166C23.4581 75.2256 24.0218 75.3074 24.435 75.7004C24.8513 76.0866 24.9788 76.6397 24.6979 76.9266ZM28.2386 77.9804C28.1224 78.3565 27.5824 78.5275 27.039 78.3678C26.496 78.2031 26.1409 77.7629 26.2504 77.383C26.3633 77.0042 26.9055 76.8265 27.453 76.9975C27.9953 77.161 28.3515 77.5983 28.2386 77.9808V77.9804ZM32.2676 78.4277C32.2811 78.8234 31.8202 79.1515 31.2495 79.159C30.6758 79.1717 30.2111 78.8515 30.2048 78.4615C30.2048 78.0621 30.6555 77.737 31.2296 77.7272C31.8004 77.716 32.2676 78.034 32.2676 78.4277ZM36.2257 78.2759C36.294 78.6621 35.8976 79.0589 35.3306 79.1646C34.7738 79.2663 34.2578 79.0277 34.1869 78.6449C34.1179 78.2489 34.5218 77.8521 35.0779 77.7497C35.6456 77.6511 36.1534 77.8832 36.2257 78.2759Z" fill="#161614"/>
</g>
</g>
<defs>
<filter id="filter0_d_2_263" x="-2" y="0.625" width="104" height="101.63" filterUnits="userSpaceOnUse" color-interpolation-filters="sRGB">
<feFlood flood-opacity="0" result="BackgroundImageFix"/>
<feColorMatrix in="SourceAlpha" type="matrix" values="0 0 0 0 0 0 0 0 0 0 0 0 0 0 0 0 0 0 127 0" result="hardAlpha"/>
<feOffset dx="2" dy="4"/>
<feGaussianBlur stdDeviation="2"/>
<feComposite in2="hardAlpha" operator="out"/>
<feColorMatrix type="matrix" values="0 0 0 0 0 0 0 0 0 0 0 0 0 0 0 0 0 0 0.25 0"/>
<feBlend mode="normal" in2="BackgroundImageFix" result="effect1_dropShadow_2_263"/>
<feBlend mode="normal" in="SourceGraphic" in2="effect1_dropShadow_2_263" result="shape"/>
</filter>
<clipPath id="clip0_2_263">
<rect width="96" height="93.75" fill="white" transform="translate(0 0.625)"/>
</clipPath>
</defs>
</svg>
