<svg width="96" height="79" viewBox="0 0 96 79" fill="none" xmlns="http://www.w3.org/2000/svg">
<g clip-path="url(#clip0_2_280)">
<g filter="url(#filter0_d_2_280)">
<path d="M63.8445 22.1821L72.1894 13.8373L72.7456 10.3235C57.5389 -3.50387 33.366 -1.93599 19.6575 13.595C15.8502 17.9086 13.0253 23.2865 11.5189 28.8399L14.5077 28.4188L31.197 25.6663L32.4855 24.3489C39.9094 16.1956 52.4618 15.0988 61.0335 22.0359L63.8445 22.1821Z" fill="#EA4335"/>
</g>
<g filter="url(#filter1_d_2_280)">
<path d="M84.0769 28.5942C82.1589 21.5308 78.2207 15.1808 72.7455 10.3235L61.0335 22.0355C63.4744 24.0299 65.4306 26.5526 66.7544 29.4133C68.0782 32.2739 68.7351 35.3978 68.6756 38.5494V40.6284C74.4319 40.6284 79.0995 45.2952 79.0995 51.0519C79.0995 56.8089 74.4323 61.3587 68.6756 61.3587H47.799L45.7493 63.584V76.0865L47.799 78.0481H68.6753C83.649 78.1647 95.8826 66.2379 95.9993 51.2641C96.034 46.7956 94.9638 42.3877 92.8838 38.4326C90.8038 34.4775 87.7784 31.0978 84.0769 28.5942Z" fill="#4285F4"/>
</g>
<g filter="url(#filter2_d_2_280)">
<path d="M26.9512 78.0485H47.7986V61.3587H26.9512C25.4755 61.3585 24.0172 61.039 22.6766 60.422L19.719 61.3295L11.3156 69.6744L10.5836 72.5146C15.2962 76.073 21.0461 78.074 26.9512 78.0485Z" fill="#34A853"/>
</g>
<g filter="url(#filter3_d_2_280)">
<path d="M26.9512 23.9094C11.9775 23.999 -0.0888801 36.2105 0.000369862 51.1846C0.0249875 55.3109 0.991117 59.3772 2.82515 63.0736C4.65918 66.77 7.31273 69.999 10.5836 72.5146L22.6766 60.4224C17.4304 58.0516 15.0986 51.8776 17.469 46.6314C19.839 41.3851 26.0137 39.0534 31.2596 41.4234C33.5714 42.4679 35.4229 44.3195 36.4672 46.6314L48.5602 34.5384C46.0221 31.2201 42.7508 28.534 39.0021 26.6901C35.2533 24.8462 31.1289 23.8945 26.9512 23.9094Z" fill="#FBBC05"/>
</g>
</g>
<defs>
<filter id="filter0_d_2_280" x="9.51892" y="0.875183" width="69.2267" height="35.9647" filterUnits="userSpaceOnUse" color-interpolation-filters="sRGB">
<feFlood flood-opacity="0" result="BackgroundImageFix"/>
<feColorMatrix in="SourceAlpha" type="matrix" values="0 0 0 0 0 0 0 0 0 0 0 0 0 0 0 0 0 0 127 0" result="hardAlpha"/>
<feOffset dx="2" dy="4"/>
<feGaussianBlur stdDeviation="2"/>
<feComposite in2="hardAlpha" operator="out"/>
<feColorMatrix type="matrix" values="0 0 0 0 0 0 0 0 0 0 0 0 0 0 0 0 0 0 0.25 0"/>
<feBlend mode="normal" in2="BackgroundImageFix" result="effect1_dropShadow_2_280"/>
<feBlend mode="normal" in="SourceGraphic" in2="effect1_dropShadow_2_280" result="shape"/>
</filter>
<filter id="filter1_d_2_280" x="43.7493" y="10.3235" width="58.2509" height="75.7255" filterUnits="userSpaceOnUse" color-interpolation-filters="sRGB">
<feFlood flood-opacity="0" result="BackgroundImageFix"/>
<feColorMatrix in="SourceAlpha" type="matrix" values="0 0 0 0 0 0 0 0 0 0 0 0 0 0 0 0 0 0 127 0" result="hardAlpha"/>
<feOffset dx="2" dy="4"/>
<feGaussianBlur stdDeviation="2"/>
<feComposite in2="hardAlpha" operator="out"/>
<feColorMatrix type="matrix" values="0 0 0 0 0 0 0 0 0 0 0 0 0 0 0 0 0 0 0.25 0"/>
<feBlend mode="normal" in2="BackgroundImageFix" result="effect1_dropShadow_2_280"/>
<feBlend mode="normal" in="SourceGraphic" in2="effect1_dropShadow_2_280" result="shape"/>
</filter>
<filter id="filter2_d_2_280" x="8.58362" y="60.422" width="45.215" height="25.6267" filterUnits="userSpaceOnUse" color-interpolation-filters="sRGB">
<feFlood flood-opacity="0" result="BackgroundImageFix"/>
<feColorMatrix in="SourceAlpha" type="matrix" values="0 0 0 0 0 0 0 0 0 0 0 0 0 0 0 0 0 0 127 0" result="hardAlpha"/>
<feOffset dx="2" dy="4"/>
<feGaussianBlur stdDeviation="2"/>
<feComposite in2="hardAlpha" operator="out"/>
<feColorMatrix type="matrix" values="0 0 0 0 0 0 0 0 0 0 0 0 0 0 0 0 0 0 0.25 0"/>
<feBlend mode="normal" in2="BackgroundImageFix" result="effect1_dropShadow_2_280"/>
<feBlend mode="normal" in="SourceGraphic" in2="effect1_dropShadow_2_280" result="shape"/>
</filter>
<filter id="filter3_d_2_280" x="-2.00012" y="23.9092" width="56.5604" height="56.6054" filterUnits="userSpaceOnUse" color-interpolation-filters="sRGB">
<feFlood flood-opacity="0" result="BackgroundImageFix"/>
<feColorMatrix in="SourceAlpha" type="matrix" values="0 0 0 0 0 0 0 0 0 0 0 0 0 0 0 0 0 0 127 0" result="hardAlpha"/>
<feOffset dx="2" dy="4"/>
<feGaussianBlur stdDeviation="2"/>
<feComposite in2="hardAlpha" operator="out"/>
<feColorMatrix type="matrix" values="0 0 0 0 0 0 0 0 0 0 0 0 0 0 0 0 0 0 0.25 0"/>
<feBlend mode="normal" in2="BackgroundImageFix" result="effect1_dropShadow_2_280"/>
<feBlend mode="normal" in="SourceGraphic" in2="effect1_dropShadow_2_280" result="shape"/>
</filter>
<clipPath id="clip0_2_280">
<rect width="96" height="77.25" fill="white" transform="translate(0 0.875)"/>
</clipPath>
</defs>
</svg>
