<svg width="63" height="89" viewBox="0 0 63 89" fill="none" xmlns="http://www.w3.org/2000/svg">
<g clip-path="url(#clip0_108_14)">
<g filter="url(#filter0_d_108_14)">
<path d="M62.8905 17.4465L57.171 81.6349L31.4616 88.7752L5.82306 81.6448L0.109497 17.4465H62.8905Z" fill="#E44D26"/>
</g>
<path d="M31.5 83.3173L52.2745 77.5476L57.1619 22.6955H31.5V83.3173Z" fill="#F16529"/>
<path d="M20.3815 38.4431H31.5V30.5694H11.7921L11.9801 32.6817L13.912 54.3795H31.5V46.5058H21.0999L20.3815 38.4431ZM22.1529 58.3164H14.2631L15.3642 70.6793L31.4639 75.1564L31.5 75.1466V66.9546L31.4656 66.9637L22.7125 64.596L22.1529 58.3164Z" fill="#EBEBEB"/>
<path d="M5.95056 0H9.94466V3.95323H13.5984V0H17.5928V11.9714H13.5987V7.96267H9.94491V11.9714H5.95081V0H5.95056ZM22.8449 3.96999H19.3292V0H30.3576V3.96999H26.8397V11.9714H22.8456V3.96999H22.8454H22.8449ZM32.1079 0H36.2725L38.8343 4.20642L41.3937 0H45.5601V11.9714H41.5822V6.0377L38.8343 10.2942H38.7654L36.0158 6.0377V11.9714H32.1079V0ZM47.5478 0H51.5431V8.01444H57.16V11.9714H47.5475V0H47.5478Z" fill="#0E1017"/>
<path d="M31.4729 54.3795H41.151L40.2385 64.5911L31.4727 66.9613V75.1527L47.5852 70.6793L47.7033 69.349L49.5505 48.6201L49.7422 46.5058H31.4729V54.3795ZM31.4729 38.4238V38.4431H50.4573L50.6148 36.6734L50.9731 32.6817L51.1609 30.5694H31.4729V38.4241V38.4238Z" fill="white"/>
</g>
<defs>
<filter id="filter0_d_108_14" x="-1.8905" y="17.4465" width="70.781" height="79.3287" filterUnits="userSpaceOnUse" color-interpolation-filters="sRGB">
<feFlood flood-opacity="0" result="BackgroundImageFix"/>
<feColorMatrix in="SourceAlpha" type="matrix" values="0 0 0 0 0 0 0 0 0 0 0 0 0 0 0 0 0 0 127 0" result="hardAlpha"/>
<feOffset dx="2" dy="4"/>
<feGaussianBlur stdDeviation="2"/>
<feComposite in2="hardAlpha" operator="out"/>
<feColorMatrix type="matrix" values="0 0 0 0 0 0 0 0 0 0 0 0 0 0 0 0 0 0 0.25 0"/>
<feBlend mode="normal" in2="BackgroundImageFix" result="effect1_dropShadow_108_14"/>
<feBlend mode="normal" in="SourceGraphic" in2="effect1_dropShadow_108_14" result="shape"/>
</filter>
<clipPath id="clip0_108_14">
<rect width="63" height="89" fill="white"/>
</clipPath>
</defs>
</svg>
