<svg width="91" height="91" viewBox="0 0 91 91" fill="none" xmlns="http://www.w3.org/2000/svg">
<g clip-path="url(#clip0_108_31)">
<path d="M0 0H91V91H0V0Z" fill="#F7DF1E"/>
<path d="M23.9273 76.0461L30.8909 71.8317C32.2346 74.2137 33.4567 76.2292 36.3883 76.2292C39.1982 76.2292 40.9702 75.1301 40.9702 70.8545V41.7779H49.5218V70.9754C49.5218 79.8326 44.3298 83.8643 36.7547 83.8643C29.9137 83.8643 25.9428 80.3214 23.9269 76.0454L23.9273 76.0461ZM54.1667 75.1297L61.1296 71.0984C62.9627 74.0918 65.3451 76.2907 69.5595 76.2907C73.1032 76.2907 75.3626 74.519 75.3626 72.0755C75.3626 69.1436 73.0413 68.105 69.1319 66.3952L66.9945 65.478C60.8246 62.8522 56.7321 59.5535 56.7321 52.5898C56.7321 46.1757 61.6187 41.2888 69.2545 41.2888C74.6911 41.2888 78.6005 43.1827 81.4101 48.1305L74.7515 52.4068C73.2852 49.7802 71.6977 48.7419 69.2542 48.7419C66.7495 48.7419 65.1613 50.3301 65.1613 52.4068C65.1613 54.9722 66.7496 56.0112 70.4144 57.5994L72.5522 58.5155C79.8216 61.6312 83.9141 64.8073 83.9141 71.9536C83.9141 79.6509 77.8668 83.8654 69.7426 83.8654C61.8018 83.8654 56.6706 80.0782 54.1663 75.1301" fill="black"/>
</g>
<defs>
<clipPath id="clip0_108_31">
<rect width="91" height="91" fill="white"/>
</clipPath>
</defs>
</svg>
