<svg width="146" height="35" viewBox="0 0 146 35" fill="none" xmlns="http://www.w3.org/2000/svg">
<g clip-path="url(#clip0_108_35)">
<g filter="url(#filter0_d_108_35)">
<path fill-rule="evenodd" clip-rule="evenodd" d="M139.19 3.42572L145.256 3.45937C145.256 3.45937 133.978 18.8483 133.057 20.1025C132.758 20.5085 132.304 20.9466 132.073 21.4895C131.49 22.8543 130.892 25.8483 130.892 25.8483L125.342 25.8763C125.342 25.8763 126.206 22.7554 126.17 21.0931C126.139 19.6411 125.402 18.1907 124.99 16.7343C124.572 15.26 124.005 12.3752 124.005 12.3752H129.712L130.499 15.5454L139.19 3.42572Z" fill="#1A1918"/>
</g>
<g filter="url(#filter1_d_108_35)">
<path fill-rule="evenodd" clip-rule="evenodd" d="M127.703 6.67122C128.822 7.35078 129.509 11.0996 129.509 11.0996C129.509 11.0996 123.652 11.1866 120.464 11.1866H117.709L114.364 25.8483H109.248C109.248 25.8483 112.432 9.91474 113.184 7.02597C113.427 6.09062 114.852 6.25117 117.259 6.25117H121.101C123.583 6.25117 126.483 5.93206 127.703 6.67122ZM103.886 13.8119C103.886 13.8119 104.046 12.8708 103.345 11.7809C102.747 10.8518 102.194 10.6356 100.62 10.586C96.1752 10.4454 96.2615 13.7622 96.2615 13.7622L103.886 13.8119ZM108.707 10.0134C109.358 12.3795 108.117 17.9388 108.117 17.9388C108.117 17.9388 101.633 17.8299 98.0817 17.9388C96.9775 17.9728 95.6558 17.8179 95.327 18.3352C94.8645 19.0601 95.496 20.176 96.0313 20.6474C96.6473 21.1901 97.8472 21.2519 98.2785 21.307C101.161 21.6757 107.194 21.4022 107.194 21.4022L106.149 26.0619C106.149 26.0619 97.6235 26.4925 93.3593 25.4676C92.5173 25.2657 91.728 24.8576 91.1947 24.279C91.0492 24.1207 90.9229 23.9049 90.7852 23.7184C90.6753 23.5695 90.3548 23.0804 90.2109 22.6937C89.2369 20.0805 90.325 15.074 91.3916 12.3911C91.5153 12.0803 91.6708 11.6859 91.8345 11.3509C92.039 10.9331 92.212 10.4614 92.3754 10.2116C92.4853 10.0394 92.6215 9.92843 92.7356 9.76588C92.8673 9.57368 93.0205 9.38746 93.1624 9.22121C93.5561 8.76151 94.0027 8.43642 94.5399 8.03262C96.3165 6.6929 99.5317 5.65288 103.394 6.05098C104.849 6.20155 107.045 6.72455 108.117 8.23053C108.404 8.63262 108.546 9.43109 108.707 10.0137V10.0134ZM85.2426 6.23292L90.2032 6.20354C90.2032 6.20354 87.4386 19.4089 86.0297 25.8483H80.3231C76.335 25.8483 72.7834 26.3456 71.2722 23.4705C69.8064 20.679 71.2054 16.0884 71.8624 12.9695C72.3269 10.7623 73.305 6.25088 73.305 6.25088L78.4446 6.20354C78.4446 6.20354 76.9924 13.2273 76.388 16.7343C76.1716 17.9904 75.7253 19.1733 76.1915 20.1021C76.6341 20.9862 77.254 21.0495 79.1427 21.0931C79.7411 21.1073 81.7009 21.0931 81.7009 21.0931L85.2426 6.23292ZM62.0242 15.7433C62.5436 13.8852 63.3012 11.8701 63.2049 10.1956C63.1007 8.40477 61.6093 6.77417 60.647 6.4314C57.7487 5.40108 55.0353 6.84147 53.9569 8.01637C52.5618 9.53803 52.0894 11.3155 51.5955 13.7625C51.2279 15.5791 50.9266 17.4968 51.5955 18.9135C52.7799 21.4182 56.4734 20.8712 60.4502 20.8952C61.0404 19.3022 61.5283 17.5131 62.0242 15.7433ZM68.9111 8.41275C69.4776 12.5614 67.3037 17.1406 65.8061 21.1227C67.3331 21.2616 68.6713 21.1014 68.7676 21.216C68.8678 21.3646 67.7441 25.9692 67.3524 25.9812C66.1406 26.0128 62.1247 26.0465 60.4502 26.0465C54.9857 26.0465 49.8739 26.4049 47.267 23.669C46.2084 22.5574 45.4763 20.6511 45.299 19.3099C45.0039 17.0711 45.3738 14.6061 45.8895 12.5737C46.356 10.7386 46.9538 9.00704 47.8572 7.42179C50.1534 3.38607 54.1477 0.390368 60.8435 1.0819C62.1423 1.2165 64.0075 1.78912 65.1726 2.46868C65.253 2.51631 65.5348 2.74216 65.5994 2.7818C67.1737 3.79044 68.6081 6.19756 68.9111 8.41275ZM44.7343 6.25687C44.4038 7.77255 44.0733 9.49069 43.725 10.9884H38.2156C38.6423 9.32815 38.9692 7.67759 39.3962 6.2332C41.1592 6.2332 42.7984 6.25687 44.7346 6.25687H44.7343ZM38.0187 12.3755H43.3316C42.6369 16.2469 41.2614 22.4918 40.1833 26.839C39.5084 29.5595 39.0578 31.5445 37.2317 32.9809C37.0683 33.1098 36.974 33.0485 36.8381 33.1791C36.5016 33.5022 34.9451 33.8769 34.0836 33.9716C32.6826 34.1245 31.0986 33.9916 29.3768 33.9559C29.8273 32.2977 30.3371 30.3063 30.7387 28.82C34.9358 29.3316 35.042 25.337 35.8545 21.4895C36.3246 19.2663 37.7494 13.2669 38.0187 12.3755Z" fill="#1A1918"/>
</g>
<g filter="url(#filter2_d_108_35)">
<path fill-rule="evenodd" clip-rule="evenodd" d="M25.6225 22.4804L25.5086 22.7773C23.5687 26.5815 20.1308 28.9156 15.2275 29.0185C12.9352 29.0659 10.7511 28.4739 9.32435 27.8297C6.24535 26.4372 3.65545 23.8535 2.24113 21.0934C0.212257 17.1367 -0.153643 11.6323 4.06496 7.5213C4.1301 7.5213 3.55321 8.41274 3.61835 8.41274L3.50224 8.79316C0.462326 18.3769 9.82817 26.5895 18.9326 25.6501C21.1206 25.4245 23.9108 24.218 25.6225 22.4804Z" fill="#21609B"/>
</g>
<path fill-rule="evenodd" clip-rule="evenodd" d="M20.1129 18.5175C22.4035 18.5334 24.796 17.4555 26.2129 15.9418C24.9733 19.11 21.3842 21.1467 16.5715 20.4988C12.5415 19.9559 8.70267 15.8725 8.30732 11.7812C8.01817 8.80314 9.04875 7.02596 10.7471 4.87036C10.1569 5.99764 9.93631 6.86741 9.88136 7.42206C9.23623 13.8635 14.9915 18.4838 20.1129 18.5175Z" fill="#21609B"/>
<path fill-rule="evenodd" clip-rule="evenodd" d="M25.9826 10.517C25.6266 11.3394 23.5765 12.8925 22.6711 13.0864C19.086 13.8555 16.7901 12.1436 15.5873 10.1959C15.4086 9.90476 15.0781 9.11028 15.0189 8.90809C14.5525 7.31114 14.7669 4.89575 16.1583 3.64557C15.7391 4.83473 15.678 6.21523 15.8986 7.11295C16.0322 7.65591 16.4395 8.60324 16.847 9.19925C17.5884 10.2852 18.0586 10.549 19.0113 11.1253C19.4403 11.3848 19.9005 11.593 20.0993 11.6503C21.0025 11.9178 22.9093 12.6233 25.9829 10.517" fill="#21609B"/>
</g>
<defs>
<filter id="filter0_d_108_35" x="122.005" y="3.42572" width="29.2507" height="30.4506" filterUnits="userSpaceOnUse" color-interpolation-filters="sRGB">
<feFlood flood-opacity="0" result="BackgroundImageFix"/>
<feColorMatrix in="SourceAlpha" type="matrix" values="0 0 0 0 0 0 0 0 0 0 0 0 0 0 0 0 0 0 127 0" result="hardAlpha"/>
<feOffset dx="2" dy="4"/>
<feGaussianBlur stdDeviation="2"/>
<feComposite in2="hardAlpha" operator="out"/>
<feColorMatrix type="matrix" values="0 0 0 0 0 0 0 0 0 0 0 0 0 0 0 0 0 0 0.25 0"/>
<feBlend mode="normal" in2="BackgroundImageFix" result="effect1_dropShadow_108_35"/>
<feBlend mode="normal" in="SourceGraphic" in2="effect1_dropShadow_108_35" result="shape"/>
</filter>
<filter id="filter1_d_108_35" x="27.3768" y="0.98233" width="108.133" height="41.0612" filterUnits="userSpaceOnUse" color-interpolation-filters="sRGB">
<feFlood flood-opacity="0" result="BackgroundImageFix"/>
<feColorMatrix in="SourceAlpha" type="matrix" values="0 0 0 0 0 0 0 0 0 0 0 0 0 0 0 0 0 0 127 0" result="hardAlpha"/>
<feOffset dx="2" dy="4"/>
<feGaussianBlur stdDeviation="2"/>
<feComposite in2="hardAlpha" operator="out"/>
<feColorMatrix type="matrix" values="0 0 0 0 0 0 0 0 0 0 0 0 0 0 0 0 0 0 0.25 0"/>
<feBlend mode="normal" in2="BackgroundImageFix" result="effect1_dropShadow_108_35"/>
<feBlend mode="normal" in="SourceGraphic" in2="effect1_dropShadow_108_35" result="shape"/>
</filter>
<filter id="filter2_d_108_35" x="-1.22226" y="7.5213" width="32.8447" height="29.4999" filterUnits="userSpaceOnUse" color-interpolation-filters="sRGB">
<feFlood flood-opacity="0" result="BackgroundImageFix"/>
<feColorMatrix in="SourceAlpha" type="matrix" values="0 0 0 0 0 0 0 0 0 0 0 0 0 0 0 0 0 0 127 0" result="hardAlpha"/>
<feOffset dx="2" dy="4"/>
<feGaussianBlur stdDeviation="2"/>
<feComposite in2="hardAlpha" operator="out"/>
<feColorMatrix type="matrix" values="0 0 0 0 0 0 0 0 0 0 0 0 0 0 0 0 0 0 0.25 0"/>
<feBlend mode="normal" in2="BackgroundImageFix" result="effect1_dropShadow_108_35"/>
<feBlend mode="normal" in="SourceGraphic" in2="effect1_dropShadow_108_35" result="shape"/>
</filter>
<clipPath id="clip0_108_35">
<rect width="145" height="33.0797" fill="white" transform="translate(0.5 0.960144)"/>
</clipPath>
</defs>
</svg>
