<svg width="100" height="61" viewBox="0 0 100 61" fill="none" xmlns="http://www.w3.org/2000/svg">
<g clip-path="url(#clip0_2_269)">
<g filter="url(#filter0_d_2_269)">
<path d="M23.5957 16.0588H42.4566V17.558H25.3246V28.8406H41.4352V30.3396H25.3246V42.727H42.6531V44.226H23.5957V16.0588ZM44.1465 16.0588H46.1504L55.0307 28.4461L64.1074 16.0586L76.4533 0.324219L56.1701 29.748L66.6223 44.226H64.5396L55.0307 31.0498L45.4822 44.226H43.4391L53.9697 29.7479L44.1463 16.0588H44.1465ZM67.3688 17.558V16.0586H88.8625V17.5578H78.9604V44.2258H77.2314V17.558H67.3688ZM0 16.0586H2.16113L31.9619 60.6529L19.6469 44.2258L1.80742 18.1891L1.72891 44.2262H0V16.0586ZM88.6883 42.2742C88.335 42.2742 88.0701 42.0008 88.0701 41.6469C88.0701 41.2934 88.335 41.0195 88.6883 41.0195C89.0457 41.0195 89.3064 41.2932 89.3064 41.6469C89.3064 42.0006 89.0457 42.2742 88.6883 42.2742ZM90.3871 40.6238H91.3123C91.3248 41.1248 91.6906 41.4617 92.2289 41.4617C92.8303 41.4617 93.1709 41.0996 93.1709 40.4217V36.1268H94.1129V40.4258C94.1129 41.6469 93.4064 42.3502 92.2373 42.3502C91.1396 42.3502 90.3871 41.668 90.3871 40.6236V40.6238ZM95.3449 40.5691H96.2785C96.3584 41.1459 96.9219 41.5121 97.7336 41.5121C98.4904 41.5121 99.0455 41.1205 99.0455 40.5816C99.0455 40.1186 98.6922 39.8406 97.8891 39.6512L97.1068 39.4617C96.0092 39.2047 95.509 38.6742 95.509 37.7816C95.509 36.6996 96.392 35.9795 97.7166 35.9795C98.9486 35.9795 99.8486 36.6994 99.9033 37.7227H98.9865C98.8982 37.1627 98.4103 36.8131 97.7039 36.8131C96.9598 36.8131 96.4637 37.1711 96.4637 37.7184C96.4637 38.152 96.783 38.4006 97.5736 38.5857L98.2422 38.75C99.4869 39.0406 100 39.5459 100 40.4596C100 41.6217 99.1002 42.3502 97.6621 42.3502C96.3164 42.3502 95.4121 41.6553 95.3449 40.5689V40.5691Z" fill="black"/>
</g>
</g>
<defs>
<filter id="filter0_d_2_269" x="-2" y="0.324219" width="108" height="68.3287" filterUnits="userSpaceOnUse" color-interpolation-filters="sRGB">
<feFlood flood-opacity="0" result="BackgroundImageFix"/>
<feColorMatrix in="SourceAlpha" type="matrix" values="0 0 0 0 0 0 0 0 0 0 0 0 0 0 0 0 0 0 127 0" result="hardAlpha"/>
<feOffset dx="2" dy="4"/>
<feGaussianBlur stdDeviation="2"/>
<feComposite in2="hardAlpha" operator="out"/>
<feColorMatrix type="matrix" values="0 0 0 0 0 0 0 0 0 0 0 0 0 0 0 0 0 0 0.25 0"/>
<feBlend mode="normal" in2="BackgroundImageFix" result="effect1_dropShadow_2_269"/>
<feBlend mode="normal" in="SourceGraphic" in2="effect1_dropShadow_2_269" result="shape"/>
</filter>
<clipPath id="clip0_2_269">
<rect width="100" height="60.3516" fill="white" transform="translate(0 0.324219)"/>
</clipPath>
</defs>
</svg>
