<svg width="96" height="37" viewBox="0 0 96 37" fill="none" xmlns="http://www.w3.org/2000/svg">
<g clip-path="url(#clip0_2_286)">
<g filter="url(#filter0_d_2_286)">
<path d="M70.6533 30.077L73.4266 23.0639H81.4342L77.6341 12.4254L82.3869 0.40625L95.9999 36.5504H85.9608L83.6345 30.077H70.6533Z" fill="#3D3D3D"/>
</g>
<g filter="url(#filter1_d_2_286)">
<path d="M62.0888 36.5506L76.6618 0.40625L67.0003 0.406438L57.0315 23.7635L49.9427 0.406438H42.5164L34.9048 23.7635L29.5369 13.1202L24.6793 28.0859L29.6113 36.5506H39.1194L45.9975 15.6042L52.5555 36.5506H62.0888Z" fill="#5A0FC8"/>
</g>
<g filter="url(#filter2_d_2_286)">
<path d="M9.171 24.1428H15.1219C16.9245 24.1428 18.5297 23.9416 19.9374 23.5391L21.4764 18.7977L25.7777 5.54637C25.4473 5.02341 25.0718 4.5304 24.6553 4.073C22.4467 1.62837 19.2157 0.40625 14.9616 0.40625H0V36.5506H9.171V24.1428ZM17.0479 8.7215C17.9106 9.58963 18.3418 10.7516 18.3418 12.2071C18.3418 13.6737 17.9625 14.837 17.2039 15.6967C16.3723 16.652 14.841 17.1296 12.6101 17.1296H9.171V7.4195H12.6353C14.7146 7.4195 16.1854 7.85356 17.0479 8.72169V8.7215Z" fill="#3D3D3D"/>
</g>
</g>
<defs>
<filter id="filter0_d_2_286" x="68.6533" y="0.40625" width="33.3467" height="44.1442" filterUnits="userSpaceOnUse" color-interpolation-filters="sRGB">
<feFlood flood-opacity="0" result="BackgroundImageFix"/>
<feColorMatrix in="SourceAlpha" type="matrix" values="0 0 0 0 0 0 0 0 0 0 0 0 0 0 0 0 0 0 127 0" result="hardAlpha"/>
<feOffset dx="2" dy="4"/>
<feGaussianBlur stdDeviation="2"/>
<feComposite in2="hardAlpha" operator="out"/>
<feColorMatrix type="matrix" values="0 0 0 0 0 0 0 0 0 0 0 0 0 0 0 0 0 0 0.25 0"/>
<feBlend mode="normal" in2="BackgroundImageFix" result="effect1_dropShadow_2_286"/>
<feBlend mode="normal" in="SourceGraphic" in2="effect1_dropShadow_2_286" result="shape"/>
</filter>
<filter id="filter1_d_2_286" x="22.6793" y="0.40625" width="59.9825" height="44.1444" filterUnits="userSpaceOnUse" color-interpolation-filters="sRGB">
<feFlood flood-opacity="0" result="BackgroundImageFix"/>
<feColorMatrix in="SourceAlpha" type="matrix" values="0 0 0 0 0 0 0 0 0 0 0 0 0 0 0 0 0 0 127 0" result="hardAlpha"/>
<feOffset dx="2" dy="4"/>
<feGaussianBlur stdDeviation="2"/>
<feComposite in2="hardAlpha" operator="out"/>
<feColorMatrix type="matrix" values="0 0 0 0 0 0 0 0 0 0 0 0 0 0 0 0 0 0 0.25 0"/>
<feBlend mode="normal" in2="BackgroundImageFix" result="effect1_dropShadow_2_286"/>
<feBlend mode="normal" in="SourceGraphic" in2="effect1_dropShadow_2_286" result="shape"/>
</filter>
<filter id="filter2_d_2_286" x="-2" y="0.40625" width="33.7777" height="44.1444" filterUnits="userSpaceOnUse" color-interpolation-filters="sRGB">
<feFlood flood-opacity="0" result="BackgroundImageFix"/>
<feColorMatrix in="SourceAlpha" type="matrix" values="0 0 0 0 0 0 0 0 0 0 0 0 0 0 0 0 0 0 127 0" result="hardAlpha"/>
<feOffset dx="2" dy="4"/>
<feGaussianBlur stdDeviation="2"/>
<feComposite in2="hardAlpha" operator="out"/>
<feColorMatrix type="matrix" values="0 0 0 0 0 0 0 0 0 0 0 0 0 0 0 0 0 0 0.25 0"/>
<feBlend mode="normal" in2="BackgroundImageFix" result="effect1_dropShadow_2_286"/>
<feBlend mode="normal" in="SourceGraphic" in2="effect1_dropShadow_2_286" result="shape"/>
</filter>
<clipPath id="clip0_2_286">
<rect width="96" height="36.1875" fill="white" transform="translate(0 0.40625)"/>
</clipPath>
</defs>
</svg>
