<svg width="96" height="87" viewBox="0 0 96 87" fill="none" xmlns="http://www.w3.org/2000/svg">
<g clip-path="url(#clip0_2_266)">
<g filter="url(#filter0_d_2_266)">
<path d="M78.9311 28.4341C77.9095 28.0836 76.8791 27.7589 75.8411 27.4602C76.0155 26.7477 76.176 26.0439 76.3185 25.3524C78.6578 13.997 77.1285 4.84887 71.9051 1.83687C66.897 -1.05063 58.7066 1.96024 50.4349 9.15912C49.6197 9.86987 48.8225 10.6011 48.0443 11.3521C47.5232 10.8527 46.993 10.363 46.4539 9.88324C37.7846 2.18599 29.0951 -1.05813 23.8774 1.96249C18.8738 4.85899 17.3921 13.4589 19.4981 24.2206C19.7076 25.2865 19.9442 26.3468 20.2076 27.4006C18.9776 27.7501 17.7907 28.1221 16.6549 28.5181C6.49087 32.0619 0 37.6152 0 43.3756C0 49.325 6.96825 55.2924 17.5545 58.9107C18.4127 59.2029 19.2781 59.4736 20.1499 59.7226C19.8668 60.8576 19.6154 62.0003 19.3961 63.1494C17.3884 73.7244 18.9562 82.121 23.9464 84.9991C29.1004 87.9714 37.7509 84.9166 46.1737 77.5535C46.8568 76.9549 47.5247 76.3393 48.177 75.7074C49.0198 76.5206 49.8852 77.3101 50.772 78.0751C58.9312 85.0959 66.9893 87.9309 71.9745 85.0449C77.1236 82.064 78.7972 73.0437 76.6245 62.0694C76.4533 61.2096 76.2614 60.3541 76.0489 59.5036C76.6564 59.3236 77.2526 59.1384 77.8339 58.9456C88.8394 55.2995 96 49.4045 96 43.3756C96 37.5942 89.2995 32.0034 78.9311 28.4341ZM76.5443 55.0531C76.0192 55.2267 75.4808 55.3944 74.9317 55.5575C73.7168 51.7111 72.0772 47.6214 70.0706 43.3955C71.9854 39.2705 73.5619 35.2329 74.7428 31.4116C75.7249 31.6959 76.6777 31.9955 77.5965 32.3116C86.4802 35.3701 91.899 39.8915 91.899 43.3756C91.899 47.0866 86.0467 51.9042 76.5443 55.0531ZM72.6015 62.8659C73.5622 67.7184 73.6991 72.1059 73.0628 75.536C72.4912 78.6181 71.3415 80.6727 69.9195 81.4959C66.8944 83.2471 60.4245 80.9709 53.4469 74.9664C52.622 74.2551 51.8171 73.5211 51.033 72.7651C53.7383 69.8067 56.4416 66.3676 59.0801 62.5479C63.7211 62.1361 68.1056 61.4626 72.0817 60.5435C72.2733 61.3134 72.4466 62.0878 72.6015 62.8659ZM32.7285 81.1932C29.7728 82.2369 27.4185 82.2669 25.9954 81.4464C22.9672 79.7 21.7084 72.9579 23.4255 63.9144C23.6296 62.8457 23.8633 61.7829 24.1264 60.7272C28.0586 61.5972 32.4113 62.2227 37.0631 62.6C39.7196 66.3376 42.501 69.773 45.3041 72.7812C44.7084 73.3577 44.0986 73.9193 43.4753 74.4657C39.7504 77.7215 36.018 80.0315 32.7285 81.1932ZM18.8812 55.0302C14.2001 53.4301 10.3343 51.3507 7.6845 49.0816C5.30325 47.0427 4.10138 45.0181 4.10138 43.3756C4.10138 39.8799 9.31275 35.4211 18.0049 32.3907C19.0597 32.0232 20.1637 31.6764 21.3094 31.3509C22.5109 35.2584 24.0866 39.344 25.9883 43.4754C24.0619 47.6679 22.4636 51.8187 21.2505 55.7724C20.4548 55.5444 19.6648 55.297 18.8812 55.0302ZM23.523 23.4327C21.7189 14.2126 22.917 7.25749 25.9324 5.51187C29.1439 3.65262 36.2456 6.30349 43.731 12.95C44.2191 13.3844 44.6993 13.8276 45.1714 14.2794C42.3821 17.2745 39.6263 20.6844 36.9934 24.3999C32.4784 24.8184 28.1565 25.4904 24.183 26.3907C23.9382 25.4106 23.7181 24.4244 23.523 23.4331V23.4327ZM64.9331 33.6582C63.9946 32.0371 63.0212 30.4363 62.0137 28.8571C65.0768 29.2445 68.0115 29.7586 70.7674 30.3871C69.9401 33.0391 68.9089 35.8115 67.695 38.654C66.8077 36.9705 65.8869 35.3049 64.9331 33.6582ZM48.0461 17.2104C49.9376 19.2597 51.8321 21.5476 53.6955 24.0301C49.9155 23.8516 46.1292 23.8508 42.3491 24.0279C44.2144 21.5682 46.125 19.2834 48.0461 17.2104ZM31.0508 33.6864C30.1089 35.3198 29.2053 36.975 28.3406 38.6506C27.1466 35.8182 26.1248 33.0331 25.2904 30.3436C28.0294 29.7309 30.9503 29.2299 33.9938 28.8496C32.975 30.4385 31.9938 32.0511 31.0508 33.686V33.6864ZM34.0811 58.1934C30.9368 57.8424 27.972 57.3672 25.2337 56.771C26.0813 54.0335 27.1256 51.1891 28.3455 48.296C29.2136 49.9728 30.1209 51.6291 31.0669 53.2632C32.0396 54.9432 33.0469 56.5887 34.0811 58.1934ZM48.1594 69.8296C46.2154 67.7326 44.2766 65.4125 42.3833 62.9172C44.2215 62.9892 46.0954 63.026 48 63.026C49.9567 63.026 51.891 62.9821 53.7949 62.8974C51.9255 65.4376 50.0381 67.7611 48.1594 69.8296ZM67.7336 48.1482C69.0169 51.0732 70.0984 53.9026 70.9571 56.5932C68.1739 57.2285 65.1686 57.74 62.0021 58.1199C63.0168 56.5113 63.9994 54.8828 64.9492 53.2351C65.915 51.5604 66.8434 49.8643 67.7336 48.1482ZM61.3969 51.1861C59.9427 53.7123 58.4068 56.1904 56.7915 58.6167C53.8656 58.824 50.9332 58.9269 48 58.9254C45.0124 58.9254 42.1065 58.8324 39.3083 58.6509C37.6508 56.2302 36.0856 53.7477 34.6159 51.2086H34.6162C33.1534 48.683 31.7871 46.1028 30.5201 43.4735C31.7839 40.8436 33.1461 38.2621 34.6039 35.7346L34.6035 35.735C36.0607 33.2068 37.6135 30.7349 39.2584 28.3246C42.1133 28.1086 45.0409 27.9961 47.9996 27.9961H48C50.9723 27.9961 53.9036 28.1097 56.7578 28.3272C58.386 30.7339 59.9289 33.1973 61.3834 35.7129C62.846 38.2348 64.2263 40.8037 65.5219 43.4154C64.2396 46.0538 62.8637 48.6457 61.3969 51.1861ZM69.8569 5.38962C73.0714 7.24362 74.3216 14.72 72.3019 24.5244C72.1729 25.1499 72.0281 25.787 71.8706 26.4331C67.8874 25.5136 63.5625 24.83 59.0344 24.4051C56.3966 20.6487 53.6632 17.2336 50.9194 14.2771C51.6385 13.5839 52.3747 12.9087 53.1274 12.2521C60.2149 6.08449 66.8389 3.64924 69.8569 5.38962ZM48 34.8031C52.7344 34.8031 56.5725 38.6412 56.5725 43.3756C56.5725 48.11 52.7344 51.9481 48 51.9481C43.2656 51.9481 39.4275 48.11 39.4275 43.3756C39.4275 38.6412 43.2656 34.8031 48 34.8031Z" fill="#00D8FF"/>
</g>
</g>
<defs>
<filter id="filter0_d_2_266" x="-2" y="0.750183" width="104" height="93.4126" filterUnits="userSpaceOnUse" color-interpolation-filters="sRGB">
<feFlood flood-opacity="0" result="BackgroundImageFix"/>
<feColorMatrix in="SourceAlpha" type="matrix" values="0 0 0 0 0 0 0 0 0 0 0 0 0 0 0 0 0 0 127 0" result="hardAlpha"/>
<feOffset dx="2" dy="4"/>
<feGaussianBlur stdDeviation="2"/>
<feComposite in2="hardAlpha" operator="out"/>
<feColorMatrix type="matrix" values="0 0 0 0 0 0 0 0 0 0 0 0 0 0 0 0 0 0 0.25 0"/>
<feBlend mode="normal" in2="BackgroundImageFix" result="effect1_dropShadow_2_266"/>
<feBlend mode="normal" in="SourceGraphic" in2="effect1_dropShadow_2_266" result="shape"/>
</filter>
<clipPath id="clip0_2_266">
<rect width="96" height="85.5" fill="white" transform="translate(0 0.75)"/>
</clipPath>
</defs>
</svg>
