<svg width="138" height="112" viewBox="0 0 138 112" fill="none" xmlns="http://www.w3.org/2000/svg">
<path d="M9.25551 8.99011H5.90469V15.4507C5.90469 17.1735 7.03967 17.1467 9.25551 17.0389V19.6498C4.76971 20.1881 2.98606 18.9501 2.98606 15.4507V8.99047H0.5V6.19105H2.98606V2.57548L5.90469 1.71445V6.19105H9.25551V8.99047V8.99011ZM22.029 6.19105H24.9477V19.6498H22.029V17.7118C21.0023 19.1386 19.4079 20 17.3003 20C13.6247 20 10.571 16.9043 10.571 12.9204C10.571 8.90979 13.6247 5.84122 17.2999 5.84122C19.4079 5.84122 21.0023 6.70224 22.029 8.10231V6.19105ZM17.7593 17.2274C20.1913 17.2274 22.029 15.4239 22.029 12.9204C22.029 10.4169 20.1913 8.6135 17.7593 8.6135C15.3274 8.6135 13.4896 10.4169 13.4896 12.9204C13.4896 15.4239 15.3274 17.2274 17.7593 17.2274ZM29.8119 4.17199C28.7848 4.17199 27.9473 3.31096 27.9473 2.315C27.9483 1.82269 28.145 1.35082 28.4945 1.00271C28.844 0.654593 29.3177 0.458601 29.8119 0.457645C30.3062 0.458601 30.7799 0.654593 31.1294 1.00271C31.4788 1.35082 31.6756 1.82269 31.6766 2.315C31.6766 3.31096 30.8387 4.17199 29.8119 4.17199ZM28.3526 19.6498V6.19105H31.2709V19.6498H28.3526ZM34.6489 19.6498V0H37.5676V19.6498H34.6489ZM56.511 6.19105H59.5916L55.3488 19.6498H52.4843L49.6739 10.5787L46.8366 19.6498H43.9721L39.7293 6.19105H42.8099L45.4314 15.4778L48.2687 6.19105H51.0522L53.8626 15.4778L56.511 6.19105ZM63.2127 4.17235C62.1859 4.17235 61.3481 3.31096 61.3481 2.315C61.349 1.82269 61.5458 1.35082 61.8952 1.00271C62.2447 0.654593 62.7185 0.458601 63.2127 0.457645C63.7069 0.458601 64.1807 0.654593 64.5301 1.00271C64.8796 1.35082 65.0764 1.82269 65.0773 2.315C65.0773 3.31096 64.2394 4.17199 63.2127 4.17199V4.17235ZM61.7534 19.6498V6.19105H64.672V19.6498H61.7534ZM75.157 5.84086C78.1835 5.84086 80.3456 7.88669 80.3456 11.3861V19.6498H77.427V11.6821C77.427 9.6366 76.2379 8.55996 74.4005 8.55996C72.4818 8.55996 70.9683 9.69014 70.9683 12.436V19.6498H68.0497V6.19105H70.9683V7.91383C71.8603 6.51376 73.3193 5.84086 75.157 5.84086ZM94.1815 0.807482H97.1001V19.6498H94.1815V17.7118C93.1548 19.1386 91.5603 20 89.4527 20C85.7772 20 82.7235 16.9043 82.7235 12.9204C82.7235 8.90979 85.7772 5.84122 89.4524 5.84122C91.5603 5.84122 93.1548 6.70224 94.1815 8.10231V0.807482ZM89.9118 17.2274C92.3437 17.2274 94.1815 15.4239 94.1815 12.9204C94.1815 10.4169 92.3437 8.6135 89.9118 8.6135C87.4799 8.6135 85.6421 10.4169 85.6421 12.9204C85.6421 15.4239 87.4799 17.2274 89.9118 17.2274ZM106.882 20C102.802 20 99.7482 16.9043 99.7482 12.9204C99.7482 8.90979 102.802 5.84122 106.882 5.84122C109.531 5.84122 111.828 7.21379 112.909 9.31353L110.396 10.7671C109.801 9.50202 108.477 8.69417 106.856 8.69417C104.477 8.69417 102.667 10.498 102.667 12.9204C102.667 15.3429 104.477 17.1467 106.856 17.1467C108.477 17.1467 109.801 16.3121 110.45 15.0737L112.963 16.5006C111.828 18.6271 109.531 20 106.882 20ZM117.773 9.90576C117.773 12.355 125.042 10.8746 125.042 15.8544C125.042 18.546 122.691 20 119.773 20C117.07 20 115.125 18.7884 114.26 16.8504L116.773 15.3968C117.205 16.6084 118.286 17.3348 119.773 17.3348C121.07 17.3348 122.07 16.9043 122.07 15.8277C122.07 13.432 114.8 14.7778 114.8 9.95966C114.8 7.42905 116.989 5.84122 119.746 5.84122C121.961 5.84122 123.799 6.86396 124.745 8.64063L122.286 10.0132C121.799 8.9637 120.854 8.47928 119.746 8.47928C118.692 8.47928 117.773 8.93656 117.773 9.90576ZM130.231 9.90576C130.231 12.355 137.5 10.8746 137.5 15.8544C137.5 18.546 135.149 20 132.23 20C129.528 20 127.582 18.7884 126.718 16.8504L129.231 15.3968C129.663 16.6084 130.744 17.3348 132.23 17.3348C133.527 17.3348 134.527 16.9043 134.527 15.8277C134.527 13.432 127.258 14.7778 127.258 9.95966C127.258 7.42905 129.447 5.84122 132.204 5.84122C134.419 5.84122 136.257 6.86396 137.203 8.64063L134.744 10.0132C134.257 8.9637 133.311 8.47928 132.204 8.47928C131.15 8.47928 130.231 8.93656 130.231 9.90576Z" fill="#0E1017"/>
<g filter="url(#filter0_d_2501_3)">
<path d="M69.0005 40C55.0002 40 46.2493 47.1113 42.7498 61.334C48.0001 54.2217 54.1253 51.5553 61.1255 53.3339C65.1186 54.3478 67.9737 57.2916 71.1336 60.5501C76.2807 65.8567 82.2381 72.0005 95.2502 72.0005C109.251 72.0005 118 64.8892 121.5 50.6665C116.251 57.7788 110.125 60.4452 103.125 58.6666C99.1312 57.6527 96.2771 54.7089 93.1171 51.4504C87.9691 46.1439 82.0127 40 69.0005 40ZM42.7498 72.0005C28.7505 72.0005 19.9996 79.1118 16.5 93.3345C21.7503 86.2222 27.8746 83.5558 34.8747 85.3344C38.8688 86.3483 41.7239 89.2921 44.8829 92.5496C50.0309 97.8582 55.9883 104 69.0005 104C82.9998 104 91.7497 96.8897 95.2502 82.667C89.9999 89.7793 83.8747 92.4457 76.8755 90.6671C72.8814 89.6532 70.0263 86.7094 66.8664 83.4509C61.7193 78.1444 55.7619 72.0005 42.7498 72.0005Z" fill="url(#paint0_linear_2501_3)"/>
</g>
<defs>
<filter id="filter0_d_2501_3" x="14.5" y="40" width="113" height="72" filterUnits="userSpaceOnUse" color-interpolation-filters="sRGB">
<feFlood flood-opacity="0" result="BackgroundImageFix"/>
<feColorMatrix in="SourceAlpha" type="matrix" values="0 0 0 0 0 0 0 0 0 0 0 0 0 0 0 0 0 0 127 0" result="hardAlpha"/>
<feOffset dx="2" dy="4"/>
<feGaussianBlur stdDeviation="2"/>
<feComposite in2="hardAlpha" operator="out"/>
<feColorMatrix type="matrix" values="0 0 0 0 0 0 0 0 0 0 0 0 0 0 0 0 0 0 0.25 0"/>
<feBlend mode="normal" in2="BackgroundImageFix" result="effect1_dropShadow_2501_3"/>
<feBlend mode="normal" in="SourceGraphic" in2="effect1_dropShadow_2501_3" result="shape"/>
</filter>
<linearGradient id="paint0_linear_2501_3" x1="13.5831" y1="60.48" x2="104.975" y2="112.351" gradientUnits="userSpaceOnUse">
<stop stop-color="#2298BD"/>
<stop offset="1" stop-color="#0ED7B5"/>
</linearGradient>
</defs>
</svg>
