<svg width="238" height="46" viewBox="0 0 238 46" fill="none" xmlns="http://www.w3.org/2000/svg">
<g filter="url(#filter0_ddd_2_111)">
<mask id="path-1-outside-1_2_111" maskUnits="userSpaceOnUse" x="3" y="5" width="214" height="34" fill="black">
<rect fill="white" x="3" y="5" width="214" height="34"/>
<path d="M12.136 31.448C10.4933 31.448 9 31.1707 7.656 30.616C6.33333 30.04 5.23467 29.2187 4.36 28.152L7.816 24.056C8.41333 24.824 9.032 25.4107 9.672 25.816C10.312 26.2 10.984 26.392 11.688 26.392C13.5653 26.392 14.504 25.304 14.504 23.128V13.496H6.76V8.6H20.776V22.744C20.776 25.6667 20.04 27.8533 18.568 29.304C17.096 30.7333 14.952 31.448 12.136 31.448ZM33.1165 31V27.768L32.7005 26.968V21.016C32.7005 20.056 32.4018 19.32 31.8045 18.808C31.2285 18.2747 30.3005 18.008 29.0205 18.008C28.1885 18.008 27.3458 18.1467 26.4925 18.424C25.6392 18.68 24.9138 19.0427 24.3165 19.512L22.2685 15.384C23.2498 14.744 24.4232 14.2533 25.7885 13.912C27.1752 13.5493 28.5512 13.368 29.9165 13.368C32.7325 13.368 34.9085 14.0187 36.4445 15.32C38.0018 16.6 38.7805 18.616 38.7805 21.368V31H33.1165ZM27.9965 31.288C26.6098 31.288 25.4365 31.0533 24.4765 30.584C23.5165 30.1147 22.7805 29.4747 22.2685 28.664C21.7778 27.8533 21.5325 26.9467 21.5325 25.944C21.5325 24.8773 21.7992 23.96 22.3325 23.192C22.8872 22.4027 23.7298 21.8053 24.8605 21.4C25.9912 20.9733 27.4525 20.76 29.2445 20.76H33.3405V23.928H30.0765C29.0952 23.928 28.4018 24.088 27.9965 24.408C27.6125 24.728 27.4205 25.1547 27.4205 25.688C27.4205 26.2213 27.6232 26.648 28.0285 26.968C28.4338 27.288 28.9885 27.448 29.6925 27.448C30.3538 27.448 30.9512 27.288 31.4845 26.968C32.0392 26.6267 32.4445 26.1147 32.7005 25.432L33.5325 27.672C33.2125 28.8667 32.5832 29.7733 31.6445 30.392C30.7272 30.9893 29.5112 31.288 27.9965 31.288ZM62.9703 13.368C64.3143 13.368 65.5089 13.6453 66.5543 14.2C67.6209 14.7333 68.4529 15.5653 69.0503 16.696C69.6689 17.8267 69.9783 19.288 69.9783 21.08V31H63.8983V22.072C63.8983 20.8347 63.6636 19.9387 63.1943 19.384C62.7249 18.808 62.0849 18.52 61.2743 18.52C60.6983 18.52 60.1756 18.6587 59.7063 18.936C59.2369 19.2133 58.8743 19.64 58.6183 20.216C58.3623 20.7707 58.2343 21.496 58.2343 22.392V31H52.1543V22.072C52.1543 20.8347 51.9196 19.9387 51.4503 19.384C51.0023 18.808 50.3623 18.52 49.5303 18.52C48.9329 18.52 48.3996 18.6587 47.9303 18.936C47.4823 19.2133 47.1196 19.64 46.8423 20.216C46.5863 20.7707 46.4583 21.496 46.4583 22.392V31H40.3783V13.656H46.1703V18.488L45.0183 17.112C45.6583 15.8747 46.5329 14.9467 47.6423 14.328C48.7516 13.688 49.9889 13.368 51.3543 13.368C52.9116 13.368 54.2769 13.7733 55.4503 14.584C56.6449 15.3733 57.4449 16.6107 57.8503 18.296L55.8663 17.88C56.4849 16.472 57.4129 15.3733 58.6503 14.584C59.9089 13.7733 61.3489 13.368 62.9703 13.368ZM80.8825 31.288C78.8345 31.288 77.0425 30.904 75.5065 30.136C73.9918 29.3467 72.8078 28.28 71.9545 26.936C71.1225 25.5707 70.7065 24.024 70.7065 22.296C70.7065 20.568 71.1118 19.032 71.9225 17.688C72.7545 16.3227 73.8958 15.2667 75.3465 14.52C76.7972 13.752 78.4292 13.368 80.2425 13.368C81.9492 13.368 83.5065 13.72 84.9145 14.424C86.3225 15.1067 87.4425 16.12 88.2745 17.464C89.1065 18.808 89.5225 20.44 89.5225 22.36C89.5225 22.5733 89.5118 22.8187 89.4905 23.096C89.4692 23.3733 89.4478 23.6293 89.4265 23.864H75.6985V20.664H86.1945L83.8905 21.56C83.9118 20.7707 83.7625 20.088 83.4425 19.512C83.1438 18.936 82.7172 18.488 82.1625 18.168C81.6292 17.848 80.9998 17.688 80.2745 17.688C79.5492 17.688 78.9092 17.848 78.3545 18.168C77.8212 18.488 77.4052 18.9467 77.1065 19.544C76.8078 20.12 76.6585 20.8027 76.6585 21.592V22.52C76.6585 23.3733 76.8292 24.1093 77.1705 24.728C77.5332 25.3467 78.0452 25.8267 78.7065 26.168C79.3678 26.488 80.1572 26.648 81.0745 26.648C81.9278 26.648 82.6532 26.5307 83.2505 26.296C83.8692 26.04 84.4772 25.656 85.0745 25.144L88.2745 28.472C87.4425 29.3893 86.4185 30.0933 85.2025 30.584C83.9865 31.0533 82.5465 31.288 80.8825 31.288ZM96.3898 31.288C94.9178 31.288 93.4778 31.1173 92.0698 30.776C90.6831 30.4347 89.5631 30.008 88.7098 29.496L90.5338 25.336C91.3444 25.8267 92.2938 26.2213 93.3818 26.52C94.4698 26.7973 95.5364 26.936 96.5818 26.936C97.6058 26.936 98.3098 26.8293 98.6938 26.616C99.0991 26.4027 99.3018 26.1147 99.3018 25.752C99.3018 25.4107 99.1098 25.1653 98.7258 25.016C98.3631 24.8453 97.8724 24.7173 97.2538 24.632C96.6564 24.5467 95.9951 24.4507 95.2698 24.344C94.5444 24.2373 93.8084 24.0987 93.0618 23.928C92.3364 23.736 91.6644 23.4587 91.0458 23.096C90.4484 22.712 89.9684 22.2 89.6058 21.56C89.2431 20.92 89.0618 20.1093 89.0618 19.128C89.0618 18.0187 89.3818 17.0373 90.0218 16.184C90.6831 15.3093 91.6431 14.6267 92.9018 14.136C94.1604 13.624 95.6964 13.368 97.5098 13.368C98.7258 13.368 99.9524 13.496 101.19 13.752C102.448 13.9867 103.504 14.3493 104.358 14.84L102.534 18.968C101.68 18.4773 100.827 18.1467 99.9738 17.976C99.1204 17.784 98.3098 17.688 97.5418 17.688C96.5178 17.688 95.7924 17.8053 95.3658 18.04C94.9604 18.2747 94.7578 18.5627 94.7578 18.904C94.7578 19.2453 94.9391 19.512 95.3018 19.704C95.6644 19.8747 96.1444 20.0133 96.7418 20.12C97.3604 20.2053 98.0324 20.3013 98.7578 20.408C99.4831 20.4933 100.208 20.632 100.934 20.824C101.68 21.016 102.352 21.304 102.95 21.688C103.568 22.0507 104.059 22.552 104.422 23.192C104.784 23.8107 104.966 24.6107 104.966 25.592C104.966 26.6587 104.635 27.6187 103.974 28.472C103.334 29.3253 102.374 30.008 101.094 30.52C99.8351 31.032 98.2671 31.288 96.3898 31.288ZM116.93 31.448C115.138 31.448 113.484 31.16 111.97 30.584C110.455 30.008 109.132 29.1973 108.002 28.152C106.892 27.0853 106.028 25.848 105.41 24.44C104.791 23.032 104.482 21.4853 104.482 19.8C104.482 18.1147 104.791 16.568 105.41 15.16C106.028 13.752 106.892 12.5253 108.002 11.48C109.132 10.4133 110.455 9.592 111.97 9.016C113.484 8.44 115.138 8.152 116.93 8.152C118.743 8.152 120.396 8.44 121.89 9.016C123.404 9.592 124.716 10.4133 125.826 11.48C126.935 12.5253 127.799 13.752 128.418 15.16C129.058 16.568 129.378 18.1147 129.378 19.8C129.378 21.4853 129.058 23.0427 128.418 24.472C127.799 25.88 126.935 27.1067 125.826 28.152C124.716 29.1973 123.404 30.008 121.89 30.584C120.396 31.16 118.743 31.448 116.93 31.448ZM116.93 26.2C117.783 26.2 118.572 26.0507 119.298 25.752C120.044 25.4533 120.684 25.0267 121.218 24.472C121.772 23.896 122.199 23.2133 122.498 22.424C122.818 21.6347 122.978 20.76 122.978 19.8C122.978 18.8187 122.818 17.944 122.498 17.176C122.199 16.3867 121.772 15.7147 121.218 15.16C120.684 14.584 120.044 14.1467 119.298 13.848C118.572 13.5493 117.783 13.4 116.93 13.4C116.076 13.4 115.276 13.5493 114.53 13.848C113.804 14.1467 113.164 14.584 112.61 15.16C112.076 15.7147 111.65 16.3867 111.33 17.176C111.031 17.944 110.882 18.8187 110.882 19.8C110.882 20.76 111.031 21.6347 111.33 22.424C111.65 23.2133 112.076 23.896 112.61 24.472C113.164 25.0267 113.804 25.4533 114.53 25.752C115.276 26.0507 116.076 26.2 116.93 26.2ZM130.872 31V13.848C130.872 11.7573 131.491 10.0933 132.728 8.856C133.987 7.59733 135.779 6.968 138.104 6.968C138.851 6.968 139.587 7.04267 140.312 7.192C141.038 7.34133 141.646 7.56533 142.136 7.864L140.632 12.152C140.376 12.0027 140.088 11.8853 139.768 11.8C139.448 11.6933 139.128 11.64 138.808 11.64C138.168 11.64 137.667 11.832 137.304 12.216C136.963 12.5787 136.792 13.144 136.792 13.912V15.16L136.952 17.688V31H130.872ZM128.344 18.84V14.296H140.92V18.84H128.344ZM149.445 31.288C147.546 31.288 145.861 30.904 144.389 30.136C142.917 29.368 141.754 28.312 140.901 26.968C140.069 25.6027 139.653 24.0453 139.653 22.296C139.653 20.5467 140.069 19 140.901 17.656C141.754 16.312 142.917 15.2667 144.389 14.52C145.861 13.752 147.546 13.368 149.445 13.368C151.343 13.368 153.029 13.752 154.501 14.52C155.994 15.2667 157.157 16.312 157.989 17.656C158.821 19 159.237 20.5467 159.237 22.296C159.237 24.0453 158.821 25.6027 157.989 26.968C157.157 28.312 155.994 29.368 154.501 30.136C153.029 30.904 151.343 31.288 149.445 31.288ZM149.445 26.456C150.149 26.456 150.767 26.296 151.301 25.976C151.855 25.656 152.293 25.1867 152.613 24.568C152.933 23.928 153.093 23.1707 153.093 22.296C153.093 21.4213 152.933 20.6853 152.613 20.088C152.293 19.4693 151.855 19 151.301 18.68C150.767 18.36 150.149 18.2 149.445 18.2C148.762 18.2 148.143 18.36 147.589 18.68C147.055 19 146.618 19.4693 146.277 20.088C145.957 20.6853 145.797 21.4213 145.797 22.296C145.797 23.1707 145.957 23.928 146.277 24.568C146.618 25.1867 147.055 25.656 147.589 25.976C148.143 26.296 148.762 26.456 149.445 26.456ZM156.632 31L166.52 8.6H172.76L182.68 31H176.088L168.344 11.704H170.84L163.096 31H156.632ZM162.04 26.648L163.672 21.976H174.616L176.248 26.648H162.04ZM183.987 37.496C183.069 37.496 182.141 37.3467 181.203 37.048C180.285 36.7707 179.539 36.3973 178.963 35.928L181.075 31.672C181.437 31.992 181.853 32.2373 182.323 32.408C182.813 32.6 183.293 32.696 183.763 32.696C184.424 32.696 184.947 32.5467 185.331 32.248C185.715 31.9493 186.045 31.48 186.323 30.84L187.123 28.824L187.603 28.216L193.491 13.656H199.283L191.795 31.704C191.197 33.1973 190.504 34.36 189.715 35.192C188.947 36.0453 188.083 36.6427 187.123 36.984C186.184 37.3253 185.139 37.496 183.987 37.496ZM186.355 31.736L178.707 13.656H184.947L190.579 27.672L186.355 31.736ZM207.234 31.288C205.186 31.288 203.394 30.904 201.858 30.136C200.343 29.3467 199.159 28.28 198.306 26.936C197.474 25.5707 197.058 24.024 197.058 22.296C197.058 20.568 197.463 19.032 198.274 17.688C199.106 16.3227 200.247 15.2667 201.698 14.52C203.148 13.752 204.78 13.368 206.594 13.368C208.3 13.368 209.858 13.72 211.266 14.424C212.674 15.1067 213.794 16.12 214.626 17.464C215.458 18.808 215.874 20.44 215.874 22.36C215.874 22.5733 215.863 22.8187 215.842 23.096C215.82 23.3733 215.799 23.6293 215.778 23.864H202.05V20.664H212.546L210.242 21.56C210.263 20.7707 210.114 20.088 209.794 19.512C209.495 18.936 209.068 18.488 208.514 18.168C207.98 17.848 207.351 17.688 206.626 17.688C205.9 17.688 205.26 17.848 204.706 18.168C204.172 18.488 203.756 18.9467 203.458 19.544C203.159 20.12 203.01 20.8027 203.01 21.592V22.52C203.01 23.3733 203.18 24.1093 203.522 24.728C203.884 25.3467 204.396 25.8267 205.058 26.168C205.719 26.488 206.508 26.648 207.426 26.648C208.279 26.648 209.004 26.5307 209.602 26.296C210.22 26.04 210.828 25.656 211.426 25.144L214.626 28.472C213.794 29.3893 212.77 30.0933 211.554 30.584C210.338 31.0533 208.898 31.288 207.234 31.288Z"/>
</mask>
<path d="M12.136 31.448C10.4933 31.448 9 31.1707 7.656 30.616C6.33333 30.04 5.23467 29.2187 4.36 28.152L7.816 24.056C8.41333 24.824 9.032 25.4107 9.672 25.816C10.312 26.2 10.984 26.392 11.688 26.392C13.5653 26.392 14.504 25.304 14.504 23.128V13.496H6.76V8.6H20.776V22.744C20.776 25.6667 20.04 27.8533 18.568 29.304C17.096 30.7333 14.952 31.448 12.136 31.448ZM33.1165 31V27.768L32.7005 26.968V21.016C32.7005 20.056 32.4018 19.32 31.8045 18.808C31.2285 18.2747 30.3005 18.008 29.0205 18.008C28.1885 18.008 27.3458 18.1467 26.4925 18.424C25.6392 18.68 24.9138 19.0427 24.3165 19.512L22.2685 15.384C23.2498 14.744 24.4232 14.2533 25.7885 13.912C27.1752 13.5493 28.5512 13.368 29.9165 13.368C32.7325 13.368 34.9085 14.0187 36.4445 15.32C38.0018 16.6 38.7805 18.616 38.7805 21.368V31H33.1165ZM27.9965 31.288C26.6098 31.288 25.4365 31.0533 24.4765 30.584C23.5165 30.1147 22.7805 29.4747 22.2685 28.664C21.7778 27.8533 21.5325 26.9467 21.5325 25.944C21.5325 24.8773 21.7992 23.96 22.3325 23.192C22.8872 22.4027 23.7298 21.8053 24.8605 21.4C25.9912 20.9733 27.4525 20.76 29.2445 20.76H33.3405V23.928H30.0765C29.0952 23.928 28.4018 24.088 27.9965 24.408C27.6125 24.728 27.4205 25.1547 27.4205 25.688C27.4205 26.2213 27.6232 26.648 28.0285 26.968C28.4338 27.288 28.9885 27.448 29.6925 27.448C30.3538 27.448 30.9512 27.288 31.4845 26.968C32.0392 26.6267 32.4445 26.1147 32.7005 25.432L33.5325 27.672C33.2125 28.8667 32.5832 29.7733 31.6445 30.392C30.7272 30.9893 29.5112 31.288 27.9965 31.288ZM62.9703 13.368C64.3143 13.368 65.5089 13.6453 66.5543 14.2C67.6209 14.7333 68.4529 15.5653 69.0503 16.696C69.6689 17.8267 69.9783 19.288 69.9783 21.08V31H63.8983V22.072C63.8983 20.8347 63.6636 19.9387 63.1943 19.384C62.7249 18.808 62.0849 18.52 61.2743 18.52C60.6983 18.52 60.1756 18.6587 59.7063 18.936C59.2369 19.2133 58.8743 19.64 58.6183 20.216C58.3623 20.7707 58.2343 21.496 58.2343 22.392V31H52.1543V22.072C52.1543 20.8347 51.9196 19.9387 51.4503 19.384C51.0023 18.808 50.3623 18.52 49.5303 18.52C48.9329 18.52 48.3996 18.6587 47.9303 18.936C47.4823 19.2133 47.1196 19.64 46.8423 20.216C46.5863 20.7707 46.4583 21.496 46.4583 22.392V31H40.3783V13.656H46.1703V18.488L45.0183 17.112C45.6583 15.8747 46.5329 14.9467 47.6423 14.328C48.7516 13.688 49.9889 13.368 51.3543 13.368C52.9116 13.368 54.2769 13.7733 55.4503 14.584C56.6449 15.3733 57.4449 16.6107 57.8503 18.296L55.8663 17.88C56.4849 16.472 57.4129 15.3733 58.6503 14.584C59.9089 13.7733 61.3489 13.368 62.9703 13.368ZM80.8825 31.288C78.8345 31.288 77.0425 30.904 75.5065 30.136C73.9918 29.3467 72.8078 28.28 71.9545 26.936C71.1225 25.5707 70.7065 24.024 70.7065 22.296C70.7065 20.568 71.1118 19.032 71.9225 17.688C72.7545 16.3227 73.8958 15.2667 75.3465 14.52C76.7972 13.752 78.4292 13.368 80.2425 13.368C81.9492 13.368 83.5065 13.72 84.9145 14.424C86.3225 15.1067 87.4425 16.12 88.2745 17.464C89.1065 18.808 89.5225 20.44 89.5225 22.36C89.5225 22.5733 89.5118 22.8187 89.4905 23.096C89.4692 23.3733 89.4478 23.6293 89.4265 23.864H75.6985V20.664H86.1945L83.8905 21.56C83.9118 20.7707 83.7625 20.088 83.4425 19.512C83.1438 18.936 82.7172 18.488 82.1625 18.168C81.6292 17.848 80.9998 17.688 80.2745 17.688C79.5492 17.688 78.9092 17.848 78.3545 18.168C77.8212 18.488 77.4052 18.9467 77.1065 19.544C76.8078 20.12 76.6585 20.8027 76.6585 21.592V22.52C76.6585 23.3733 76.8292 24.1093 77.1705 24.728C77.5332 25.3467 78.0452 25.8267 78.7065 26.168C79.3678 26.488 80.1572 26.648 81.0745 26.648C81.9278 26.648 82.6532 26.5307 83.2505 26.296C83.8692 26.04 84.4772 25.656 85.0745 25.144L88.2745 28.472C87.4425 29.3893 86.4185 30.0933 85.2025 30.584C83.9865 31.0533 82.5465 31.288 80.8825 31.288ZM96.3898 31.288C94.9178 31.288 93.4778 31.1173 92.0698 30.776C90.6831 30.4347 89.5631 30.008 88.7098 29.496L90.5338 25.336C91.3444 25.8267 92.2938 26.2213 93.3818 26.52C94.4698 26.7973 95.5364 26.936 96.5818 26.936C97.6058 26.936 98.3098 26.8293 98.6938 26.616C99.0991 26.4027 99.3018 26.1147 99.3018 25.752C99.3018 25.4107 99.1098 25.1653 98.7258 25.016C98.3631 24.8453 97.8724 24.7173 97.2538 24.632C96.6564 24.5467 95.9951 24.4507 95.2698 24.344C94.5444 24.2373 93.8084 24.0987 93.0618 23.928C92.3364 23.736 91.6644 23.4587 91.0458 23.096C90.4484 22.712 89.9684 22.2 89.6058 21.56C89.2431 20.92 89.0618 20.1093 89.0618 19.128C89.0618 18.0187 89.3818 17.0373 90.0218 16.184C90.6831 15.3093 91.6431 14.6267 92.9018 14.136C94.1604 13.624 95.6964 13.368 97.5098 13.368C98.7258 13.368 99.9524 13.496 101.19 13.752C102.448 13.9867 103.504 14.3493 104.358 14.84L102.534 18.968C101.68 18.4773 100.827 18.1467 99.9738 17.976C99.1204 17.784 98.3098 17.688 97.5418 17.688C96.5178 17.688 95.7924 17.8053 95.3658 18.04C94.9604 18.2747 94.7578 18.5627 94.7578 18.904C94.7578 19.2453 94.9391 19.512 95.3018 19.704C95.6644 19.8747 96.1444 20.0133 96.7418 20.12C97.3604 20.2053 98.0324 20.3013 98.7578 20.408C99.4831 20.4933 100.208 20.632 100.934 20.824C101.68 21.016 102.352 21.304 102.95 21.688C103.568 22.0507 104.059 22.552 104.422 23.192C104.784 23.8107 104.966 24.6107 104.966 25.592C104.966 26.6587 104.635 27.6187 103.974 28.472C103.334 29.3253 102.374 30.008 101.094 30.52C99.8351 31.032 98.2671 31.288 96.3898 31.288ZM116.93 31.448C115.138 31.448 113.484 31.16 111.97 30.584C110.455 30.008 109.132 29.1973 108.002 28.152C106.892 27.0853 106.028 25.848 105.41 24.44C104.791 23.032 104.482 21.4853 104.482 19.8C104.482 18.1147 104.791 16.568 105.41 15.16C106.028 13.752 106.892 12.5253 108.002 11.48C109.132 10.4133 110.455 9.592 111.97 9.016C113.484 8.44 115.138 8.152 116.93 8.152C118.743 8.152 120.396 8.44 121.89 9.016C123.404 9.592 124.716 10.4133 125.826 11.48C126.935 12.5253 127.799 13.752 128.418 15.16C129.058 16.568 129.378 18.1147 129.378 19.8C129.378 21.4853 129.058 23.0427 128.418 24.472C127.799 25.88 126.935 27.1067 125.826 28.152C124.716 29.1973 123.404 30.008 121.89 30.584C120.396 31.16 118.743 31.448 116.93 31.448ZM116.93 26.2C117.783 26.2 118.572 26.0507 119.298 25.752C120.044 25.4533 120.684 25.0267 121.218 24.472C121.772 23.896 122.199 23.2133 122.498 22.424C122.818 21.6347 122.978 20.76 122.978 19.8C122.978 18.8187 122.818 17.944 122.498 17.176C122.199 16.3867 121.772 15.7147 121.218 15.16C120.684 14.584 120.044 14.1467 119.298 13.848C118.572 13.5493 117.783 13.4 116.93 13.4C116.076 13.4 115.276 13.5493 114.53 13.848C113.804 14.1467 113.164 14.584 112.61 15.16C112.076 15.7147 111.65 16.3867 111.33 17.176C111.031 17.944 110.882 18.8187 110.882 19.8C110.882 20.76 111.031 21.6347 111.33 22.424C111.65 23.2133 112.076 23.896 112.61 24.472C113.164 25.0267 113.804 25.4533 114.53 25.752C115.276 26.0507 116.076 26.2 116.93 26.2ZM130.872 31V13.848C130.872 11.7573 131.491 10.0933 132.728 8.856C133.987 7.59733 135.779 6.968 138.104 6.968C138.851 6.968 139.587 7.04267 140.312 7.192C141.038 7.34133 141.646 7.56533 142.136 7.864L140.632 12.152C140.376 12.0027 140.088 11.8853 139.768 11.8C139.448 11.6933 139.128 11.64 138.808 11.64C138.168 11.64 137.667 11.832 137.304 12.216C136.963 12.5787 136.792 13.144 136.792 13.912V15.16L136.952 17.688V31H130.872ZM128.344 18.84V14.296H140.92V18.84H128.344ZM149.445 31.288C147.546 31.288 145.861 30.904 144.389 30.136C142.917 29.368 141.754 28.312 140.901 26.968C140.069 25.6027 139.653 24.0453 139.653 22.296C139.653 20.5467 140.069 19 140.901 17.656C141.754 16.312 142.917 15.2667 144.389 14.52C145.861 13.752 147.546 13.368 149.445 13.368C151.343 13.368 153.029 13.752 154.501 14.52C155.994 15.2667 157.157 16.312 157.989 17.656C158.821 19 159.237 20.5467 159.237 22.296C159.237 24.0453 158.821 25.6027 157.989 26.968C157.157 28.312 155.994 29.368 154.501 30.136C153.029 30.904 151.343 31.288 149.445 31.288ZM149.445 26.456C150.149 26.456 150.767 26.296 151.301 25.976C151.855 25.656 152.293 25.1867 152.613 24.568C152.933 23.928 153.093 23.1707 153.093 22.296C153.093 21.4213 152.933 20.6853 152.613 20.088C152.293 19.4693 151.855 19 151.301 18.68C150.767 18.36 150.149 18.2 149.445 18.2C148.762 18.2 148.143 18.36 147.589 18.68C147.055 19 146.618 19.4693 146.277 20.088C145.957 20.6853 145.797 21.4213 145.797 22.296C145.797 23.1707 145.957 23.928 146.277 24.568C146.618 25.1867 147.055 25.656 147.589 25.976C148.143 26.296 148.762 26.456 149.445 26.456ZM156.632 31L166.52 8.6H172.76L182.68 31H176.088L168.344 11.704H170.84L163.096 31H156.632ZM162.04 26.648L163.672 21.976H174.616L176.248 26.648H162.04ZM183.987 37.496C183.069 37.496 182.141 37.3467 181.203 37.048C180.285 36.7707 179.539 36.3973 178.963 35.928L181.075 31.672C181.437 31.992 181.853 32.2373 182.323 32.408C182.813 32.6 183.293 32.696 183.763 32.696C184.424 32.696 184.947 32.5467 185.331 32.248C185.715 31.9493 186.045 31.48 186.323 30.84L187.123 28.824L187.603 28.216L193.491 13.656H199.283L191.795 31.704C191.197 33.1973 190.504 34.36 189.715 35.192C188.947 36.0453 188.083 36.6427 187.123 36.984C186.184 37.3253 185.139 37.496 183.987 37.496ZM186.355 31.736L178.707 13.656H184.947L190.579 27.672L186.355 31.736ZM207.234 31.288C205.186 31.288 203.394 30.904 201.858 30.136C200.343 29.3467 199.159 28.28 198.306 26.936C197.474 25.5707 197.058 24.024 197.058 22.296C197.058 20.568 197.463 19.032 198.274 17.688C199.106 16.3227 200.247 15.2667 201.698 14.52C203.148 13.752 204.78 13.368 206.594 13.368C208.3 13.368 209.858 13.72 211.266 14.424C212.674 15.1067 213.794 16.12 214.626 17.464C215.458 18.808 215.874 20.44 215.874 22.36C215.874 22.5733 215.863 22.8187 215.842 23.096C215.82 23.3733 215.799 23.6293 215.778 23.864H202.05V20.664H212.546L210.242 21.56C210.263 20.7707 210.114 20.088 209.794 19.512C209.495 18.936 209.068 18.488 208.514 18.168C207.98 17.848 207.351 17.688 206.626 17.688C205.9 17.688 205.26 17.848 204.706 18.168C204.172 18.488 203.756 18.9467 203.458 19.544C203.159 20.12 203.01 20.8027 203.01 21.592V22.52C203.01 23.3733 203.18 24.1093 203.522 24.728C203.884 25.3467 204.396 25.8267 205.058 26.168C205.719 26.488 206.508 26.648 207.426 26.648C208.279 26.648 209.004 26.5307 209.602 26.296C210.22 26.04 210.828 25.656 211.426 25.144L214.626 28.472C213.794 29.3893 212.77 30.0933 211.554 30.584C210.338 31.0533 208.898 31.288 207.234 31.288Z" fill="white"/>
<path d="M7.656 30.616L7.25673 31.5328L7.26559 31.5367L7.27451 31.5404L7.656 30.616ZM4.36 28.152L3.59571 27.5071L3.0593 28.1429L3.58673 28.7861L4.36 28.152ZM7.816 24.056L8.60535 23.4421L7.84762 22.4678L7.05171 23.4111L7.816 24.056ZM9.672 25.816L9.13695 26.6608L9.14715 26.6673L9.15751 26.6735L9.672 25.816ZM14.504 13.496H15.504V12.496H14.504V13.496ZM6.76 13.496H5.76V14.496H6.76V13.496ZM6.76 8.6V7.6H5.76V8.6H6.76ZM20.776 8.6H21.776V7.6H20.776V8.6ZM18.568 29.304L19.2647 30.0214L19.2699 30.0162L18.568 29.304ZM12.136 30.448C10.6073 30.448 9.24578 30.1903 8.03749 29.6916L7.27451 31.5404C8.75422 32.151 10.3794 32.448 12.136 32.448V30.448ZM8.05527 29.6992C6.87104 29.1835 5.90279 28.4564 5.13327 27.5179L3.58673 28.7861C4.56654 29.981 5.79562 30.8965 7.25673 31.5328L8.05527 29.6992ZM5.12429 28.7969L8.58029 24.7009L7.05171 23.4111L3.59571 27.5071L5.12429 28.7969ZM7.02665 24.6699C7.67565 25.5044 8.37624 26.179 9.13695 26.6608L10.2071 24.9712C9.68776 24.6423 9.15102 24.1436 8.60535 23.4421L7.02665 24.6699ZM9.15751 26.6735C9.94318 27.1449 10.7917 27.392 11.688 27.392V25.392C11.1763 25.392 10.6808 25.2551 10.1865 24.9585L9.15751 26.6735ZM11.688 27.392C12.8225 27.392 13.8435 27.0564 14.5572 26.2292C15.2464 25.4303 15.504 24.3369 15.504 23.128H13.504C13.504 24.0951 13.2923 24.6337 13.0428 24.9228C12.8178 25.1836 12.4309 25.392 11.688 25.392V27.392ZM15.504 23.128V13.496H13.504V23.128H15.504ZM14.504 12.496H6.76V14.496H14.504V12.496ZM7.76 13.496V8.6H5.76V13.496H7.76ZM6.76 9.6H20.776V7.6H6.76V9.6ZM19.776 8.6V22.744H21.776V8.6H19.776ZM19.776 22.744C19.776 25.5113 19.08 27.3955 17.8661 28.5918L19.2699 30.0162C21 28.3112 21.776 25.822 21.776 22.744H19.776ZM17.8714 28.5866C16.6464 29.776 14.7905 30.448 12.136 30.448V32.448C15.1135 32.448 17.5456 31.6907 19.2646 30.0214L17.8714 28.5866ZM33.1165 31H32.1165V32H33.1165V31ZM33.1165 27.768H34.1165V27.5235L34.0037 27.3066L33.1165 27.768ZM32.7005 26.968H31.7005V27.2125L31.8133 27.4294L32.7005 26.968ZM31.8045 18.808L31.1251 19.5418L31.1392 19.5548L31.1537 19.5673L31.8045 18.808ZM26.4925 18.424L26.7798 19.3818L26.7908 19.3786L26.8016 19.375L26.4925 18.424ZM24.3165 19.512L23.4207 19.9564L23.9673 21.0581L24.9343 20.2983L24.3165 19.512ZM22.2685 15.384L21.7222 14.5464L20.9776 15.032L21.3727 15.8284L22.2685 15.384ZM25.7885 13.912L26.031 14.8822L26.0415 14.8795L25.7885 13.912ZM36.4445 15.32L35.7981 16.083L35.8038 16.0878L35.8095 16.0925L36.4445 15.32ZM38.7805 31V32H39.7805V31H38.7805ZM24.4765 30.584L24.9157 29.6856L24.4765 30.584ZM22.2685 28.664L21.413 29.1818L21.4179 29.1899L21.423 29.198L22.2685 28.664ZM22.3325 23.192L21.5143 22.617L21.5111 22.6216L22.3325 23.192ZM24.8605 21.4L25.198 22.3413L25.2058 22.3385L25.2136 22.3356L24.8605 21.4ZM33.3405 20.76H34.3405V19.76H33.3405V20.76ZM33.3405 23.928V24.928H34.3405V23.928H33.3405ZM27.9965 24.408L27.3769 23.6231L27.3665 23.6313L27.3563 23.6398L27.9965 24.408ZM28.0285 26.968L27.4089 27.7529L28.0285 26.968ZM31.4845 26.968L31.999 27.8255L32.0086 27.8197L31.4845 26.968ZM32.7005 25.432L33.6379 25.0838L32.705 22.572L31.7642 25.0809L32.7005 25.432ZM33.5325 27.672L34.4984 27.9307L34.581 27.6227L34.4699 27.3238L33.5325 27.672ZM31.6445 30.392L32.1902 31.23L32.1948 31.227L31.6445 30.392ZM34.1165 31V27.768H32.1165V31H34.1165ZM34.0037 27.3066L33.5877 26.5066L31.8133 27.4294L32.2293 28.2294L34.0037 27.3066ZM33.7005 26.968V21.016H31.7005V26.968H33.7005ZM33.7005 21.016C33.7005 19.8343 33.3225 18.7921 32.4553 18.0487L31.1537 19.5673C31.4811 19.8479 31.7005 20.2777 31.7005 21.016H33.7005ZM32.4839 18.0742C31.6365 17.2896 30.4025 17.008 29.0205 17.008V19.008C30.1985 19.008 30.8205 19.2597 31.1251 19.5418L32.4839 18.0742ZM29.0205 17.008C28.0756 17.008 27.1287 17.1657 26.1834 17.473L26.8016 19.375C27.5629 19.1276 28.3014 19.008 29.0205 19.008V17.008ZM26.2052 17.4662C25.2523 17.752 24.4099 18.1669 23.6987 18.7257L24.9343 20.2983C25.4178 19.9185 26.0261 19.608 26.7798 19.3818L26.2052 17.4662ZM25.2123 19.0676L23.1643 14.9396L21.3727 15.8284L23.4207 19.9564L25.2123 19.0676ZM22.8148 16.2216C23.6863 15.6532 24.7525 15.2018 26.031 14.8821L25.546 12.9419C24.0938 13.3049 22.8133 13.8348 21.7222 14.5464L22.8148 16.2216ZM26.0415 14.8795C27.3497 14.5373 28.6407 14.368 29.9165 14.368V12.368C28.4616 12.368 27.0006 12.5613 25.5355 12.9445L26.0415 14.8795ZM29.9165 14.368C32.5893 14.368 34.5032 14.9859 35.7981 16.083L37.0909 14.557C35.3138 13.0514 32.8757 12.368 29.9165 12.368V14.368ZM35.8095 16.0925C37.0593 17.1197 37.7805 18.7996 37.7805 21.368H39.7805C39.7805 18.4324 38.9444 16.0803 37.0795 14.5475L35.8095 16.0925ZM37.7805 21.368V31H39.7805V21.368H37.7805ZM38.7805 30H33.1165V32H38.7805V30ZM27.9965 30.288C26.7184 30.288 25.7045 30.0712 24.9157 29.6856L24.0373 31.4824C25.1685 32.0354 26.5013 32.288 27.9965 32.288V30.288ZM24.9157 29.6856C24.1027 29.2881 23.5159 28.7664 23.114 28.13L21.423 29.198C22.0451 30.1829 22.9303 30.9412 24.0373 31.4824L24.9157 29.6856ZM23.124 28.1462C22.7334 27.5009 22.5325 26.7752 22.5325 25.944H20.5325C20.5325 27.1182 20.8222 28.2058 21.413 29.1818L23.124 28.1462ZM22.5325 25.944C22.5325 25.0515 22.7527 24.3401 23.1539 23.7624L21.5111 22.6216C20.8456 23.5799 20.5325 24.7032 20.5325 25.944H22.5325ZM23.1507 23.7669C23.5605 23.1838 24.2135 22.6943 25.198 22.3413L24.523 20.4587C23.2462 20.9164 22.2139 21.6215 21.5143 22.6171L23.1507 23.7669ZM25.2136 22.3356C26.1908 21.9668 27.5204 21.76 29.2445 21.76V19.76C27.3846 19.76 25.7915 19.9798 24.5074 20.4644L25.2136 22.3356ZM29.2445 21.76H33.3405V19.76H29.2445V21.76ZM32.3405 20.76V23.928H34.3405V20.76H32.3405ZM33.3405 22.928H30.0765V24.928H33.3405V22.928ZM30.0765 22.928C29.0449 22.928 28.059 23.0846 27.3769 23.6231L28.6161 25.1929C28.7447 25.0914 29.1454 24.928 30.0765 24.928V22.928ZM27.3563 23.6398C26.7274 24.1638 26.4205 24.8806 26.4205 25.688H28.4205C28.4205 25.4287 28.4976 25.2922 28.6367 25.1762L27.3563 23.6398ZM26.4205 25.688C26.4205 26.5157 26.7543 27.2361 27.4089 27.7529L28.6481 26.1831C28.492 26.0599 28.4205 25.9269 28.4205 25.688H26.4205ZM27.4089 27.7529C28.0452 28.2552 28.8446 28.448 29.6925 28.448V26.448C29.1324 26.448 28.8225 26.3208 28.6481 26.1831L27.4089 27.7529ZM29.6925 28.448C30.5231 28.448 31.3003 28.2447 31.999 27.8255L30.97 26.1105C30.602 26.3313 30.1845 26.448 29.6925 26.448V28.448ZM32.0086 27.8197C32.775 27.348 33.3127 26.6476 33.6368 25.7831L31.7642 25.0809C31.5763 25.5818 31.3033 25.9053 30.9604 26.1163L32.0086 27.8197ZM31.7631 25.7802L32.5951 28.0202L34.4699 27.3238L33.6379 25.0838L31.7631 25.7802ZM32.5666 27.4133C32.303 28.397 31.8074 29.087 31.0942 29.557L32.1948 31.227C33.3589 30.4597 34.122 29.3363 34.4984 27.9307L32.5666 27.4133ZM31.0988 29.554C30.395 30.0123 29.3892 30.288 27.9965 30.288V32.288C29.6332 32.288 31.0593 31.9664 32.1902 31.23L31.0988 29.554ZM66.5543 14.2L66.0855 15.0833L66.0962 15.089L66.107 15.0944L66.5543 14.2ZM69.0502 16.696L68.1661 17.1631L68.1695 17.1696L68.173 17.176L69.0502 16.696ZM69.9783 31V32H70.9783V31H69.9783ZM63.8983 31H62.8983V32H63.8983V31ZM63.1943 19.384L62.419 20.0157L62.4249 20.0229L62.4309 20.0299L63.1943 19.384ZM59.7063 18.936L60.215 19.7969L59.7063 18.936ZM58.6183 20.216L59.5262 20.6351L59.5292 20.6286L59.5321 20.6221L58.6183 20.216ZM58.2343 31V32H59.2343V31H58.2343ZM52.1543 31H51.1543V32H52.1543V31ZM51.4502 19.384L50.6609 19.9979L50.6736 20.0142L50.6869 20.0299L51.4502 19.384ZM47.9303 18.936L47.4215 18.0751L47.4127 18.0803L47.4039 18.0857L47.9303 18.936ZM46.8423 20.216L45.9412 19.7822L45.9377 19.7895L45.9343 19.7969L46.8423 20.216ZM46.4583 31V32H47.4583V31H46.4583ZM40.3783 31H39.3783V32H40.3783V31ZM40.3783 13.656V12.656H39.3783V13.656H40.3783ZM46.1702 13.656H47.1702V12.656H46.1702V13.656ZM46.1702 18.488L45.4035 19.1299L47.1702 21.2402V18.488H46.1702ZM45.0182 17.112L44.13 16.6526L43.8243 17.2437L44.2515 17.7539L45.0182 17.112ZM47.6423 14.328L48.1293 15.2014L48.1357 15.1978L48.142 15.1942L47.6423 14.328ZM55.4502 14.584L54.8818 15.4067L54.8903 15.4126L54.899 15.4183L55.4502 14.584ZM57.8503 18.296L57.645 19.2747L59.1922 19.5991L58.8225 18.0622L57.8503 18.296ZM55.8662 17.88L54.9507 17.4777L54.455 18.6058L55.661 18.8587L55.8662 17.88ZM58.6503 14.584L59.1881 15.4271L59.1917 15.4247L58.6503 14.584ZM62.9703 14.368C64.1732 14.368 65.2031 14.6151 66.0855 15.0833L67.023 13.3166C65.8147 12.6755 64.4553 12.368 62.9703 12.368V14.368ZM66.107 15.0944C66.9732 15.5275 67.6588 16.2029 68.1661 17.1631L69.9344 16.2289C69.2471 14.9278 68.2686 13.9391 67.0015 13.3056L66.107 15.0944ZM68.173 17.176C68.6858 18.1132 68.9783 19.3937 68.9783 21.08H70.9783C70.9783 19.1823 70.652 17.5401 69.9275 16.216L68.173 17.176ZM68.9783 21.08V31H70.9783V21.08H68.9783ZM69.9783 30H63.8983V32H69.9783V30ZM64.8983 31V22.072H62.8983V31H64.8983ZM64.8983 22.072C64.8983 20.7503 64.6554 19.5627 63.9576 18.7381L62.4309 20.0299C62.6717 20.3146 62.8983 20.9191 62.8983 22.072H64.8983ZM63.9695 18.7523C63.2914 17.9201 62.3544 17.52 61.2743 17.52V19.52C61.8155 19.52 62.1585 19.6959 62.419 20.0157L63.9695 18.7523ZM61.2743 17.52C60.5298 17.52 59.8298 17.7015 59.1975 18.0751L60.215 19.7969C60.5214 19.6159 60.8667 19.52 61.2743 19.52V17.52ZM59.1975 18.0751C58.5223 18.4741 58.0312 19.0745 57.7044 19.8099L59.5321 20.6221C59.7173 20.2055 59.9516 19.9526 60.215 19.7969L59.1975 18.0751ZM57.7103 19.7969C57.3721 20.5296 57.2343 21.4133 57.2343 22.392H59.2343C59.2343 21.5787 59.3524 21.0117 59.5262 20.6351L57.7103 19.7969ZM57.2343 22.392V31H59.2343V22.392H57.2343ZM58.2343 30H52.1543V32H58.2343V30ZM53.1543 31V22.072H51.1543V31H53.1543ZM53.1543 22.072C53.1543 20.7503 52.9114 19.5627 52.2136 18.7381L50.6869 20.0299C50.9277 20.3146 51.1543 20.9191 51.1543 22.072H53.1543ZM52.2396 18.7701C51.5739 17.9142 50.6218 17.52 49.5303 17.52V19.52C50.1027 19.52 50.4306 19.7018 50.6609 19.9979L52.2396 18.7701ZM49.5303 17.52C48.7716 17.52 48.0594 17.6981 47.4215 18.0751L48.439 19.7969C48.7397 19.6192 49.0942 19.52 49.5303 19.52V17.52ZM47.4039 18.0857C46.7623 18.4829 46.2835 19.0714 45.9412 19.7822L47.7433 20.6498C47.9557 20.2086 48.2022 19.9437 48.4566 19.7863L47.4039 18.0857ZM45.9343 19.7969C45.5961 20.5296 45.4583 21.4133 45.4583 22.392H47.4583C47.4583 21.5787 47.5764 21.0117 47.7502 20.6351L45.9343 19.7969ZM45.4583 22.392V31H47.4583V22.392H45.4583ZM46.4583 30H40.3783V32H46.4583V30ZM41.3783 31V13.656H39.3783V31H41.3783ZM40.3783 14.656H46.1702V12.656H40.3783V14.656ZM45.1702 13.656V18.488H47.1702V13.656H45.1702ZM46.937 17.8461L45.785 16.4701L44.2515 17.7539L45.4035 19.1299L46.937 17.8461ZM45.9065 17.5714C46.4654 16.4909 47.2079 15.7152 48.1293 15.2014L47.1552 13.4546C45.8579 14.1781 44.8511 15.2584 44.13 16.6526L45.9065 17.5714ZM48.142 15.1942C49.0893 14.6477 50.1523 14.368 51.3543 14.368V12.368C49.8255 12.368 48.4139 12.7283 47.1425 13.4618L48.142 15.1942ZM51.3543 14.368C52.7281 14.368 53.891 14.7221 54.8818 15.4067L56.0187 13.7613C54.6629 12.8245 53.0951 12.368 51.3543 12.368V14.368ZM54.899 15.4183C55.8396 16.0398 56.5187 17.036 56.878 18.5298L58.8225 18.0622C58.3711 16.1853 57.4502 14.7069 56.0015 13.7497L54.899 15.4183ZM58.0555 17.3173L56.0715 16.9013L55.661 18.8587L57.645 19.2747L58.0555 17.3173ZM56.7818 18.2823C57.3249 17.0462 58.1257 16.1048 59.1881 15.4271L58.1124 13.7409C56.7002 14.6419 55.6449 15.8978 54.9507 17.4777L56.7818 18.2823ZM59.1917 15.4247C60.2755 14.7267 61.5244 14.368 62.9703 14.368V12.368C61.1735 12.368 59.5423 12.82 58.1088 13.7433L59.1917 15.4247ZM75.5065 30.136L75.0444 31.0228L75.0518 31.0267L75.0593 31.0304L75.5065 30.136ZM71.9545 26.936L71.1006 27.4564L71.1053 27.4642L71.1103 27.472L71.9545 26.936ZM71.9225 17.688L71.0686 17.1676L71.0662 17.1715L71.9225 17.688ZM75.3465 14.52L75.8042 15.4092L75.8144 15.4038L75.3465 14.52ZM84.9145 14.424L84.4673 15.3185L84.4782 15.3238L84.9145 14.424ZM88.2745 17.464L89.1248 16.9376L88.2745 17.464ZM89.4905 23.096L90.4876 23.1727L89.4905 23.096ZM89.4265 23.864V24.864H90.3397L90.4224 23.9545L89.4265 23.864ZM75.6985 23.864H74.6985V24.864H75.6985V23.864ZM75.6985 20.664V19.664H74.6985V20.664H75.6985ZM86.1945 20.664L86.5569 21.596L86.1945 19.664V20.664ZM83.8905 21.56L82.8909 21.533L82.8502 23.0375L84.2529 22.492L83.8905 21.56ZM83.4425 19.512L82.5547 19.9723L82.5614 19.9851L82.5683 19.9976L83.4425 19.512ZM82.1625 18.168L81.648 19.0255L81.6553 19.0299L81.6628 19.0342L82.1625 18.168ZM78.3545 18.168L77.8548 17.3018L77.8474 17.3061L77.84 17.3105L78.3545 18.168ZM77.1065 19.544L77.9943 20.0043L77.9976 19.9978L78.0009 19.9912L77.1065 19.544ZM77.1705 24.728L76.2949 25.2111L76.3012 25.2225L76.3078 25.2337L77.1705 24.728ZM78.7065 26.168L78.2479 27.0566L78.2593 27.0625L78.2709 27.0682L78.7065 26.168ZM83.2505 26.296L83.6161 27.2268L83.6245 27.2235L83.6329 27.22L83.2505 26.296ZM85.0745 25.144L85.7953 24.4509L85.1408 23.7701L84.4237 24.3847L85.0745 25.144ZM88.2745 28.472L89.0152 29.1438L89.6426 28.4521L88.9953 27.7789L88.2745 28.472ZM85.2025 30.584L85.5626 31.5169L85.5697 31.5142L85.5767 31.5114L85.2025 30.584ZM80.8825 30.288C78.9601 30.288 77.3266 29.928 75.9537 29.2416L75.0593 31.0304C76.7584 31.88 78.7089 32.288 80.8825 32.288V30.288ZM75.9686 29.2492C74.5982 28.535 73.5509 27.5847 72.7987 26.4L71.1103 27.472C72.0648 28.9753 73.3855 30.1583 75.0444 31.0228L75.9686 29.2492ZM72.8084 26.4156C72.0797 25.2197 71.7065 23.8558 71.7065 22.296H69.7065C69.7065 24.1922 70.1653 25.9216 71.1006 27.4564L72.8084 26.4156ZM71.7065 22.296C71.7065 20.7311 72.0715 19.3772 72.7788 18.2045L71.0662 17.1715C70.1522 18.6868 69.7065 20.4049 69.7065 22.296H71.7065ZM72.7764 18.2084C73.5107 17.0034 74.5134 16.0735 75.8041 15.4091L74.8889 13.6309C73.2782 14.4599 71.9983 15.6419 71.0686 17.1676L72.7764 18.2084ZM75.8144 15.4038C77.1063 14.7198 78.5749 14.368 80.2425 14.368V12.368C78.2835 12.368 76.4881 12.7841 74.8786 13.6362L75.8144 15.4038ZM80.2425 14.368C81.8072 14.368 83.2096 14.6896 84.4673 15.3184L85.3617 13.5296C83.8034 12.7504 82.0911 12.368 80.2425 12.368V14.368ZM84.4782 15.3238C85.7138 15.9229 86.691 16.8058 87.4242 17.9904L89.1248 16.9376C88.194 15.4342 86.9312 14.2905 85.3508 13.5242L84.4782 15.3238ZM87.4242 17.9904C88.1392 19.1453 88.5225 20.5859 88.5225 22.36H90.5225C90.5225 20.2941 90.0738 18.4707 89.1248 16.9376L87.4242 17.9904ZM88.5225 22.36C88.5225 22.5414 88.5134 22.7603 88.4934 23.0193L90.4876 23.1727C90.5103 22.877 90.5225 22.6052 90.5225 22.36H88.5225ZM88.4934 23.0193C88.4724 23.2928 88.4515 23.5441 88.4306 23.7735L90.4224 23.9545C90.4442 23.7145 90.4659 23.4538 90.4876 23.1727L88.4934 23.0193ZM89.4265 22.864H75.6985V24.864H89.4265V22.864ZM76.6985 23.864V20.664H74.6985V23.864H76.6985ZM75.6985 21.664H86.1945V19.664H75.6985V21.664ZM85.8321 19.732L83.5281 20.628L84.2529 22.492L86.5569 21.596L85.8321 19.732ZM84.8901 21.587C84.9153 20.6543 84.7395 19.7874 84.3167 19.0264L82.5683 19.9976C82.7855 20.3886 82.9083 20.887 82.8909 21.533L84.8901 21.587ZM84.3303 19.0517C83.9449 18.3085 83.3846 17.7186 82.6622 17.3018L81.6628 19.0342C82.0497 19.2574 82.3428 19.5635 82.5547 19.9723L84.3303 19.0517ZM82.677 17.3105C81.964 16.8827 81.1506 16.688 80.2745 16.688V18.688C80.8491 18.688 81.2943 18.8133 81.648 19.0255L82.677 17.3105ZM80.2745 16.688C79.3974 16.688 78.5807 16.883 77.8548 17.3018L78.8542 19.0342C79.2376 18.813 79.7009 18.688 80.2745 18.688V16.688ZM77.84 17.3105C77.1315 17.7356 76.5892 18.3424 76.2121 19.0968L78.0009 19.9912C78.2211 19.5509 78.5109 19.2404 78.869 19.0255L77.84 17.3105ZM76.2187 19.0837C75.832 19.8295 75.6585 20.6767 75.6585 21.592H77.6585C77.6585 20.9286 77.7836 20.4105 77.9943 20.0043L76.2187 19.0837ZM75.6585 21.592V22.52H77.6585V21.592H75.6585ZM75.6585 22.52C75.6585 23.5074 75.8566 24.4167 76.2949 25.2111L78.0461 24.2449C77.8017 23.802 77.6585 23.2393 77.6585 22.52H75.6585ZM76.3078 25.2337C76.7699 26.0221 77.425 26.6319 78.2479 27.0566L79.1651 25.2794C78.6653 25.0214 78.2964 24.6713 78.0332 24.2223L76.3078 25.2337ZM78.2709 27.0682C79.0975 27.4681 80.0429 27.648 81.0745 27.648V25.648C80.2715 25.648 79.6381 25.5079 79.1421 25.2678L78.2709 27.0682ZM81.0745 27.648C82.0141 27.648 82.8709 27.5195 83.6161 27.2268L82.8848 25.3652C82.4354 25.5418 81.8416 25.648 81.0745 25.648V27.648ZM83.6329 27.22C84.3645 26.9173 85.0614 26.4723 85.7253 25.9033L84.4237 24.3847C83.8929 24.8397 83.3738 25.1627 82.8681 25.372L83.6329 27.22ZM84.3537 25.8371L87.5537 29.1651L88.9953 27.7789L85.7953 24.4509L84.3537 25.8371ZM87.5338 27.8002C86.8091 28.5992 85.9128 29.219 84.8283 29.6567L85.5767 31.5114C86.9242 30.9676 88.076 30.1794 89.0152 29.1438L87.5338 27.8002ZM84.8424 29.6511C83.7682 30.0657 82.4559 30.288 80.8825 30.288V32.288C82.6371 32.288 84.2048 32.041 85.5626 31.5169L84.8424 29.6511ZM92.0697 30.776L91.8307 31.747L91.8342 31.7479L92.0697 30.776ZM88.7097 29.496L87.7939 29.0944L87.4404 29.9006L88.1953 30.3535L88.7097 29.496ZM90.5338 25.336L91.0516 24.4805L90.0759 23.89L89.6179 24.9344L90.5338 25.336ZM93.3818 26.52L93.117 27.4843L93.1259 27.4868L93.1348 27.489L93.3818 26.52ZM98.6937 26.616L98.228 25.7311L98.218 25.7363L98.2081 25.7418L98.6937 26.616ZM98.7258 25.016L98.3 25.9208L98.3312 25.9355L98.3633 25.948L98.7258 25.016ZM97.2538 24.632L97.1123 25.622L97.1171 25.6226L97.2538 24.632ZM95.2698 24.344L95.1243 25.3334L95.2698 24.344ZM93.0618 23.928L92.8059 24.8947L92.8223 24.8991L92.8389 24.9029L93.0618 23.928ZM91.0458 23.096L90.505 23.9372L90.5223 23.9483L90.54 23.9587L91.0458 23.096ZM89.6058 21.56L90.4758 21.067L89.6058 21.56ZM90.0218 16.184L89.2241 15.5809L89.2217 15.584L90.0218 16.184ZM92.9017 14.136L93.265 15.0677L93.2718 15.0651L93.2785 15.0623L92.9017 14.136ZM101.19 13.752L100.987 14.7313L100.997 14.7333L101.006 14.7351L101.19 13.752ZM104.358 14.84L105.272 15.2442L105.636 14.4214L104.856 13.9731L104.358 14.84ZM102.534 18.968L102.035 19.8349L102.999 20.3891L103.448 19.3722L102.534 18.968ZM99.9738 17.976L99.7542 18.9516L99.7659 18.9542L99.7776 18.9566L99.9738 17.976ZM95.3658 18.04L94.8838 17.1638L94.8742 17.1691L94.8647 17.1746L95.3658 18.04ZM95.3018 19.704L94.8339 20.5878L94.8547 20.5988L94.876 20.6088L95.3018 19.704ZM96.7418 20.12L96.566 21.1044L96.5855 21.1079L96.6051 21.1106L96.7418 20.12ZM98.7578 20.408L98.6123 21.3974L98.6266 21.3995L98.6409 21.4011L98.7578 20.408ZM100.934 20.824L100.678 21.7907L100.685 21.7925L100.934 20.824ZM102.95 21.688L102.409 22.5292L102.426 22.5403L102.444 22.5507L102.95 21.688ZM104.422 23.192L103.552 23.685L103.555 23.6914L103.559 23.6977L104.422 23.192ZM103.974 28.472L103.183 27.8594L103.178 27.8657L103.174 27.872L103.974 28.472ZM101.094 30.52L100.722 29.5915L100.717 29.5937L101.094 30.52ZM96.3898 30.288C94.9958 30.288 93.635 30.1265 92.3054 29.8041L91.8342 31.7479C93.3205 32.1082 94.8397 32.288 96.3898 32.288V30.288ZM92.3088 29.805C90.9807 29.4781 89.9636 29.0821 89.2242 28.6385L88.1953 30.3535C89.1626 30.9339 90.3855 31.3913 91.8307 31.747L92.3088 29.805ZM89.6256 29.8976L91.4496 25.7376L89.6179 24.9344L87.7939 29.0944L89.6256 29.8976ZM90.0159 26.1915C90.9189 26.738 91.9565 27.1657 93.117 27.4843L93.6465 25.5557C92.6311 25.2769 91.77 24.9153 91.0516 24.4805L90.0159 26.1915ZM93.1348 27.489C94.2975 27.7854 95.4472 27.936 96.5817 27.936V25.936C95.6256 25.936 94.642 25.8093 93.6288 25.551L93.1348 27.489ZM96.5817 27.936C97.1242 27.936 97.6097 27.908 98.0276 27.8447C98.4335 27.7832 98.8386 27.6795 99.1794 27.4902L98.2081 25.7418C98.1649 25.7659 98.026 25.8221 97.7279 25.8673C97.4418 25.9106 97.0633 25.936 96.5817 25.936V27.936ZM99.1595 27.5009C99.7913 27.1684 100.302 26.5886 100.302 25.752H98.3018C98.3018 25.7483 98.3025 25.7336 98.309 25.7126C98.3156 25.6914 98.3248 25.6747 98.3319 25.6645C98.345 25.6459 98.3312 25.6768 98.228 25.7311L99.1595 27.5009ZM100.302 25.752C100.302 25.3806 100.192 25.0114 99.9453 24.6957C99.7083 24.3929 99.3952 24.2034 99.0882 24.084L98.3633 25.948C98.4403 25.978 98.4152 25.9858 98.3702 25.9283C98.3473 25.899 98.3278 25.8632 98.3154 25.825C98.3032 25.7879 98.3018 25.7612 98.3018 25.752H100.302ZM99.1516 24.1112C98.6612 23.8804 98.0599 23.7337 97.3904 23.6414L97.1171 25.6226C97.6849 25.7009 98.0649 25.8102 98.3 25.9208L99.1516 24.1112ZM97.3952 23.642C96.7994 23.5569 96.1395 23.4611 95.4152 23.3546L95.1243 25.3334C95.8507 25.4402 96.5134 25.5364 97.1123 25.6219L97.3952 23.642ZM95.4152 23.3546C94.717 23.252 94.0068 23.1182 93.2846 22.9531L92.8389 24.9029C93.61 25.0791 94.3718 25.2227 95.1243 25.3334L95.4152 23.3546ZM93.3176 22.9613C92.6758 22.7914 92.0884 22.5481 91.5515 22.2333L90.54 23.9587C91.2404 24.3693 91.997 24.6806 92.8059 24.8947L93.3176 22.9613ZM91.5865 22.2548C91.1305 21.9617 90.7615 21.5712 90.4758 21.067L88.7357 22.053C89.1753 22.8288 89.7663 23.4623 90.505 23.9372L91.5865 22.2548ZM90.4758 21.067C90.2221 20.6193 90.0618 19.9922 90.0618 19.128H88.0618C88.0618 20.2264 88.2641 21.2207 88.7357 22.053L90.4758 21.067ZM90.0618 19.128C90.0618 18.2258 90.317 17.457 90.8218 16.784L89.2217 15.584C88.4465 16.6177 88.0618 17.8116 88.0618 19.128H90.0618ZM90.8194 16.7871C91.3458 16.0909 92.1388 15.5067 93.265 15.0677L92.5385 13.2043C91.1474 13.7466 90.0203 14.5278 89.2241 15.5809L90.8194 16.7871ZM93.2785 15.0623C94.3848 14.6123 95.7848 14.368 97.5098 14.368V12.368C95.608 12.368 93.936 12.6357 92.525 13.2097L93.2785 15.0623ZM97.5098 14.368C98.6551 14.368 99.8139 14.4885 100.987 14.7313L101.392 12.7727C100.091 12.5035 98.7964 12.368 97.5098 12.368V14.368ZM101.006 14.7351C102.186 14.9549 103.128 15.2865 103.859 15.7069L104.856 13.9731C103.881 13.4122 102.711 13.0184 101.373 12.7689L101.006 14.7351ZM103.443 14.4358L101.619 18.5638L103.448 19.3722L105.272 15.2442L103.443 14.4358ZM103.032 18.1011C102.097 17.5634 101.142 17.1899 100.17 16.9954L99.7776 18.9566C100.512 19.1034 101.264 19.3913 102.035 19.8349L103.032 18.1011ZM100.193 17.0004C99.2776 16.7944 98.393 16.688 97.5417 16.688V18.688C98.2265 18.688 98.9632 18.7736 99.7542 18.9516L100.193 17.0004ZM97.5417 16.688C96.4966 16.688 95.5484 16.7983 94.8838 17.1638L95.8477 18.9162C96.0365 18.8124 96.5389 18.688 97.5417 18.688V16.688ZM94.8647 17.1746C94.2799 17.5131 93.7578 18.078 93.7578 18.904H95.7578C95.7578 18.9193 95.7552 18.9409 95.7476 18.9645C95.7401 18.9878 95.7311 19.0025 95.7276 19.0075C95.7228 19.0142 95.7501 18.973 95.8668 18.9054L94.8647 17.1746ZM93.7578 18.904C93.7578 19.6977 94.2232 20.2645 94.8339 20.5878L95.7696 18.8202C95.6941 18.7802 95.6981 18.7644 95.7207 18.7977C95.7321 18.8145 95.7429 18.8362 95.75 18.8602C95.7571 18.8837 95.7578 18.8999 95.7578 18.904H93.7578ZM94.876 20.6088C95.3476 20.8308 95.9216 20.9894 96.566 21.1044L96.9175 19.1356C96.3672 19.0373 95.9812 18.9185 95.7275 18.7992L94.876 20.6088ZM96.6051 21.1106C97.2204 21.1955 97.8894 21.2911 98.6123 21.3974L98.9032 19.4186C98.1755 19.3116 97.5005 19.2152 96.8784 19.1294L96.6051 21.1106ZM98.6409 21.4011C99.3181 21.4808 99.9969 21.6105 100.678 21.7907L101.19 19.8573C100.42 19.6535 99.6481 19.5058 98.8746 19.4148L98.6409 21.4011ZM100.685 21.7925C101.337 21.9602 101.909 22.2077 102.409 22.5292L103.491 20.8468C102.796 20.4003 102.024 20.0718 101.183 19.8555L100.685 21.7925ZM102.444 22.5507C102.907 22.822 103.273 23.194 103.552 23.685L105.292 22.699C104.845 21.91 104.23 21.2794 103.455 20.8253L102.444 22.5507ZM103.559 23.6977C103.805 24.1166 103.966 24.7256 103.966 25.592H105.966C105.966 24.4957 105.764 23.5047 105.284 22.6863L103.559 23.6977ZM103.966 25.592C103.966 26.434 103.711 27.1791 103.183 27.8594L104.764 29.0846C105.56 28.0582 105.966 26.8833 105.966 25.592H103.966ZM103.174 27.872C102.672 28.5415 101.881 29.1281 100.722 29.5915L101.465 31.4485C102.867 30.8879 103.996 30.1091 104.774 29.072L103.174 27.872ZM100.717 29.5937C99.6142 30.0423 98.1839 30.288 96.3898 30.288V32.288C98.3503 32.288 100.056 32.0217 101.471 31.4463L100.717 29.5937ZM111.97 30.584L111.614 31.5187L111.97 30.584ZM108.002 28.152L107.309 28.8728L107.316 28.8796L107.323 28.8863L108.002 28.152ZM105.41 24.44L104.494 24.8423L105.41 24.44ZM105.41 15.16L104.494 14.7577V14.7577L105.41 15.16ZM108.002 11.48L108.688 12.2078L108.688 12.2074L108.002 11.48ZM111.97 9.016L111.614 8.0813L111.97 9.016ZM121.89 9.016L121.53 9.94901L121.534 9.9507L121.89 9.016ZM125.826 11.48L125.133 12.2009L125.14 12.2078L125.826 11.48ZM128.418 15.16L127.502 15.5623L127.507 15.5738L128.418 15.16ZM128.418 24.472L127.505 24.0633L127.502 24.0697L128.418 24.472ZM125.826 28.152L126.512 28.8798L125.826 28.152ZM121.89 30.584L121.534 29.6493L121.53 29.651L121.89 30.584ZM119.298 25.752L118.926 24.8235L118.917 24.8273L119.298 25.752ZM121.218 24.472L120.497 23.7784L120.497 23.7789L121.218 24.472ZM122.498 22.424L121.571 22.0483L121.567 22.0592L121.562 22.0701L122.498 22.424ZM122.498 17.176L121.562 17.5299L121.568 17.5454L121.575 17.5606L122.498 17.176ZM121.218 15.16L120.484 15.8394L120.497 15.8535L120.511 15.8671L121.218 15.16ZM119.298 13.848L118.917 14.7727L118.926 14.7765L119.298 13.848ZM114.53 13.848L114.158 12.9195L114.149 12.9233L114.53 13.848ZM112.61 15.16L111.889 14.4664L111.889 14.4669L112.61 15.16ZM111.33 17.176L110.403 16.8003L110.4 16.8069L110.398 16.8136L111.33 17.176ZM111.33 22.424L110.394 22.7779L110.399 22.7888L110.403 22.7997L111.33 22.424ZM112.61 24.472L111.876 25.1514L111.889 25.1655L111.903 25.1791L112.61 24.472ZM114.53 25.752L114.149 26.6767L114.158 26.6805L114.53 25.752ZM116.93 30.448C115.246 30.448 113.715 30.1778 112.325 29.6493L111.614 31.5187C113.254 32.1422 115.029 32.448 116.93 32.448V30.448ZM112.325 29.6493C110.924 29.1164 109.712 28.3717 108.681 27.4177L107.323 28.8863C108.552 30.023 109.986 30.8996 111.614 31.5187L112.325 29.6493ZM108.695 27.4312C107.68 26.4551 106.891 25.3259 106.325 24.0377L104.494 24.8423C105.166 26.3701 106.105 27.7156 107.309 28.8728L108.695 27.4312ZM106.325 24.0377C105.767 22.7682 105.482 21.3602 105.482 19.8H103.482C103.482 21.6104 103.815 23.2958 104.494 24.8423L106.325 24.0377ZM105.482 19.8C105.482 18.2398 105.767 16.8318 106.325 15.5623L104.494 14.7577C103.815 16.3042 103.482 17.9896 103.482 19.8H105.482ZM106.325 15.5623C106.89 14.276 107.677 13.1603 108.688 12.2078L107.316 10.7522C106.108 11.8904 105.166 13.228 104.494 14.7577L106.325 15.5623ZM108.688 12.2074C109.719 11.2347 110.928 10.482 112.325 9.9507L111.614 8.0813C109.982 8.70198 108.546 9.59196 107.316 10.7526L108.688 12.2074ZM112.325 9.9507C113.715 9.42221 115.246 9.152 116.93 9.152V7.152C115.029 7.152 113.254 7.45779 111.614 8.0813L112.325 9.9507ZM116.93 9.152C118.636 9.152 120.166 9.42277 121.53 9.949L122.25 8.083C120.627 7.45723 118.85 7.152 116.93 7.152V9.152ZM121.534 9.9507C122.93 10.4814 124.125 11.2323 125.133 12.2008L126.519 10.7592C125.307 9.59432 123.879 8.70256 122.245 8.0813L121.534 9.9507ZM125.14 12.2078C126.151 13.1603 126.937 14.276 127.502 15.5623L129.333 14.7577C128.661 13.228 127.719 11.8904 126.512 10.7522L125.14 12.2078ZM127.507 15.5738C128.083 16.8405 128.378 18.2445 128.378 19.8H130.378C130.378 17.9849 130.032 16.2955 129.328 14.7462L127.507 15.5738ZM128.378 19.8C128.378 21.3554 128.083 22.7721 127.505 24.0633L129.33 24.8807C130.032 23.3132 130.378 21.6153 130.378 19.8H128.378ZM127.502 24.0697C126.937 25.356 126.151 26.4717 125.14 27.4242L126.512 28.8798C127.719 27.7416 128.661 26.404 129.333 24.8743L127.502 24.0697ZM125.14 27.4242C124.132 28.374 122.934 29.117 121.534 29.6493L122.245 31.5187C123.875 30.899 125.301 30.0207 126.512 28.8798L125.14 27.4242ZM121.53 29.651C120.166 30.1772 118.636 30.448 116.93 30.448V32.448C118.85 32.448 120.627 32.1428 122.25 31.517L121.53 29.651ZM116.93 27.2C117.902 27.2 118.822 27.0293 119.679 26.6767L118.917 24.8273C118.323 25.072 117.664 25.2 116.93 25.2V27.2ZM119.669 26.6805C120.542 26.3315 121.302 25.8268 121.939 25.1651L120.497 23.7789C120.066 24.2266 119.547 24.5752 118.926 24.8235L119.669 26.6805ZM121.938 25.1656C122.592 24.4868 123.089 23.6867 123.433 22.7779L121.562 22.0701C121.309 22.7399 120.953 23.3052 120.497 23.7784L121.938 25.1656ZM123.424 22.7997C123.799 21.8768 123.978 20.8725 123.978 19.8H121.978C121.978 20.6475 121.837 21.3925 121.571 22.0483L123.424 22.7997ZM123.978 19.8C123.978 18.71 123.8 17.7011 123.421 16.7914L121.575 17.5606C121.836 18.1869 121.978 18.9274 121.978 19.8H123.978ZM123.433 16.8221C123.088 15.9104 122.587 15.1152 121.925 14.4529L120.511 15.8671C120.958 16.3141 121.31 16.8629 121.562 17.5299L123.433 16.8221ZM121.952 14.4806C121.315 13.793 120.55 13.2719 119.669 12.9195L118.926 14.7765C119.539 15.0214 120.054 15.375 120.484 15.8394L121.952 14.4806ZM119.679 12.9233C118.822 12.5707 117.902 12.4 116.93 12.4V14.4C117.664 14.4 118.323 14.528 118.917 14.7727L119.679 12.9233ZM116.93 12.4C115.957 12.4 115.03 12.5708 114.158 12.9195L114.901 14.7765C115.523 14.5279 116.196 14.4 116.93 14.4V12.4ZM114.149 12.9233C113.293 13.2757 112.538 13.7927 111.889 14.4664L113.33 15.8536C113.791 15.3753 114.316 15.0176 114.91 14.7727L114.149 12.9233ZM111.889 14.4669C111.258 15.1226 110.766 15.9056 110.403 16.8003L112.256 17.5517C112.534 16.8677 112.894 16.3067 113.331 15.8531L111.889 14.4669ZM110.398 16.8136C110.046 17.7169 109.882 18.7178 109.882 19.8H111.882C111.882 18.9195 112.016 18.1711 112.262 17.5384L110.398 16.8136ZM109.882 19.8C109.882 20.8644 110.048 21.861 110.394 22.7779L112.265 22.0701C112.015 21.4083 111.882 20.6556 111.882 19.8H109.882ZM110.403 22.7997C110.765 23.6915 111.254 24.4794 111.876 25.1514L113.344 23.7926C112.899 23.3126 112.535 22.7351 112.256 22.0483L110.403 22.7997ZM111.903 25.1791C112.551 25.8271 113.302 26.3277 114.149 26.6767L114.91 24.8273C114.307 24.5789 113.778 24.2262 113.317 23.7649L111.903 25.1791ZM114.158 26.6805C115.03 27.0292 115.957 27.2 116.93 27.2V25.2C116.196 25.2 115.523 25.0721 114.901 24.8235L114.158 26.6805ZM130.872 31H129.872V32H130.872V31ZM132.728 8.856L132.021 8.14889L132.728 8.856ZM140.312 7.192L140.111 8.17146L140.312 7.192ZM142.136 7.864L143.08 8.19498L143.348 7.43084L142.656 7.0098L142.136 7.864ZM140.632 12.152L140.128 13.0158L141.175 13.6262L141.576 12.483L140.632 12.152ZM139.768 11.8L139.452 12.7487L139.481 12.7584L139.511 12.7662L139.768 11.8ZM137.304 12.216L136.577 11.5294L136.576 11.5306L137.304 12.216ZM136.792 15.16H135.792V15.1916L135.794 15.2232L136.792 15.16ZM136.952 17.688H137.952V17.6564L137.95 17.6248L136.952 17.688ZM136.952 31V32H137.952V31H136.952ZM128.344 18.84H127.344V19.84H128.344V18.84ZM128.344 14.296V13.296H127.344V14.296H128.344ZM140.92 14.296H141.92V13.296H140.92V14.296ZM140.92 18.84V19.84H141.92V18.84H140.92ZM131.872 31V13.848H129.872V31H131.872ZM131.872 13.848C131.872 11.9672 132.421 10.5771 133.435 9.56311L132.021 8.14889C130.56 9.60959 129.872 11.5475 129.872 13.848H131.872ZM133.435 9.56311C134.454 8.54432 135.96 7.968 138.104 7.968V5.968C135.598 5.968 133.52 6.65035 132.021 8.14889L133.435 9.56311ZM138.104 7.968C138.784 7.968 139.452 8.0359 140.111 8.17146L140.514 6.21254C139.722 6.04944 138.918 5.968 138.104 5.968V7.968ZM140.111 8.17146C140.754 8.30399 141.247 8.49371 141.616 8.7182L142.656 7.0098C142.044 6.63696 141.321 6.37868 140.514 6.21254L140.111 8.17146ZM141.193 7.53302L139.689 11.821L141.576 12.483L143.08 8.19498L141.193 7.53302ZM141.136 11.2882C140.795 11.089 140.422 10.9394 140.026 10.8338L139.511 12.7662C139.754 12.8312 139.958 12.9164 140.128 13.0158L141.136 11.2882ZM140.084 10.8513C139.668 10.7125 139.241 10.64 138.808 10.64V12.64C139.015 12.64 139.228 12.6742 139.452 12.7487L140.084 10.8513ZM138.808 10.64C137.956 10.64 137.168 10.9039 136.577 11.5294L138.031 12.9026C138.166 12.7601 138.381 12.64 138.808 12.64V10.64ZM136.576 11.5306C135.986 12.1574 135.792 13.023 135.792 13.912H137.792C137.792 13.265 137.94 12.9999 138.032 12.9014L136.576 11.5306ZM135.792 13.912V15.16H137.792V13.912H135.792ZM135.794 15.2232L135.954 17.7512L137.95 17.6248L137.79 15.0968L135.794 15.2232ZM135.952 17.688V31H137.952V17.688H135.952ZM136.952 30H130.872V32H136.952V30ZM129.344 18.84V14.296H127.344V18.84H129.344ZM128.344 15.296H140.92V13.296H128.344V15.296ZM139.92 14.296V18.84H141.92V14.296H139.92ZM140.92 17.84H128.344V19.84H140.92V17.84ZM144.389 30.136L144.851 29.2494L144.389 30.136ZM140.901 26.968L140.047 27.4884L140.052 27.4962L140.057 27.504L140.901 26.968ZM140.901 17.656L140.056 17.12L140.05 17.1296L140.901 17.656ZM144.389 14.52L144.841 15.4119L144.851 15.4066L144.389 14.52ZM154.501 14.52L154.038 15.4066L154.046 15.4106L154.054 15.4144L154.501 14.52ZM157.989 17.656L157.138 18.1824L157.989 17.656ZM157.989 26.968L158.839 27.4944L158.843 27.4884L157.989 26.968ZM154.501 30.136L154.043 29.2467L154.038 29.2494L154.501 30.136ZM151.301 25.976L150.801 25.1098L150.794 25.1141L150.786 25.1185L151.301 25.976ZM152.613 24.568L153.501 25.0275L153.507 25.0152L152.613 24.568ZM152.613 20.088L151.725 20.5474L151.728 20.5538L151.731 20.5602L152.613 20.088ZM151.301 18.68L150.786 19.5375L150.794 19.5419L150.801 19.5462L151.301 18.68ZM147.589 18.68L147.089 17.8138L147.082 17.8181L147.074 17.8225L147.589 18.68ZM146.277 20.088L145.401 19.6049L145.395 19.6158L146.277 20.088ZM146.277 24.568L145.382 25.0152L145.391 25.0333L145.401 25.0511L146.277 24.568ZM147.589 25.976L147.074 26.8335L147.082 26.8379L147.089 26.8422L147.589 25.976ZM149.445 30.288C147.684 30.288 146.161 29.9328 144.851 29.2494L143.926 31.0226C145.56 31.8752 147.408 32.288 149.445 32.288V30.288ZM144.851 29.2494C143.528 28.5591 142.5 27.6211 141.745 26.432L140.057 27.504C141.008 29.0029 142.305 30.1769 143.926 31.0226L144.851 29.2494ZM141.755 26.4476C141.027 25.2536 140.653 23.8796 140.653 22.296H138.653C138.653 24.211 139.11 25.9517 140.047 27.4884L141.755 26.4476ZM140.653 22.296C140.653 20.7122 141.027 19.3517 141.751 18.1824L140.05 17.1296C139.11 18.6483 138.653 20.3812 138.653 22.296H140.653ZM141.745 18.192C142.498 17.0054 143.523 16.0804 144.841 15.4118L143.936 13.6282C142.31 14.453 141.01 15.6186 140.057 17.12L141.745 18.192ZM144.851 15.4066C146.161 14.7232 147.684 14.368 149.445 14.368V12.368C147.408 12.368 145.56 12.7808 143.926 13.6334L144.851 15.4066ZM149.445 14.368C151.206 14.368 152.728 14.7232 154.038 15.4066L154.963 13.6334C153.329 12.7808 151.481 12.368 149.445 12.368V14.368ZM154.054 15.4144C155.391 16.083 156.41 17.0051 157.138 18.1824L158.839 17.1296C157.904 15.6189 156.597 14.4503 154.948 13.6256L154.054 15.4144ZM157.138 18.1824C157.862 19.3517 158.237 20.7122 158.237 22.296H160.237C160.237 20.3812 159.779 18.6483 158.839 17.1296L157.138 18.1824ZM158.237 22.296C158.237 23.8796 157.862 25.2536 157.135 26.4476L158.843 27.4884C159.779 25.9517 160.237 24.211 160.237 22.296H158.237ZM157.138 26.4416C156.408 27.6215 155.386 28.5564 154.043 29.2467L154.958 31.0253C156.602 30.1796 157.905 29.0025 158.839 27.4944L157.138 26.4416ZM154.038 29.2494C152.728 29.9328 151.206 30.288 149.445 30.288V32.288C151.481 32.288 153.329 31.8752 154.963 31.0226L154.038 29.2494ZM149.445 27.456C150.306 27.456 151.107 27.2586 151.815 26.8335L150.786 25.1185C150.428 25.3334 149.992 25.456 149.445 25.456V27.456ZM151.8 26.8422C152.535 26.4182 153.101 25.8005 153.501 25.0274L151.725 24.1086C151.484 24.5728 151.175 24.8938 150.801 25.1098L151.8 26.8422ZM153.507 25.0152C153.91 24.2089 154.093 23.2919 154.093 22.296H152.093C152.093 23.0494 151.955 23.6471 151.718 24.1208L153.507 25.0152ZM154.093 22.296C154.093 21.3031 153.911 20.3945 153.494 19.6158L151.731 20.5602C151.954 20.9762 152.093 21.5396 152.093 22.296H154.093ZM153.501 19.6286C153.101 18.8555 152.535 18.2378 151.8 17.8138L150.801 19.5462C151.175 19.7622 151.484 20.0832 151.725 20.5474L153.501 19.6286ZM151.815 17.8225C151.107 17.3974 150.306 17.2 149.445 17.2V19.2C149.992 19.2 150.428 19.3226 150.786 19.5375L151.815 17.8225ZM149.445 17.2C148.599 17.2 147.806 17.4003 147.089 17.8138L148.088 19.5462C148.481 19.3197 148.926 19.2 149.445 19.2V17.2ZM147.074 17.8225C146.37 18.2451 145.816 18.8532 145.401 19.6049L147.152 20.5711C147.42 20.0855 147.741 19.7549 148.103 19.5375L147.074 17.8225ZM145.395 19.6158C144.978 20.3945 144.797 21.3031 144.797 22.296H146.797C146.797 21.5396 146.935 20.9762 147.158 20.5602L145.395 19.6158ZM144.797 22.296C144.797 23.2919 144.979 24.2089 145.382 25.0152L147.171 24.1208C146.934 23.6471 146.797 23.0494 146.797 22.296H144.797ZM145.401 25.0511C145.816 25.8028 146.37 26.4109 147.074 26.8335L148.103 25.1185C147.741 24.9011 147.42 24.5705 147.152 24.0849L145.401 25.0511ZM147.089 26.8422C147.806 27.2557 148.599 27.456 149.445 27.456V25.456C148.926 25.456 148.481 25.3363 148.088 25.1098L147.089 26.8422ZM156.632 31L155.717 30.5962L155.097 32H156.632V31ZM166.52 8.6V7.6H165.868L165.605 8.19617L166.52 8.6ZM172.76 8.6L173.674 8.19507L173.411 7.6H172.76V8.6ZM182.68 31V32H184.217L183.594 30.5951L182.68 31ZM176.088 31L175.16 31.3725L175.412 32H176.088V31ZM168.344 11.704V10.704H166.865L167.416 12.0765L168.344 11.704ZM170.84 11.704L171.768 12.0765L172.319 10.704H170.84V11.704ZM163.096 31V32H163.772L164.024 31.3725L163.096 31ZM162.04 26.648L161.096 26.3182L160.631 27.648H162.04V26.648ZM163.672 21.976V20.976H162.962L162.728 21.6462L163.672 21.976ZM174.616 21.976L175.56 21.6462L175.326 20.976H174.616V21.976ZM176.248 26.648V27.648H177.657L177.192 26.3182L176.248 26.648ZM157.547 31.4038L167.435 9.00383L165.605 8.19617L155.717 30.5962L157.547 31.4038ZM166.52 9.6H172.76V7.6H166.52V9.6ZM171.846 9.00492L181.766 31.4049L183.594 30.5951L173.674 8.19507L171.846 9.00492ZM182.68 30H176.088V32H182.68V30ZM177.016 30.6275L169.272 11.3315L167.416 12.0765L175.16 31.3725L177.016 30.6275ZM168.344 12.704H170.84V10.704H168.344V12.704ZM169.912 11.3315L162.168 30.6275L164.024 31.3725L171.768 12.0765L169.912 11.3315ZM163.096 30H156.632V32H163.096V30ZM162.984 26.9778L164.616 22.3058L162.728 21.6462L161.096 26.3182L162.984 26.9778ZM163.672 22.976H174.616V20.976H163.672V22.976ZM173.672 22.3058L175.304 26.9778L177.192 26.3182L175.56 21.6462L173.672 22.3058ZM176.248 25.648H162.04V27.648H176.248V25.648ZM181.203 37.048L181.506 36.0951L181.499 36.0929L181.492 36.0908L181.203 37.048ZM178.963 35.928L178.067 35.4835L177.712 36.1988L178.331 36.7032L178.963 35.928ZM181.075 31.672L181.736 30.9222L180.759 30.0594L180.179 31.2275L181.075 31.672ZM182.323 32.408L182.687 31.4768L182.676 31.4723L182.664 31.4682L182.323 32.408ZM185.331 32.248L184.717 31.4586V31.4586L185.331 32.248ZM186.323 30.84L187.24 31.2376L187.246 31.2233L187.252 31.2088L186.323 30.84ZM187.123 28.824L186.338 28.2044L186.247 28.3192L186.193 28.4552L187.123 28.824ZM187.603 28.216L188.388 28.8356L188.476 28.7234L188.53 28.5909L187.603 28.216ZM193.491 13.656V12.656H192.816L192.564 13.2811L193.491 13.656ZM199.283 13.656L200.206 14.0392L200.78 12.656H199.283V13.656ZM191.795 31.704L190.871 31.3207L190.866 31.3326L191.795 31.704ZM189.715 35.192L188.989 34.5037L188.98 34.5133L188.971 34.523L189.715 35.192ZM187.123 36.984L186.788 36.0418L186.781 36.0442L187.123 36.984ZM186.355 31.736L185.434 32.1256L186 33.4648L187.048 32.4566L186.355 31.736ZM178.707 13.656V12.656H177.198L177.786 14.0456L178.707 13.656ZM184.947 13.656L185.875 13.2831L185.623 12.656H184.947V13.656ZM190.579 27.672L191.272 28.3926L191.758 27.925L191.507 27.2991L190.579 27.672ZM183.987 36.496C183.18 36.496 182.354 36.3648 181.506 36.0951L180.9 38.0009C181.929 38.3285 182.959 38.496 183.987 38.496V36.496ZM181.492 36.0908C180.665 35.8408 180.045 35.5196 179.594 35.1528L178.331 36.7032C179.033 37.2751 179.906 37.7006 180.913 38.0052L181.492 36.0908ZM179.859 36.3725L181.971 32.1165L180.179 31.2275L178.067 35.4835L179.859 36.3725ZM180.413 32.4218C180.873 32.8273 181.398 33.1358 181.981 33.3478L182.664 31.4682C182.309 31.3389 182.002 31.1567 181.736 30.9222L180.413 32.4218ZM181.958 33.3392C182.551 33.5711 183.154 33.696 183.763 33.696V31.696C183.432 31.696 183.076 31.6289 182.687 31.4768L181.958 33.3392ZM183.763 33.696C184.567 33.696 185.331 33.5143 185.945 33.0374L184.717 31.4586C184.562 31.5791 184.281 31.696 183.763 31.696V33.696ZM185.945 33.0374C186.506 32.6006 186.923 31.969 187.24 31.2376L185.405 30.4424C185.167 30.991 184.923 31.2981 184.717 31.4586L185.945 33.0374ZM187.252 31.2088L188.052 29.1928L186.193 28.4552L185.393 30.4712L187.252 31.2088ZM187.908 29.4436L188.388 28.8356L186.818 27.5964L186.338 28.2044L187.908 29.4436ZM188.53 28.5909L194.418 14.0309L192.564 13.2811L186.676 27.8411L188.53 28.5909ZM193.491 14.656H199.283V12.656H193.491V14.656ZM198.359 13.2728L190.871 31.3208L192.718 32.0872L200.206 14.0392L198.359 13.2728ZM190.866 31.3326C190.298 32.7522 189.664 33.7925 188.989 34.5037L190.44 35.8803C191.344 34.9275 192.096 33.6424 192.723 32.0754L190.866 31.3326ZM188.971 34.523C188.3 35.2687 187.572 35.7629 186.788 36.0418L187.458 37.9262C188.593 37.5224 189.593 36.822 190.458 35.861L188.971 34.523ZM186.781 36.0442C185.967 36.3401 185.04 36.496 183.987 36.496V38.496C185.238 38.496 186.401 38.3106 187.464 37.9238L186.781 36.0442ZM187.276 31.3464L179.628 13.2664L177.786 14.0456L185.434 32.1256L187.276 31.3464ZM178.707 14.656H184.947V12.656H178.707V14.656ZM184.019 14.0288L189.651 28.0449L191.507 27.2991L185.875 13.2831L184.019 14.0288ZM189.885 26.9514L185.661 31.0154L187.048 32.4566L191.272 28.3926L189.885 26.9514ZM201.858 30.136L201.396 31.0228L201.403 31.0267L201.411 31.0304L201.858 30.136ZM198.306 26.936L197.452 27.4564L197.457 27.4642L197.462 27.472L198.306 26.936ZM198.274 17.688L197.42 17.1676L197.417 17.1715L198.274 17.688ZM201.698 14.52L202.155 15.4092L202.166 15.4038L201.698 14.52ZM211.266 14.424L210.819 15.3185L210.829 15.3238L211.266 14.424ZM214.626 17.464L215.476 16.9376L214.626 17.464ZM215.842 23.096L216.839 23.1727L215.842 23.096ZM215.778 23.864V24.864H216.691L216.774 23.9545L215.778 23.864ZM202.05 23.864H201.05V24.864H202.05V23.864ZM202.05 20.664V19.664H201.05V20.664H202.05ZM212.546 20.664L212.908 21.596L212.546 19.664V20.664ZM210.242 21.56L209.242 21.533L209.201 23.0375L210.604 22.492L210.242 21.56ZM209.794 19.512L208.906 19.9723L208.913 19.9851L208.92 19.9976L209.794 19.512ZM208.514 18.168L207.999 19.0255L208.007 19.0299L208.014 19.0342L208.514 18.168ZM204.706 18.168L204.206 17.3018L204.199 17.3061L204.191 17.3105L204.706 18.168ZM203.458 19.544L204.346 20.0043L204.349 19.9978L204.352 19.9912L203.458 19.544ZM203.522 24.728L202.646 25.2111L202.652 25.2225L202.659 25.2337L203.522 24.728ZM205.058 26.168L204.599 27.0566L204.611 27.0625L204.622 27.0682L205.058 26.168ZM209.602 26.296L209.967 27.2268L209.976 27.2235L209.984 27.22L209.602 26.296ZM211.426 25.144L212.147 24.4509L211.492 23.7701L210.775 24.3847L211.426 25.144ZM214.626 28.472L215.366 29.1438L215.994 28.4521L215.347 27.7789L214.626 28.472ZM211.554 30.584L211.914 31.5169L211.921 31.5142L211.928 31.5114L211.554 30.584ZM207.234 30.288C205.311 30.288 203.678 29.928 202.305 29.2416L201.411 31.0304C203.11 31.88 205.06 32.288 207.234 32.288V30.288ZM202.32 29.2492C200.949 28.535 199.902 27.5847 199.15 26.4L197.462 27.472C198.416 28.9753 199.737 30.1583 201.396 31.0228L202.32 29.2492ZM199.16 26.4156C198.431 25.2197 198.058 23.8558 198.058 22.296H196.058C196.058 24.1922 196.517 25.9216 197.452 27.4564L199.16 26.4156ZM198.058 22.296C198.058 20.7311 198.423 19.3772 199.13 18.2045L197.417 17.1715C196.503 18.6868 196.058 20.4049 196.058 22.296H198.058ZM199.128 18.2084C199.862 17.0034 200.865 16.0735 202.155 15.4091L201.24 13.6309C199.629 14.4599 198.35 15.6419 197.42 17.1676L199.128 18.2084ZM202.166 15.4038C203.458 14.7198 204.926 14.368 206.594 14.368V12.368C204.635 12.368 202.839 12.7841 201.23 13.6362L202.166 15.4038ZM206.594 14.368C208.158 14.368 209.561 14.6896 210.819 15.3184L211.713 13.5296C210.155 12.7504 208.442 12.368 206.594 12.368V14.368ZM210.829 15.3238C212.065 15.9229 213.042 16.8058 213.775 17.9904L215.476 16.9376C214.545 15.4342 213.282 14.2905 211.702 13.5242L210.829 15.3238ZM213.775 17.9904C214.49 19.1453 214.874 20.5859 214.874 22.36H216.874C216.874 20.2941 216.425 18.4707 215.476 16.9376L213.775 17.9904ZM214.874 22.36C214.874 22.5414 214.865 22.7603 214.845 23.0193L216.839 23.1727C216.862 22.877 216.874 22.6052 216.874 22.36H214.874ZM214.845 23.0193C214.824 23.2928 214.803 23.5441 214.782 23.7735L216.774 23.9545C216.795 23.7145 216.817 23.4538 216.839 23.1727L214.845 23.0193ZM215.778 22.864H202.05V24.864H215.778V22.864ZM203.05 23.864V20.664H201.05V23.864H203.05ZM202.05 21.664H212.546V19.664H202.05V21.664ZM212.183 19.732L209.879 20.628L210.604 22.492L212.908 21.596L212.183 19.732ZM211.241 21.587C211.267 20.6543 211.091 19.7874 210.668 19.0264L208.92 19.9976C209.137 20.3886 209.26 20.887 209.242 21.533L211.241 21.587ZM210.682 19.0517C210.296 18.3085 209.736 17.7186 209.013 17.3018L208.014 19.0342C208.401 19.2574 208.694 19.5635 208.906 19.9723L210.682 19.0517ZM209.028 17.3105C208.315 16.8827 207.502 16.688 206.626 16.688V18.688C207.2 18.688 207.646 18.8133 207.999 19.0255L209.028 17.3105ZM206.626 16.688C205.749 16.688 204.932 16.883 204.206 17.3018L205.205 19.0342C205.589 18.813 206.052 18.688 206.626 18.688V16.688ZM204.191 17.3105C203.483 17.7356 202.941 18.3424 202.563 19.0968L204.352 19.9912C204.572 19.5509 204.862 19.2404 205.22 19.0255L204.191 17.3105ZM202.57 19.0837C202.183 19.8295 202.01 20.6767 202.01 21.592H204.01C204.01 20.9286 204.135 20.4105 204.346 20.0043L202.57 19.0837ZM202.01 21.592V22.52H204.01V21.592H202.01ZM202.01 22.52C202.01 23.5074 202.208 24.4167 202.646 25.2111L204.397 24.2449C204.153 23.802 204.01 23.2393 204.01 22.52H202.01ZM202.659 25.2337C203.121 26.0221 203.776 26.6319 204.599 27.0566L205.516 25.2794C205.017 25.0214 204.648 24.6713 204.384 24.2223L202.659 25.2337ZM204.622 27.0682C205.449 27.4681 206.394 27.648 207.426 27.648V25.648C206.623 25.648 205.989 25.5079 205.493 25.2678L204.622 27.0682ZM207.426 27.648C208.365 27.648 209.222 27.5195 209.967 27.2268L209.236 25.3652C208.787 25.5418 208.193 25.648 207.426 25.648V27.648ZM209.984 27.22C210.716 26.9173 211.413 26.4723 212.077 25.9033L210.775 24.3847C210.244 24.8397 209.725 25.1627 209.219 25.372L209.984 27.22ZM210.705 25.8371L213.905 29.1651L215.347 27.7789L212.147 24.4509L210.705 25.8371ZM213.885 27.8002C213.16 28.5992 212.264 29.219 211.18 29.6567L211.928 31.5114C213.275 30.9676 214.427 30.1794 215.366 29.1438L213.885 27.8002ZM211.194 29.6511C210.119 30.0657 208.807 30.288 207.234 30.288V32.288C208.988 32.288 210.556 32.041 211.914 31.5169L211.194 29.6511Z" fill="#0E1017" mask="url(#path-1-outside-1_2_111)"/>
</g>
<rect x="221" width="16.94" height="15.0578" rx="7.52891" fill="#0E1017"/>
<defs>
<filter id="filter0_ddd_2_111" x="0.359985" y="6.96802" width="219.514" height="38.528" filterUnits="userSpaceOnUse" color-interpolation-filters="sRGB">
<feFlood flood-opacity="0" result="BackgroundImageFix"/>
<feColorMatrix in="SourceAlpha" type="matrix" values="0 0 0 0 0 0 0 0 0 0 0 0 0 0 0 0 0 0 127 0" result="hardAlpha"/>
<feOffset dy="4"/>
<feGaussianBlur stdDeviation="2"/>
<feComposite in2="hardAlpha" operator="out"/>
<feColorMatrix type="matrix" values="0 0 0 0 0 0 0 0 0 0 0 0 0 0 0 0 0 0 0.25 0"/>
<feBlend mode="normal" in2="BackgroundImageFix" result="effect1_dropShadow_2_111"/>
<feColorMatrix in="SourceAlpha" type="matrix" values="0 0 0 0 0 0 0 0 0 0 0 0 0 0 0 0 0 0 127 0" result="hardAlpha"/>
<feOffset dy="4"/>
<feGaussianBlur stdDeviation="2"/>
<feComposite in2="hardAlpha" operator="out"/>
<feColorMatrix type="matrix" values="0 0 0 0 0 0 0 0 0 0 0 0 0 0 0 0 0 0 0.25 0"/>
<feBlend mode="normal" in2="effect1_dropShadow_2_111" result="effect2_dropShadow_2_111"/>
<feColorMatrix in="SourceAlpha" type="matrix" values="0 0 0 0 0 0 0 0 0 0 0 0 0 0 0 0 0 0 127 0" result="hardAlpha"/>
<feOffset dy="4"/>
<feGaussianBlur stdDeviation="2"/>
<feComposite in2="hardAlpha" operator="out"/>
<feColorMatrix type="matrix" values="0 0 0 0 0 0 0 0 0 0 0 0 0 0 0 0 0 0 0.25 0"/>
<feBlend mode="normal" in2="effect2_dropShadow_2_111" result="effect3_dropShadow_2_111"/>
<feBlend mode="normal" in="SourceGraphic" in2="effect3_dropShadow_2_111" result="shape"/>
</filter>
</defs>
</svg>
