<svg width="76" height="76" viewBox="0 0 76 76" fill="none" xmlns="http://www.w3.org/2000/svg">
<g clip-path="url(#clip0_108_93)">
<path d="M76 0H0V76H76V0Z" fill="white"/>
<path d="M62.6935 23.7264V52.2473L37.9935 66.5076L13.2935 52.2469V23.7257L24.4085 17.3086L33.0535 12.3173V25.1491L33.0649 25.1427L34.2885 24.4363L37.9935 22.2972V9.46539L62.6935 23.7264Z" fill="#072C50"/>
<path d="M37.9938 9.46539V9.48302H37.9631L37.9938 9.46539Z" fill="#FF5600"/>
<path d="M33.065 25.1427L33.0535 25.1492V25.1427H33.065Z" fill="#FF5600"/>
<path d="M37.9938 9.4624V9.46547L37.9632 9.4831H37.9582L37.9938 9.4624Z" fill="#1944B7"/>
<path d="M37.9935 9.48291V22.2973L34.2885 24.4363L33.0649 25.1427H33.0535V9.48291H37.9935Z" fill="#072C50"/>
<path d="M34.2885 24.4363L33.0649 25.1427L33.0535 25.1492V25.1427V12.315V9.48291H13.2935V23.7234V25.1427V52.2443L30.1541 61.9788L37.9935 66.5049V22.2973L34.2885 24.4363Z" fill="url(#paint0_linear_108_93)"/>
<path d="M37.9935 22.2972V25.1427H33.0649L34.2885 24.4363L37.9935 22.2972Z" fill="#1944B7"/>
<path d="M51.5786 30.1404V45.8268L37.9936 53.67L24.4086 45.8268V30.1404L33.0536 25.1491L33.065 25.1427L34.2886 24.4363L37.9936 22.2972L51.5786 30.1404Z" fill="white"/>
<path d="M33.0536 9.48291H24.4086V34.8251H33.0536V9.48291Z" fill="white"/>
<path d="M33.0535 39.8829L37.9935 37.0306L42.9335 39.8829V45.5871L37.9935 48.439L33.0535 45.5871V39.8829Z" fill="#072C50"/>
<path d="M33.0535 45.1364L37.9935 42.2845L42.9335 45.1364V50.8406L37.9935 53.6928L33.0535 50.8406V45.1364Z" fill="#072C50"/>
<path d="M33.0535 34.1696L37.9935 31.3177L42.9335 34.1696V39.8741L37.9935 42.726L33.0535 39.8741V34.1696Z" fill="#072C50"/>
</g>
<defs>
<linearGradient id="paint0_linear_108_93" x1="25.6435" y1="9.48291" x2="25.6435" y2="66.5046" gradientUnits="userSpaceOnUse">
<stop stop-color="#FAAB40"/>
<stop offset="1" stop-color="#EF4536"/>
</linearGradient>
<clipPath id="clip0_108_93">
<rect width="76" height="76" fill="white"/>
</clipPath>
</defs>
</svg>
