<svg width="98" height="76" viewBox="0 0 98 76" fill="none" xmlns="http://www.w3.org/2000/svg">
<g clip-path="url(#clip0_108_117)">
<rect width="97.8983" height="76" fill="black"/>
<path d="M22.7627 6.97212C22.7275 6.54782 22.6563 6.13231 22.551 5.73598C22.5375 5.661 22.514 5.59112 22.4819 5.53076C22.4498 5.47041 22.4098 5.42091 22.3645 5.3854C22.3038 5.36135 22.2403 5.36027 22.1793 5.38224L21.2291 5.60417C21.1496 5.60975 21.0735 5.65488 21.0125 5.73267C20.8887 5.93131 21.0106 6.25113 21.0068 6.52509C21.0026 6.83312 20.8231 7.08323 20.6286 7.16602C20.43 7.22726 20.2251 7.22338 20.0276 7.15466L18.6988 6.83873C19.0901 6.6481 19.4384 6.29342 19.704 5.81517C19.8788 5.49895 19.9719 4.90963 19.7192 4.75942C19.6441 4.72783 19.5658 4.71807 19.4884 4.73068C18.8863 4.73786 18.4127 3.97088 17.8492 3.6479C17.4885 3.45451 17.097 3.44012 16.7306 3.60676C16.3642 3.77341 16.0417 4.11256 15.8093 4.57573L16.5171 4.62776C16.5837 4.6222 16.6497 4.64909 16.7055 4.70452C16.8607 4.89899 16.6679 5.27257 16.6896 5.577C16.7179 5.97257 17.0623 6.05708 17.3218 6.09719C17.5813 6.13729 17.9106 6.45897 17.7858 6.8084C16.4813 7.49388 15.154 5.46834 13.7841 5.71772C13.4375 5.78082 13.11 5.98867 12.7716 6.11932C10.7037 6.91764 8.56601 4.78774 6.45362 5.23879C5.98403 5.36094 5.5225 5.54666 5.07451 5.79376C4.787 5.93749 4.48716 6.09345 4.27822 6.4275C4.06928 6.76154 3.98986 7.33304 4.18769 7.68218C3.64223 7.75074 3.09313 7.67112 2.5659 7.44703C2.70848 7.56794 2.82709 7.74519 2.90928 7.96016C2.99148 8.17514 3.03423 8.41992 3.03305 8.6688C2.18141 8.88072 1.35231 9.26647 0.568066 9.81567C0.714437 10.1871 0.885398 10.5346 1.07826 10.8527L0.00012207 11.9096C0.364402 12.0496 0.552712 12.8076 0.340851 13.2809C0.718508 13.0245 0.9526 12.361 1.35654 12.2269C1.62115 12.1388 1.89038 12.3039 2.14134 12.4591C2.39229 12.6144 2.66821 12.7647 2.92811 12.6483C3.18801 12.5319 3.37962 12.0177 3.21449 11.6902C4.32516 11.1957 5.47301 10.9221 6.62959 10.876C6.71883 10.8589 6.80934 10.8851 6.88827 10.9509C7.039 11.1103 6.99924 11.454 6.99114 11.7338C6.98304 12.0137 7.12576 12.3807 7.28929 12.2543C7.09684 12.509 7.26103 12.9885 7.44604 13.2563C7.63106 13.5241 7.85328 13.8936 7.74024 14.2421C7.71075 14.3331 7.66064 14.4058 7.63228 14.4975C7.54844 14.7683 7.68155 15.0841 7.83849 15.2639C7.99543 15.4437 8.1877 15.5695 8.29669 15.8184C8.40568 16.0674 8.35622 16.5033 8.16123 16.5381L7.60713 15.4646C7.4178 15.7641 7.288 16.1394 7.23277 16.5469C7.8204 17.28 7.90876 18.7717 7.41684 19.6535C7.16541 20.1041 6.80792 20.3779 6.49592 20.7295C6.18392 21.0811 5.8952 21.5816 5.89595 22.1733C5.89727 23.1958 5.84254 24.1456 6.09377 25.0935C6.55677 26.8414 7.09132 28.5431 7.69427 30.1886C7.85262 30.6207 8.05723 31.0941 8.37798 31.1687C7.9726 29.6629 7.60766 28.1337 7.28317 26.5811C7.49446 26.5824 7.73873 26.6079 7.86261 26.8685C7.96519 27.0849 7.94315 27.3789 7.97499 27.6416C8.01552 27.8959 8.08311 28.1384 8.17507 28.3594L10.1109 33.6202C10.2711 34.0563 10.4555 34.5246 10.7621 34.7012C10.9583 34.8142 11.1851 34.7929 11.3656 34.9555C11.5069 35.083 11.6023 35.3091 11.7466 35.4298C12.1544 35.7692 12.7215 35.1183 13.1025 35.5235C13.2115 35.6394 13.2808 35.8235 13.3812 35.9562C13.7331 36.4213 14.3105 36.1101 14.7168 36.4571C14.9787 36.6808 15.1144 37.1279 15.2538 37.5331C15.6037 38.5482 16.1697 39.5427 16.9196 39.6235C17.1551 39.6489 17.3957 39.5804 17.6261 39.6607C17.8565 39.7411 18.083 40.0472 18.0459 40.403C17.9825 41.013 18.1801 41.681 18.1271 42.2933C18.0304 43.4085 16.9936 43.8987 16.9045 45.0155C16.885 45.2599 16.9155 45.5124 16.8774 45.7517C16.8303 46.0451 16.6862 46.2836 16.6349 46.5755C16.5377 47.128 16.7971 47.678 17.0822 48.0497C17.3672 48.4214 17.7072 48.7419 17.863 49.2624C18.0277 49.8125 17.9468 50.4538 18.0004 51.0529C18.1173 52.3609 18.8576 53.3307 19.6198 53.9564C19.852 54.1469 20.1012 54.3313 20.2515 54.6619C20.4476 55.0931 20.4281 55.6619 20.4936 56.1773C20.6537 57.4396 21.3508 58.4795 21.3701 59.765C21.3842 60.6786 21.0514 61.5074 20.8525 62.3695C20.6661 63.1955 20.5987 64.073 20.6548 64.9424C20.7109 65.8117 20.8892 66.6523 21.1776 67.4069C21.3263 67.7901 21.5042 68.1515 21.6094 68.5669C21.7972 69.3083 21.7362 70.151 21.9094 70.9005C22.1383 71.8915 22.7672 72.71 22.707 73.7568C22.9925 74.6615 23.623 75.1061 24.257 75.3753L25.3932 75.8578C25.6107 75.9502 25.8382 76.0434 26.0596 75.9764C26.2811 75.9094 26.493 75.6289 26.4868 75.2843C25.9296 75.0926 25.3546 74.8887 24.8948 74.3706C24.435 73.8524 24.1208 72.9299 24.2951 72.0995C24.3759 71.7147 24.5479 71.2703 24.3844 70.9522C24.2909 70.7701 24.1197 70.7222 24.0141 70.5565C23.8495 70.2978 23.9061 69.8621 24.0244 69.5503C24.1427 69.2386 24.3139 68.9587 24.3615 68.6051C24.3856 68.4074 24.3695 68.2031 24.3154 68.0197C24.2612 67.8363 24.1716 67.6826 24.0586 67.5791C24.2693 67.4578 24.4609 67.2701 24.621 67.0285C24.7689 66.7707 24.8376 66.3735 24.7208 66.0798C25.0664 66.1466 25.4744 66.1794 25.7005 65.7761C25.8817 65.4541 25.8691 64.9726 25.7976 64.5627C25.7261 64.1527 25.6051 63.7543 25.6013 63.3301C26.3983 63.3877 27.197 63.3464 27.9896 63.2065C27.875 62.6175 27.6146 62.1198 27.2635 61.8189C27.6225 61.7261 27.9495 61.0704 28.0629 60.5426C28.1763 60.0148 28.1477 59.4397 28.0773 58.8947C28.0505 58.7545 28.0468 58.6063 28.0666 58.4635C28.107 58.267 28.2335 58.1472 28.3506 58.0443L30.1324 56.4829C30.2387 56.4016 30.3351 56.293 30.4173 56.1619C30.604 55.8273 30.5763 55.3222 30.4807 54.9078C30.3851 54.4934 30.232 54.1029 30.1952 53.6678C30.0851 52.3644 30.9995 51.4294 31.308 50.2024C31.4291 49.7209 31.4538 49.1976 31.4776 48.6831C31.5027 48.1306 31.5046 47.4887 31.2265 47.1326C30.96 46.7913 30.5435 46.8674 30.2646 46.5499C30.009 46.2589 29.9207 45.6935 29.6414 45.4584C29.3877 45.2449 29.0696 45.3806 28.7874 45.2803C28.2906 45.1035 27.978 44.2299 27.4707 44.1489C27.1844 44.1032 26.8604 44.3168 26.6258 44.0627C26.419 43.8386 26.4107 43.388 26.3714 43.0058C26.3025 42.4117 26.1158 41.864 25.8367 41.4367C25.5575 41.0094 25.1992 40.7229 24.81 40.6157C24.5149 40.5438 24.1936 40.5709 23.9425 40.3234C23.6882 40.0727 23.5716 39.6035 23.3719 39.2565C23.0501 38.6973 22.543 38.4985 22.0682 38.3281L20.1366 37.6352C19.7937 37.5121 19.3517 37.4469 19.1676 37.9053C19.1131 38.0798 19.0746 38.2649 19.053 38.4553C18.984 38.7999 18.8453 39.1022 18.6566 39.3188C18.468 39.5354 18.2392 39.6552 18.0032 39.661C17.8413 39.2397 17.579 38.93 17.271 38.7967C17.0752 38.7134 16.866 38.7042 16.6787 38.5811C16.577 38.5053 16.4864 38.3987 16.4126 38.2677C16.3388 38.1367 16.2833 37.9841 16.2495 37.8192C16.2157 37.6543 16.2043 37.4807 16.216 37.3088C16.2277 37.137 16.2623 36.9706 16.3176 36.8199C16.4289 36.5173 16.4719 36.1673 16.4399 35.8238C16.4079 35.4802 16.3027 35.1623 16.1406 34.919C15.8121 34.4689 15.337 34.3603 14.8965 34.4053C14.7811 34.0212 14.974 33.5878 15.1819 33.3087C15.3898 33.0295 15.6422 32.7552 15.6874 32.3383C15.7586 31.6827 15.2104 31.1847 14.7941 31.3802C14.3778 31.5756 14.1121 32.1926 13.9369 32.8007C13.8361 33.1497 13.7504 33.5171 13.5914 33.8113C13.4324 34.1056 13.1769 34.3163 12.9344 34.2219C12.5915 34.0882 12.4592 33.4668 12.3834 32.9394C12.2815 32.2319 12.1792 31.5147 12.2005 30.7911C12.2218 30.0676 12.3817 29.325 12.7313 28.8349C13.3012 28.0367 14.1753 28.1149 14.9442 28.2422C14.7625 27.9299 14.8075 27.4035 15.0019 27.1094C15.1045 26.9702 15.2278 26.8712 15.3611 26.8211C15.4944 26.7711 15.6337 26.7713 15.7669 26.822C15.9986 26.8955 16.2074 27.086 16.3595 27.3626C16.5781 27.769 16.6402 28.318 16.8054 28.7794C16.9706 29.2408 17.3424 29.6343 17.646 29.3868C17.9085 29.1729 17.9502 28.6174 17.8849 28.1744C17.8195 27.7314 17.6807 27.3005 17.7044 26.8478C17.7495 25.984 18.3364 25.4641 18.8542 25.1086C19.372 24.7532 19.965 24.2749 20.0471 23.417C20.0499 23.2491 20.0706 23.0831 20.1085 22.9254C20.1659 22.7861 20.2457 22.6716 20.3403 22.5926C21.8517 21.069 23.3882 19.526 25.1156 18.6932C25.2055 18.6501 25.216 18.6981 25.3076 18.6644C25.4358 18.5515 25.3508 18.2387 25.2279 18.1128C25.105 17.9869 24.9408 17.8901 24.9096 17.6693C24.8867 17.5071 24.9494 17.3477 24.9661 17.1834C25.0062 16.7799 24.6898 16.4072 24.4442 16.5687C24.3054 16.2883 24.58 15.9626 24.8021 15.8693C25.4688 15.5894 26.1531 15.4188 26.8435 15.3605C26.9231 15.3411 27.0048 15.3623 27.0758 15.4207C27.1917 15.5433 27.177 15.8243 27.0946 15.9993C27.0123 16.1742 26.8846 16.284 26.7822 16.432C26.6704 16.5984 26.5906 16.8084 26.5516 17.0392C26.5126 17.2699 26.5158 17.5126 26.5611 17.7408C26.9215 18.0205 27.3134 18.3085 27.7125 18.2099C28.1116 18.1113 28.4661 17.427 28.2784 16.8805C28.1036 16.3715 27.5788 16.2567 27.4886 15.6988C27.3829 15.0457 27.9888 14.4649 27.8524 13.8252C27.7926 13.5451 27.6096 13.3796 27.4692 13.1784C27.3033 12.9304 27.1905 12.6116 27.1456 12.264C27.1006 11.9163 27.1256 11.5561 27.2173 11.2305C26.9885 11.2919 26.7535 11.2687 26.5318 11.1629C26.3102 11.057 26.1084 10.8716 25.9434 10.6222C25.6387 10.153 25.3956 9.41278 24.9629 9.43391C24.5659 9.45317 24.2239 10.1599 23.8527 9.94432C23.7613 9.89128 23.665 9.78333 23.5765 9.84658C23.5476 9.87532 23.5232 9.91374 23.5054 9.95893C23.4875 10.0041 23.4767 10.0549 23.4736 10.1075C23.3794 10.7957 23.5415 11.5799 23.2957 12.1747C23.0282 12.8215 22.4094 12.9116 22.085 13.4952C21.909 13.8114 21.8408 14.2389 21.6789 14.5732C21.5171 14.9076 21.1736 15.1194 20.9795 14.8285C21.0749 14.5291 21.101 14.1892 21.0534 13.8643C21.0059 13.5394 20.8875 13.2487 20.7176 13.0397C20.5373 12.8602 20.343 12.716 20.1391 12.6104C19.9113 12.4632 19.6946 12.2789 19.4928 12.0607C19.3917 11.9677 19.3095 11.8335 19.2555 11.6733C19.2128 11.4727 19.2185 11.2554 19.2717 11.0607C19.3702 10.6299 19.5439 10.2483 19.7741 9.95719C20.0043 9.66602 20.2823 9.47634 20.578 9.40861C20.8366 9.35499 21.1376 9.37383 21.3086 9.07327C21.3992 8.91415 21.4466 8.67368 21.5781 8.60914C21.6622 8.58337 21.7495 8.59975 21.8269 8.65585L22.792 9.17417C22.8998 9.24818 23.0183 9.27791 23.1359 9.26042C23.1942 9.24846 23.2474 9.20329 23.2848 9.13397C23.3222 9.06465 23.341 8.97632 23.3375 8.8867C23.3067 8.64235 23.06 8.52477 23.0825 8.27811C23.095 8.1982 23.1232 8.12598 23.1632 8.07099C23.5115 7.50534 23.9374 7.06419 24.4106 6.77912C24.8837 6.49405 25.3922 6.37211 25.8999 6.42203C26.0217 6.72733 25.829 7.08883 25.6687 7.34943C25.5084 7.61002 25.3796 8.07559 25.5734 8.27625C25.6529 8.33809 25.7413 8.36845 25.8304 8.3645C26.068 8.41347 26.299 8.52023 26.5144 8.68072C26.848 8.90217 27.1751 9.14447 27.4957 9.4076C27.4675 9.08491 27.4403 8.74512 27.5205 8.44341C27.6007 8.14171 27.8285 7.90512 28.0274 8.02255C28.2192 8.13582 28.3175 8.52319 28.5218 8.55869C28.7943 8.60598 28.9018 7.99179 28.788 7.61103C28.6742 7.23027 28.4489 6.91146 28.43 6.4939C28.4173 6.21218 28.4876 5.8629 28.3402 5.69242C28.2877 5.64119 28.2281 5.60931 28.1662 5.59928L24.4844 4.56768C24.2657 4.5063 23.9499 4.5533 23.9402 4.89224C23.9348 5.08139 24.0455 5.26854 23.9967 5.44246C23.9443 5.62803 23.7724 5.61107 23.6471 5.67676C23.4528 5.77867 23.3551 6.13068 23.3739 6.44302C23.4081 6.75331 23.4868 7.04822 23.6045 7.30659C23.3648 7.15308 23.0022 7.12491 22.7627 6.97212Z" fill="white"/>
<path d="M19.825 2.20334C19.5929 2.08619 19.3427 2.08078 19.1085 2.18784C18.8743 2.2949 18.6673 2.50926 18.5156 2.80186C18.4549 2.92361 18.4041 3.09149 18.4549 3.22345C18.5276 3.41246 18.7131 3.33844 18.8497 3.27016C19.0507 3.16062 19.2693 3.15266 19.4735 3.24745C19.6019 3.31472 19.7166 3.43359 19.8456 3.49827C19.9083 3.53832 19.977 3.55155 20.0444 3.53653C20.1117 3.52151 20.175 3.47882 20.2276 3.41304C20.3161 3.27533 20.3218 3.06131 20.3218 2.86856C20.3279 2.80414 20.3245 2.73846 20.3119 2.6763C20.2992 2.61414 20.2777 2.55706 20.2487 2.50922C20.197 2.46352 20.1389 2.43735 20.0792 2.43289C19.9458 2.39519 19.8252 2.28768 19.7383 2.12889" fill="white"/>
<path d="M21.1526 1.63929C21.1007 1.63499 21.0489 1.65115 21.0022 1.68622C20.9555 1.72128 20.9156 1.77408 20.8861 1.83953C20.8567 1.90498 20.8388 1.98088 20.8341 2.05995C20.8294 2.13901 20.8382 2.21857 20.8595 2.291C21.019 2.35732 21.1856 2.3739 21.3493 2.33972C21.4311 2.32038 21.5072 2.26454 21.5682 2.17926C21.6292 2.09398 21.6722 1.98307 21.692 1.8605C21.499 1.91408 21.2999 1.85607 21.1335 1.69779" fill="white"/>
<path d="M25.6068 0.697403C25.1725 0.838275 24.7507 1.05693 24.35 1.34882C24.5388 1.45965 24.6993 1.6601 24.8079 1.92064C24.9164 2.18118 24.9672 2.48803 24.9529 2.79597C24.9359 2.9142 24.9379 3.03691 24.9586 3.15373C25.0048 3.32449 25.1385 3.3886 25.2561 3.43244C25.4674 3.53054 25.688 3.5735 25.9086 3.5595C26.019 3.55076 26.1262 3.50018 26.2205 3.41234C26.3148 3.3245 26.3933 3.20217 26.4488 3.05642C26.4808 2.91798 26.5183 2.78266 26.5611 2.65123C26.8429 1.99621 27.6803 2.78821 27.983 2.15519C28.0896 1.93211 28.0798 1.59648 28.2185 1.41983C28.2904 1.34283 28.3737 1.29433 28.461 1.27868C29.0695 1.09418 29.6843 0.960598 30.3024 0.878512C30.5953 0.839559 30.9771 0.679149 30.9795 0.230544C29.8763 -0.100034 28.7324 0.134784 27.7257 0.898492C27.363 1.17576 26.8833 1.75876 26.5339 1.39137C26.403 1.25381 26.4095 0.883254 26.2295 0.728449C26.0459 0.569763 25.8022 0.634015 25.6068 0.697403Z" fill="white"/>
<path d="M29.2147 1.72666L29.7328 1.87845C29.6375 1.87202 29.5424 1.89668 29.4538 1.95078C29.3652 2.00489 29.2852 2.08719 29.2191 2.1922C29.1531 2.29722 29.1024 2.42252 29.0706 2.55977C29.0387 2.69701 29.0264 2.84304 29.0345 2.9881C29.5195 3.23533 30.0482 2.99471 30.5591 3.02763C31.0699 3.06055 31.6644 3.61695 31.5771 4.38609C31.5507 4.61852 31.4628 4.85079 31.5085 5.07603C31.5406 5.23414 31.6319 5.34597 31.6834 5.49143C31.7908 5.79457 31.705 6.17792 31.5694 6.45347C31.4338 6.72901 31.2516 6.94879 31.1326 7.24158C30.8366 7.9699 31.0047 8.91138 31.1811 9.72493C31.2321 10.0324 31.3262 10.3192 31.457 10.5657C31.7182 10.9894 32.1439 11.0256 32.5252 11.0348C32.8026 11.041 33.1205 11.0204 33.2959 10.692C33.525 10.2638 33.3648 9.59557 33.5156 9.09292C33.6526 8.63641 34.0016 8.44064 34.3177 8.30236C34.897 8.04795 35.4874 7.83162 36.035 7.44727C36.715 6.97006 37.3505 6.22622 38.098 6.16484C38.3077 6.14759 38.5225 6.1854 38.7245 6.09772C38.9265 6.01004 39.1184 5.74355 39.1031 5.42402C39.09 5.15092 38.9386 4.95055 38.8205 4.74472C38.7024 4.53888 38.6093 4.22237 38.718 4.00461L40.6774 3.44634C40.5386 2.86894 40.4303 2.10828 40.7495 1.73241C40.8646 1.59672 41.0188 1.54253 41.1169 1.37867C41.284 1.09925 41.2 0.617872 41.007 0.380274C40.8141 0.142676 40.5534 0.0874805 40.3064 0.0561457C39.4473 -0.0526635 38.5834 0.0192057 37.7227 0.0912181L32.6753 0.513374C32.3362 0.542122 31.9456 0.499001 31.635 0.674792C31.3719 0.823991 31.1851 1.0981 30.8843 1.19426C30.3282 1.37134 29.7171 1.25103 29.2147 1.72666Z" fill="white"/>
<path d="M38.4917 7.97264C38.439 7.95991 38.385 7.97859 38.341 8.02482C38.3119 8.0737 38.2946 8.13627 38.2919 8.20219C38.2585 8.49308 38.2984 8.79249 38.4035 9.04047C38.457 9.16214 38.5309 9.25973 38.6175 9.3231C38.7041 9.38646 38.8002 9.4133 38.8959 9.40082C39.1291 9.35539 39.301 9.05196 39.5153 8.90377C39.8457 8.67566 41.2486 8.32006 40.2784 7.52001C39.9438 7.24432 39.7277 7.48767 39.4641 7.66936C39.1641 7.90351 38.828 8.00841 38.4918 7.97279L38.4917 7.97264Z" fill="white"/>
<path d="M46.9938 1.27505C46.8805 1.34573 46.7857 1.47169 46.7242 1.63325C46.6959 1.71528 46.6893 1.81079 46.7058 1.90002C46.7224 1.98924 46.7608 2.06536 46.813 2.11261C46.8553 2.13598 46.9 2.14686 46.9449 2.14466L47.4058 2.16565C47.6015 2.17456 47.8461 2.23752 47.8987 2.52614C47.9378 2.73988 47.8504 3.01485 47.9558 3.16735C48.0011 3.22084 48.0555 3.25323 48.1126 3.26064C48.2644 3.32013 48.4229 3.32794 48.5769 3.28349C48.9122 3.14622 48.736 2.83403 48.8416 2.5559C49.0031 2.13043 48.9752 2.38801 49.2599 2.14423C49.4702 1.96413 49.7419 1.63756 49.5664 1.1786C49.2616 0.380286 47.4442 0.932238 46.9938 1.27505Z" fill="white"/>
<path d="M56.0898 0.873606L55.8222 0.928082C55.2187 1.05098 54.6119 1.17502 54.0306 1.45143C54.2822 1.60322 54.5462 1.70206 54.8152 1.74523C54.9633 1.7563 55.1104 1.7882 55.2547 1.84053C55.5114 1.9571 55.7701 2.25823 56.0177 2.104C56.1715 2.00841 56.2217 1.76406 56.349 1.63455C56.437 1.54515 56.7706 1.4004 56.8079 1.31014C57.1098 0.580957 56.3215 0.826748 56.0898 0.873606Z" fill="white"/>
<path d="M57.265 2.72971C56.9074 3.03465 56.5757 3.40523 56.2772 3.83319C56.1514 4.01358 56.0228 4.23781 56.0344 4.50056C56.0496 4.8497 56.2934 5.05237 56.5046 5.18877L57.36 5.74145C57.4637 5.51822 57.3688 5.20962 57.2616 4.99085C57.1544 4.77208 57.0268 4.51781 57.0742 4.25376C57.1283 3.95191 57.369 3.84986 57.5708 3.79797C57.8996 3.71345 58.7866 3.72021 58.6801 2.91154C58.5548 1.95885 57.5951 2.44813 57.265 2.72971Z" fill="white"/>
<path d="M57.0929 56.6495C57.0114 57.0088 57.0037 57.433 57.1446 57.7472C57.3027 58.0997 57.619 58.231 57.8928 58.1416C58.1654 58.031 58.4083 57.7926 58.5874 57.4602C58.7512 57.1818 58.8859 56.8667 58.9869 56.5259C59.1279 55.9945 59.2273 55.4397 59.2831 54.8729L59.5488 52.7456C59.6081 52.27 59.6059 50.812 59.033 51.2871C58.8765 51.4164 58.5141 52.4414 58.3501 52.7321C58.0545 53.2557 58.0154 53.7638 57.8603 54.3983C57.6648 55.192 57.2731 55.8532 57.0929 56.6495Z" fill="white"/>
<path d="M87.3488 67.539C87.1613 67.4274 86.9794 67.2953 86.8045 67.1436C86.629 67.8796 86.5358 68.6553 86.5286 69.4384L87.8112 68.3316C88.0041 68.165 88.2229 67.9336 88.2187 67.5954C88.2205 67.5536 88.2148 67.5119 88.2023 67.4746C88.1899 67.4373 88.171 67.4058 88.1478 67.3835C88.1193 67.3661 88.0883 67.3605 88.0579 67.3674C87.8677 67.3916 87.6943 67.5344 87.5149 67.6336C87.3354 67.7328 87.1256 67.7854 86.961 67.6381" fill="white"/>
<path d="M94.1153 68.1962C93.9746 68.2547 93.837 68.33 93.704 68.4214C93.4097 68.65 93.2095 69.0839 92.9446 69.3845C92.6911 69.672 92.386 69.8301 92.0865 69.9844C91.9984 70.1033 92.0388 70.3426 92.1345 70.447C92.2375 70.5364 92.3556 70.5768 92.4737 70.5631C92.7845 70.5736 93.1127 70.5775 93.3853 70.3488C93.5388 70.1968 93.6825 70.0228 93.8144 69.8291C94.1331 69.4233 94.5159 69.1557 94.8948 68.8969C95.0327 68.8175 95.1604 68.7012 95.2716 68.5534C95.5096 68.1955 95.5259 67.6434 95.1831 67.5217C94.9047 67.4241 94.3791 68.0658 94.1153 68.1962Z" fill="white"/>
<path d="M97.1043 65.2164C97.1197 64.9701 97.0983 64.7217 97.0415 64.49C96.9848 64.2582 96.8943 64.0492 96.7769 63.8786C96.7734 64.3713 96.7636 64.8961 96.582 65.3036C96.4526 65.594 96.2498 65.79 96.108 66.0664C95.9662 66.3428 95.9033 66.7812 96.0696 67.0239C96.1758 67.1473 96.3053 67.2153 96.4388 67.2179C96.7699 67.2774 97.153 67.3105 97.3851 66.9457C97.5118 66.7465 97.5735 66.4515 97.728 66.3052C97.7857 66.2683 97.8372 66.2122 97.8787 66.1409C97.9425 65.9861 97.841 65.7815 97.7271 65.7264C97.6131 65.6712 97.4871 65.6967 97.3725 65.6438C97.2578 65.5909 97.1525 65.394 97.2114 65.2348" fill="white"/>
<path d="M91.7913 47.1527C91.6176 47.2172 91.4378 47.2333 91.2603 47.2005C90.9657 47.1178 90.7363 46.7789 90.4984 46.501C89.9329 45.844 89.2454 45.4775 88.5347 45.4542C87.8882 45.4355 87.2358 45.7029 86.6008 45.5164C86.6423 45.8684 86.8397 46.1325 87.0504 46.2894C87.261 46.4464 87.4931 46.5253 87.7052 46.6791C88.0441 46.9278 88.313 47.3546 88.4624 47.8812C88.5307 48.124 88.5735 48.3883 88.6768 48.5999C88.8879 49.0333 89.2879 49.1284 89.641 49.0929C90.1014 49.0468 90.5822 48.8447 91.0104 49.1064C91.3381 49.3066 91.5725 49.7442 91.8461 50.0838C92.1197 50.4235 92.5049 50.6766 92.8191 50.4311C92.4928 50.2699 92.2089 49.9538 92.0087 49.529C91.8085 49.1041 91.7025 48.5927 91.7062 48.0695C92.0143 48.1126 92.9016 48.0959 92.8539 47.2972C92.8134 46.6212 92.056 47.0797 91.7913 47.1527Z" fill="white"/>
<path d="M87.7613 52.6603C87.816 52.2025 88.1152 51.7979 88.022 51.3552C87.9575 51.0488 87.7247 50.8975 87.5138 50.8899C87.303 50.8823 87.0959 50.9782 86.885 50.9872C86.7478 50.9761 86.6102 50.9791 86.4733 50.9961C86.0548 51.1011 85.7968 51.7705 85.4025 52.0083C85.1626 52.1531 84.8932 52.1253 84.6439 52.2254C84.0777 52.4525 83.7195 53.2688 83.3237 53.9269C82.6842 54.9854 81.8512 55.7265 80.9325 56.0543C80.6106 56.168 80.2646 56.2411 80.0087 56.5598C79.6695 56.9822 79.5864 57.7064 79.5111 58.364C79.3028 60.1802 78.9845 61.9631 78.5603 63.6896L79.9046 63.9515C80.1601 64.0012 80.4249 64.0499 80.6713 63.9345C80.8502 63.8315 81.0197 63.6937 81.1755 63.5246C81.7742 62.9574 82.4443 62.5883 83.1424 62.4412C83.4944 62.3675 83.8635 62.354 84.1939 62.5536C84.5242 62.7533 84.8077 63.2061 84.8353 63.7467C84.9782 63.6788 85.1304 63.6715 85.2758 63.7255C85.4212 63.7794 85.5542 63.8926 85.6607 64.053C85.8712 64.3802 86.009 64.8001 86.0547 65.2533C86.0902 65.5339 86.1256 65.8702 86.2963 65.988C86.4355 66.084 86.5952 65.9806 86.7475 65.9619C87.2644 65.8988 87.6932 66.8183 88.2012 66.6601C88.7461 66.4903 88.8795 65.2453 89.4114 64.9959C89.7167 64.8521 90.1448 65.0268 90.291 64.5934C90.4199 64.2115 90.1628 63.7708 90.1893 63.3429C90.222 62.8164 90.6289 62.5929 90.9429 62.3682C92.0247 61.5936 92.538 59.372 92.0139 57.7334C91.703 56.7626 91.0921 55.9984 90.9792 54.9318C90.8924 54.1112 91.1044 53.1544 90.7615 52.5086C90.5871 52.18 90.2918 51.9986 90.188 51.6066C90.1228 51.3598 90.1489 51.0798 90.1138 50.8191C90.0787 50.5583 89.9296 50.2857 89.7608 50.3532C89.271 50.5494 89.1148 52.8578 88.8526 53.4187C88.4537 54.2721 87.6351 53.7115 87.7613 52.6603Z" fill="white"/>
<path d="M78.7088 48.0249C78.5414 47.9531 78.3586 47.8828 78.1983 47.9851C78.0379 48.0874 77.9439 48.4467 78.073 48.6249C79.0798 48.5651 80.0929 48.5056 81.0912 48.7143C82.2414 48.9546 83.3798 49.5501 84.5351 49.3755C83.8751 49.0784 83.2043 48.8409 82.5261 48.6641L81.3951 48.3345C81.0917 48.2376 80.7852 48.1653 80.4767 48.1181C79.8315 48.0361 79.3432 48.2963 78.7088 48.0249Z" fill="white"/>
<path d="M79.7168 42.6742C79.6332 42.6635 79.5297 42.6543 79.4865 42.764C79.4451 42.8688 79.4924 43.0072 79.4703 43.1246C79.4399 43.2852 79.3021 43.3259 79.1936 43.3043C79.0851 43.2828 78.9675 43.2301 78.8715 43.3099C78.8228 43.3608 78.7861 43.4344 78.7671 43.5197C78.7481 43.605 78.7477 43.6974 78.766 43.7831C78.8053 43.9532 78.8689 44.1078 78.9521 44.2359C79.0944 44.5093 79.2564 44.7573 79.4352 44.9751C79.7813 45.3649 80.2501 45.5527 80.468 46.1186C80.4988 46.2282 80.546 46.3253 80.606 46.4019C80.7106 46.5025 80.847 46.426 80.9597 46.3475L81.3546 46.0723C81.4257 46.0332 81.4892 45.9673 81.5392 45.8807C81.6295 45.6938 81.5741 45.4283 81.4983 45.2271C81.4226 45.0259 81.3257 44.8176 81.342 44.5869C81.371 44.1755 81.7175 44.0183 81.8601 43.667C82.0037 43.3122 81.9102 42.8551 81.9268 42.4389C81.9462 41.952 82.1466 41.3189 81.8241 40.9551C81.55 40.6459 81.288 40.9316 81.0912 41.2729C80.676 41.992 80.4797 42.7715 79.7168 42.6742Z" fill="white"/>
<path d="M82.1138 35.4007C82.2486 35.7945 82.5297 36.0296 82.6767 36.4131C82.8361 36.829 82.818 37.3661 82.9907 37.7692C83.1681 38.1827 83.525 38.4016 83.6245 38.8723C83.7331 39.3858 83.4867 40.0097 83.6831 40.4583C83.7197 40.5317 83.766 40.5926 83.8188 40.6372C83.8717 40.6818 83.93 40.7093 83.9902 40.7177C84.0504 40.7261 84.111 40.7154 84.1683 40.6862C84.2256 40.657 84.2784 40.6099 84.3231 40.548C84.4059 40.4105 84.4503 40.229 84.4466 40.0422C84.443 39.8555 84.3917 39.6783 84.3037 39.5485C84.1875 39.3868 84.0205 39.3168 83.9233 39.1278C83.8728 39.0187 83.8391 38.8936 83.8248 38.7618C83.7719 38.3816 83.7803 37.9875 83.8495 37.6135C83.8754 37.5185 83.882 37.4138 83.8683 37.3131C83.8246 37.1192 83.6526 37.1055 83.5318 37.0155C83.2576 36.8113 83.2642 36.2207 83.3122 35.7609C83.2802 36.067 82.5655 35.5463 82.4907 35.3728C82.3421 35.0278 82.423 34.3637 82.3935 33.983C82.0727 34.2194 81.949 34.9191 82.1138 35.4007Z" fill="white"/>
<path d="M74.9133 41.4609C74.7814 41.2355 74.5826 40.9998 74.4058 41.1358C74.2709 41.2394 74.2338 41.5239 74.2866 41.7402C74.3511 41.9499 74.4503 42.1304 74.5744 42.2637C74.943 42.7275 75.3399 43.1461 75.6614 43.6852C76.2368 44.6501 76.5416 45.952 77.1674 46.8408C77.2932 47.0469 77.4598 47.1844 77.6416 47.2324C77.8239 47.2582 78.0287 47.0802 78.0496 46.8026C78.0669 46.5739 77.9624 46.3694 77.8604 46.1999C77.6172 45.7964 77.3511 45.425 77.1216 45.0036C77.0159 44.8415 76.9494 44.6293 76.9332 44.4019C76.9321 44.1749 77.0678 43.9373 77.2119 43.9935C77.0366 43.9251 76.9066 43.4795 76.6493 43.3957C76.4344 43.3257 76.3823 43.5288 76.1264 43.3614C75.638 43.0421 75.255 42.0448 74.9133 41.4609Z" fill="white"/>
<path d="M86.3807 19.52C86.2407 19.4565 86.1031 19.3815 85.9684 19.2953C85.606 19.1293 85.1266 19.5358 85.175 20.1083C85.2071 20.4888 85.4387 20.7452 85.5672 21.0752C85.7572 21.5639 85.7065 22.1852 85.6067 22.7332C85.5822 22.9029 85.5356 23.0633 85.4696 23.205C85.3774 23.3545 85.2671 23.4755 85.1448 23.5613C84.6555 23.98 84.2239 24.5394 83.874 25.2085C83.836 25.2703 83.8095 25.3466 83.7973 25.4293C83.7799 25.6226 83.9073 25.7635 83.9793 25.9246C84.1395 26.2828 84.0237 26.7648 84.0394 27.1974C84.0369 27.2587 84.0447 27.3199 84.0621 27.3753C84.0795 27.4307 84.1059 27.4783 84.1388 27.5137C84.2352 27.5884 84.3495 27.4615 84.4018 27.317C84.5752 26.8377 84.4445 26.0684 84.7698 25.8365C84.8313 25.7934 84.9059 25.7744 84.947 25.6919C85.0121 25.5611 84.9493 25.3674 84.9823 25.211C85.0319 24.9763 85.2423 24.9656 85.4039 24.9761C85.6821 24.9939 85.9602 24.9374 86.2257 24.8092C86.3298 24.7715 86.4244 24.6879 86.4977 24.5689C86.595 24.3838 86.5864 24.1204 86.567 23.885C86.4697 22.7114 86.226 21.577 85.8492 20.5431C86.1349 20.5987 86.4457 20.647 86.6923 20.4198C86.8304 20.2926 86.9959 19.9121 86.9278 19.6531C86.8194 19.2433 86.6235 19.5883 86.3807 19.52Z" fill="white"/>
<path d="M49.7503 25.9746C49.7845 26.2545 49.8181 26.5496 49.758 26.8185C49.6979 27.0875 49.5089 27.3131 49.3304 27.2306C49.1918 27.1665 49.1118 26.9539 49.0134 26.7919C48.4662 25.8907 47.2318 26.4125 46.8938 25.2971C46.7559 24.842 46.8496 24.2968 46.7555 23.8166C46.6962 23.5389 46.5781 23.2992 46.4198 23.1351C46.2614 22.971 46.0719 22.8918 45.8809 22.9099C45.7066 22.9483 45.5371 23.0255 45.3775 23.1391C44.3089 23.7922 43.1871 24.2203 42.0428 24.4118C41.8254 24.4321 41.6104 24.4918 41.4022 24.5897C40.9323 24.8496 40.6109 25.5143 40.3829 26.1926C40.1548 26.8709 39.9857 27.6051 39.6795 28.2076C39.3576 28.8409 38.9064 29.2843 38.4856 29.764C38.3235 29.9234 38.1885 30.1393 38.0918 30.3939C38.0006 30.6796 38.0057 31.0119 38.0127 31.3297L38.0987 35.1882C38.1098 35.6845 38.1237 36.1985 38.2692 36.6427C38.4511 37.1972 38.8102 37.5606 39.0592 38.0505C39.3135 38.5542 39.4458 39.1766 39.4338 39.8121C39.4285 40.0675 39.4118 40.3697 39.5422 40.5301C39.6215 40.6085 39.7143 40.6493 39.8088 40.6471L43.2295 41.0743C43.8311 41.1494 44.498 41.2729 44.8909 41.9725C45.0763 42.3031 45.2252 42.7774 45.5092 42.8128C45.631 42.828 45.7496 42.7517 45.8714 42.7369C46.1788 42.6998 46.4489 43.0557 46.6193 43.4478C46.8772 44.0455 46.9943 44.7592 46.9513 45.4718C46.923 45.9191 46.8325 46.3539 46.8129 46.8022C46.7382 48.5075 47.6859 49.9894 47.7047 51.6992C47.7155 52.7054 47.4027 53.6441 47.0977 54.5356C47.5899 55.6734 47.1869 57.1885 47.3828 58.5187C47.5688 59.7807 48.2583 60.7686 48.4302 62.0352C48.5088 62.615 48.5133 63.3288 48.8485 63.6272C48.9956 63.7366 49.1586 63.7864 49.3219 63.7718C50.3069 63.7897 51.2806 63.4514 52.1635 62.7848C52.578 62.471 53.0073 62.0027 53.0796 61.3056C53.138 60.7434 52.9511 60.1146 53.1413 59.6249C53.3654 59.0478 53.9395 59.093 54.2693 58.6498C54.8043 57.9299 54.3871 56.5569 54.6038 55.5202C54.7986 54.5882 55.4692 54.093 55.8017 53.2566C55.9325 52.8968 56.0264 52.5086 56.08 52.1054C56.2323 51.1418 56.3271 50.1591 56.3632 49.1694C56.3721 48.5681 56.4011 47.9679 56.4503 47.3711C56.8082 43.9734 59.01 41.6984 59.7247 38.4344C59.793 38.1226 59.825 37.7075 59.6433 37.5311C59.5355 37.4526 59.4133 37.4331 59.2972 37.4758L57.7204 37.7791C57.5245 37.8167 57.3169 37.852 57.1371 37.7279C56.9572 37.6039 56.8283 37.2566 56.9237 36.9928C57.1915 36.2526 56.6406 35.3173 56.3962 34.5586C55.737 32.516 54.9521 30.5737 54.052 28.7578C53.9943 28.6644 53.9582 28.5449 53.9492 28.4173L54.3967 28.44C54.246 27.613 53.9964 26.7079 53.4697 26.4053C53.173 26.2348 52.8443 26.2937 52.5277 26.3202C51.6201 26.3954 50.6479 26.1858 49.7503 25.9746Z" fill="white"/>
<path d="M52.5279 7.33532C52.7652 7.71982 53.0311 8.1276 53.3745 8.19458C53.9809 8.31302 54.417 7.35602 54.6946 6.52478C54.7049 6.73668 54.7689 6.9341 54.8731 7.07506C54.9773 7.21601 55.1135 7.28938 55.2526 7.27955C55.4023 7.24111 55.5451 7.15586 55.6722 7.02916C56.8738 6.02717 58.2197 5.49626 59.5891 5.48413C59.5759 5.32586 59.6017 5.16577 59.6613 5.03475C59.721 4.90374 59.8103 4.81107 59.9121 4.77464C60.1905 4.69041 60.4413 5.05766 60.5756 5.43928C60.7098 5.8209 60.7936 6.26304 61.007 6.54865C61.2204 6.83425 61.6334 6.82175 61.7178 6.40821C61.7987 6.01121 61.5276 5.67257 61.3024 5.43856C61.0773 5.20456 60.8399 4.77133 60.9915 4.42579C62.142 4.0377 63.2995 3.64716 64.477 3.56983C64.6775 3.58047 64.8772 3.52797 65.0637 3.4156C65.2433 3.28121 65.386 2.97605 65.3377 2.67981C65.0807 2.77202 64.8116 2.74536 64.5647 2.60322C64.3178 2.46109 64.1042 2.20992 63.9512 1.88178C65.5847 1.67609 67.3222 1.50073 68.7699 2.67363C68.9436 3.24268 68.0582 3.71616 68.2951 4.22944C68.3705 4.39316 68.5221 4.41228 68.6531 4.4163C69.6592 4.44505 70.671 4.47279 71.6656 4.24094C72.0291 4.15628 72.3962 4.03669 72.7612 4.1054C73.369 4.22039 73.8889 4.83846 74.4869 5.04041C74.7304 5.12248 75.0033 5.12536 75.2084 4.90932C75.4136 4.69328 75.5018 4.20141 75.3336 3.92069C75.8967 3.07868 76.8314 3.28739 77.574 3.69071C78.3166 4.09404 79.0206 4.74388 79.8066 4.83386C80.3704 4.89825 80.942 4.66684 81.4991 4.81402C81.8491 4.90645 82.175 5.14462 82.5171 5.29008C83.1642 5.5662 83.8487 5.50784 84.5206 5.52121C86.2349 5.55647 87.9304 6.07058 89.5233 7.03807C89.7304 7.14108 89.9201 7.31223 90.0791 7.53943C90.2273 7.78162 90.3029 8.1575 90.2032 8.4523L88.5572 8.08534C88.7123 8.55119 89.1135 8.63054 89.4394 8.79124C89.7652 8.95194 90.103 9.50101 89.9072 9.92963C89.5541 9.75816 89.2342 10.2967 89.0559 10.7921C88.8775 11.2874 88.6602 11.881 88.2903 11.9112C87.959 11.9382 87.5583 11.5079 87.3424 11.8921C87.6408 12.4664 87.8963 13.0896 88.1041 13.7502C88.3175 14.4283 88.4694 15.2828 88.1811 15.893C88.1357 16.0018 88.0669 16.0831 87.9865 16.123C87.751 16.214 87.598 15.7744 87.4291 15.5079C87.2163 15.1722 86.8944 15.0767 86.6062 14.9196C86.3181 14.7625 86.0145 14.4525 85.9919 13.9866C85.9779 13.6968 86.0782 13.4273 86.1521 13.1596C86.2763 12.7081 86.3306 12.219 86.3108 11.7302C86.2946 11.3371 86.2224 10.928 86.0376 10.6534C85.8529 10.3787 85.5331 10.2916 85.3344 10.5431C85.2417 10.6605 85.1674 10.8483 85.0471 10.8553C84.8344 10.8677 84.6711 10.3019 84.5 10.4951C84.52 10.7009 84.4921 10.9109 84.4209 11.0884C83.9103 11.766 83.1258 11.4794 82.4676 11.7187C82.1545 11.8554 81.8548 12.0552 81.5763 12.3127C81.4723 12.3807 81.3838 12.4943 81.322 12.6389C81.2398 12.8833 81.3303 13.1946 81.4752 13.3566C81.6288 13.5004 81.8015 13.5903 81.9806 13.6198C82.7831 13.8517 83.5974 14.2107 84.231 14.9972C84.8646 15.7838 85.2801 17.084 85.0797 18.2923L83.4971 15.9847C83.5572 16.9536 83.5913 17.9251 83.5994 18.8993C83.6096 19.0895 83.5925 19.2808 83.5492 19.4599C83.4361 19.84 83.1305 19.9681 82.8625 20.0521C82.788 20.0737 82.7173 20.1191 82.6551 20.1853C82.5929 20.2516 82.5405 20.3372 82.5015 20.4365C82.4626 20.5358 82.4378 20.6466 82.4288 20.7615C82.4199 20.8765 82.427 20.993 82.4497 21.1035C82.5449 21.577 82.7823 21.9462 82.9996 22.3141C83.2169 22.6819 83.4309 23.1 83.4593 23.5933C83.4878 24.0866 83.2438 24.6426 82.92 24.6085C82.6745 24.5825 82.4924 24.2472 82.3877 23.9074C82.2829 23.5676 82.2206 23.1887 82.0633 22.9004C81.5871 22.0264 80.5176 22.4009 80.091 21.4693C79.9823 21.6575 79.9069 21.885 79.8719 22.1302C79.837 22.3754 79.8438 22.6301 79.8915 22.8702C80.09 22.6806 80.3617 22.8568 80.5108 23.1322C80.6599 23.4076 80.7303 23.7608 80.8474 24.0701C81.0053 24.4869 81.2569 24.8576 81.2789 25.3386C81.2731 25.5206 81.2751 25.7031 81.2849 25.8848C81.3241 26.1761 81.4855 26.3854 81.5974 26.6289C81.8578 27.1957 81.845 27.9741 81.6771 28.6172C81.5092 29.2603 81.2077 29.7976 80.9091 30.3185C80.3874 31.2284 79.8551 32.1329 79.2366 32.8885C79.0602 33.1041 78.8718 33.3161 78.7619 33.6176C78.6521 33.919 78.6463 34.3421 78.8152 34.5714C78.6944 34.5806 78.4776 34.672 78.3569 34.6805C78.3144 33.9408 78.3052 33.1975 78.3293 32.4559C77.8523 32.1065 77.3388 33.0422 77.4004 33.8439C77.462 34.6457 77.842 35.2891 78.1126 35.9828C78.3104 36.49 78.4576 37.0815 78.3914 37.6631C78.3253 38.2446 77.9851 38.7812 77.6001 38.73C76.9871 38.6484 76.7306 37.3056 76.1236 37.1519C76.07 37.1326 76.0136 37.1411 75.9635 37.1761C75.8733 37.2515 75.8577 37.4348 75.8526 37.5922C75.8277 38.361 75.8062 39.1605 76.0033 39.8694C76.2911 40.9065 77.0344 41.7775 76.8785 42.8783C76.0384 42.2825 75.6016 40.845 75.4033 39.4642C75.205 38.0835 75.1713 36.633 74.8161 35.3275C74.5462 35.8554 73.9788 35.419 73.7321 34.8652C73.4983 34.3401 73.3543 33.7328 73.1274 33.2006C72.9005 32.6683 72.5528 32.192 72.1374 32.1627C71.7018 32.132 71.3238 32.5883 70.9915 33.0193C70.7183 33.3738 70.4377 33.7422 70.2779 34.2323C70.0454 34.9454 70.1063 35.786 70.095 36.5823C70.0829 37.4431 69.9632 38.3513 69.5789 38.9814C69.1947 39.6116 68.4848 39.831 68.0607 39.2631C67.8393 38.9666 67.7321 38.5236 67.6368 38.0989C67.1765 36.0491 66.7931 33.9609 66.4886 31.8446C66.4174 32.3277 66.1394 32.9502 65.8738 32.6656C65.8144 32.5891 65.7662 32.4942 65.7325 32.3872C65.2372 31.1062 64.3195 30.3378 63.393 29.8771C62.4666 29.4164 61.491 29.2015 60.5745 28.6951C60.0609 28.4113 59.5703 28.0384 59.1124 27.5839C58.9957 27.8456 58.9275 28.1506 58.9151 28.4665C58.9028 28.7825 58.9466 29.0977 59.0421 29.3787C59.2454 29.9281 59.7055 30.2459 60.0994 30.0543C60.3028 29.9551 60.4748 29.7395 60.6767 29.633C60.8787 29.5265 61.1497 29.5788 61.238 29.8756C61.3228 30.1598 61.1947 30.5035 61.2581 30.8002C61.3547 31.2521 61.8013 31.2869 61.9575 31.6981C62.0737 32.004 61.9781 32.4103 61.8121 32.6571C61.6462 32.9039 61.4249 33.0395 61.2223 33.2112C60.5652 33.7688 60.0979 34.7205 59.5235 35.4613C58.9492 36.2021 58.1387 36.7426 57.4544 36.2675C57.6175 35.0069 56.6334 34.0814 56.4523 32.8266C56.3927 32.4135 56.4241 31.9748 56.3385 31.5723C56.2153 30.9896 55.8769 30.5889 55.5985 30.1472C55.2613 29.6057 54.9986 28.9667 54.826 28.2678C54.6533 27.5689 54.5741 26.8243 54.5931 26.078C54.608 25.5594 54.6705 25.0323 54.5931 24.5267C54.5156 24.0212 54.2413 23.5319 53.9014 23.5548C53.1251 23.6071 52.1471 23.6952 51.7398 22.6855C51.5944 22.3251 51.5311 21.7972 51.7413 21.5212C51.8896 21.3264 52.1087 21.3448 52.3031 21.374L54.0522 21.6366C54.4614 21.698 54.9035 21.7487 55.2546 21.4223C55.6057 21.0959 55.7578 20.2293 55.4328 19.8458C55.1953 19.5652 54.7697 19.5805 54.7006 19.1344C54.6432 18.763 54.9126 18.3414 54.767 18.031C54.6627 17.8083 54.4279 17.8701 54.2859 18.037C54.1438 18.2039 54.0409 18.4479 53.8815 18.5743C53.6023 18.7959 53.2691 18.5849 52.9685 18.4416C52.6679 18.2983 52.2657 18.2861 52.1201 18.7117C51.9572 19.1876 52.2646 19.8113 52.1029 20.2882C51.8892 20.9188 51.1653 20.5597 50.8652 21.1022C50.5208 21.7246 51.0996 22.6526 50.9834 23.4477C50.8351 23.5598 50.6703 23.6112 50.5051 23.5971C50.3399 23.5829 50.1799 23.5036 50.0407 23.3669C49.9039 23.2249 49.7948 23.0289 49.7252 22.7998C49.6555 22.5707 49.6278 22.3171 49.6451 22.066C49.6738 21.7083 49.7958 21.3433 49.7141 21.0052C49.6482 20.7321 49.4681 20.5692 49.301 20.4284L47.6012 18.9952C47.4434 19.4419 47.6429 19.9957 47.8924 20.3312C48.1418 20.6667 48.4544 20.9194 48.6184 21.3609C48.7222 21.6669 48.7456 22.0217 48.6836 22.353C48.6217 22.6843 48.4791 22.967 48.2851 23.1433C48.2608 23.1689 48.2331 23.1861 48.2041 23.1939C48.175 23.2016 48.1451 23.1997 48.1166 23.1881C48.0895 23.1638 48.0658 23.1314 48.0471 23.0929C48.0283 23.0544 48.0148 23.0105 48.0073 22.9639C47.7074 21.7929 47.2571 20.6382 46.5372 20.0265C45.8173 19.4147 44.7829 19.5405 44.3108 20.5711C44.1987 20.8154 44.1234 21.0949 44.0257 21.3536C43.5068 22.7284 42.3943 23.3796 41.3547 23.3372C41.2531 23.3457 41.1519 23.3095 41.0634 23.2327C40.8954 23.0556 40.9032 22.68 40.9287 22.3703L41.0378 21.0588C41.0597 20.7955 41.0914 20.5044 41.228 20.3401C41.4206 20.1084 41.6984 20.2546 41.944 20.2493C42.1298 20.236 42.3084 20.1359 42.4556 19.9625C42.6029 19.7891 42.7116 19.5508 42.7671 19.2799C42.8167 19.0064 42.8163 18.7174 42.7662 18.4441C42.7161 18.1709 42.618 17.9236 42.4826 17.7291C42.3702 17.568 42.2193 17.3657 42.2788 17.1486C42.3025 17.0885 42.3345 17.0371 42.3726 16.9979C42.4107 16.9587 42.454 16.9328 42.4994 16.9219C42.9399 16.7267 43.4053 16.6755 43.8385 16.4453C44.2716 16.215 44.6917 15.7438 44.7943 15.0616C44.8257 14.8526 44.84 14.5994 44.9631 14.4957C45.0248 14.456 45.0911 14.4353 45.1582 14.4349C45.393 14.384 45.6068 14.2007 45.7575 13.9212C45.9082 13.6417 45.9849 13.2863 45.9724 12.9248C46.1797 12.7035 46.4709 12.8663 46.6717 13.1018C46.8725 13.3372 47.0498 13.648 47.2942 13.7496C47.7496 13.9388 48.1897 13.3236 48.6616 13.3207C48.8601 13.3195 49.0656 13.4266 49.2523 13.3239C49.4415 13.2198 49.5546 12.9323 49.6998 12.7202C49.8451 12.508 50.1 12.3782 50.2341 12.607L50.1199 11.316C50.3499 11.4046 50.5898 11.4171 50.8233 11.3527C51.0568 11.2882 51.2785 11.1483 51.4736 10.9423L49.9973 10.1805C49.9459 10.1609 49.8984 10.1222 49.8592 10.0678C49.7519 9.8914 49.8585 9.61658 49.9458 9.41621C50.1545 8.9367 50.1897 8.14672 49.8463 7.90797C49.6119 7.74497 49.3429 7.9406 49.1179 8.13206L48.0404 9.04881C48.0061 9.3613 48.257 9.53853 48.4118 9.74896C48.5057 9.87632 48.5722 10.044 48.6025 10.2301C48.6328 10.4162 48.6255 10.6119 48.5816 10.7915C48.5376 10.9711 48.4591 11.1262 48.3563 11.2365C48.2536 11.3468 48.1313 11.4071 48.0057 11.4094C48.0766 11.5502 48.1259 11.7135 48.1499 11.8873C48.1739 12.061 48.172 12.2408 48.1443 12.4133L47.4189 12.4928C47.3374 12.5179 47.2527 12.4927 47.1834 12.4228C47.1059 12.3177 47.1164 12.1336 47.0986 11.9772C47.0553 11.601 46.8138 11.3374 46.5675 11.2698C46.3212 11.2023 46.0691 11.289 45.8252 11.3745C45.7216 11.4314 45.6079 11.4274 45.5061 11.3633C45.4478 11.3054 45.4035 11.2201 45.3799 11.1202C45.273 10.7245 45.3729 10.2595 45.5447 9.92115C45.7164 9.5828 45.9516 9.33542 46.1627 9.0537C46.6676 8.37756 47.0386 7.49947 47.2337 6.5186C47.6328 6.26347 48.046 5.91677 48.4451 5.66164C49.0604 5.1862 49.7505 4.98211 50.4376 5.07232L51.7892 5.1117C52.1894 5.12335 52.6004 5.13829 52.9704 5.37043C53.3405 5.60257 53.6656 6.10665 53.6912 6.7161C53.6989 6.78509 53.695 6.85593 53.6798 6.92197C53.6646 6.98802 53.6387 7.04711 53.6045 7.0937C53.5522 7.13722 53.4931 7.15758 53.4336 7.15249C53.0601 7.17347 52.901 7.31534 52.5279 7.33532Z" fill="white"/>
<path d="M41.7545 13.7989C41.8073 13.7227 41.8453 13.6256 41.8643 13.5186C41.8834 13.4115 41.8827 13.2985 41.8624 13.1919C41.7339 13.1163 41.5941 13.0969 41.4588 13.1359C41.3234 13.1749 41.1979 13.2708 41.0963 13.4127C41.0162 13.5363 40.9472 13.6755 40.8911 13.8267C40.7135 14.2688 40.5564 14.7969 40.6593 15.2912C40.6677 15.3451 40.6831 15.3959 40.7045 15.4407C40.7259 15.4854 40.753 15.5231 40.7841 15.5517C40.8303 15.5799 40.88 15.5918 40.9296 15.5865C41.1253 15.5861 41.3207 15.5678 41.515 15.5316C41.6342 15.5093 41.7728 15.458 41.8189 15.2886C41.8794 15.0661 41.7328 14.8143 41.7755 14.5822C41.8036 14.4783 41.8463 14.3851 41.9004 14.3091C41.9273 14.2708 41.9479 14.2235 41.9607 14.1709C41.9735 14.1183 41.9781 14.062 41.9741 14.0062C41.9569 13.8974 41.8476 13.8356 41.8083 13.9302" fill="white"/>
<path d="M42.7691 11.7918C42.5953 11.7308 42.4161 11.7136 42.2386 11.7409C42.1994 11.7391 42.1605 11.7526 42.1256 11.7801C42.0918 11.8181 42.0673 11.8723 42.056 11.9341C42.0185 12.1177 42.0278 12.3161 42.0819 12.4897C42.136 12.6634 42.231 12.7996 42.348 12.8711C42.4117 12.8934 42.4728 12.9309 42.5289 12.982C42.6789 13.1597 42.5832 13.5226 42.6117 13.8091C42.6436 14.1308 42.8472 14.4007 42.8103 14.7211C42.7808 14.9734 42.6042 15.1733 42.6326 15.4254C42.6624 15.6901 42.8824 15.7695 43.0578 15.7907C43.1595 15.8179 43.2642 15.7995 43.3593 15.7379C43.4545 15.6386 43.5222 15.489 43.5494 15.3179C43.6212 14.9918 43.6514 14.6477 43.6383 14.3043C43.6374 14.148 43.6115 13.9944 43.5629 13.8568C43.5101 13.7479 43.4515 13.6457 43.3877 13.5512C43.0517 12.955 43.4055 12.0654 42.7691 11.7918Z" fill="white"/>
<path opacity="0.8" d="M86.9559 58.5116C86.9559 58.5116 61.2199 35.9703 50.1398 40.2413C50.1398 40.2413 26.6585 44.097 23.9371 52.5797C23.9371 52.5797 16.4728 16.9881 13.7515 15.8019" stroke="#FF3400" stroke-width="2" stroke-miterlimit="10"/>
<path opacity="0.8" d="M23.9371 52.5797C28.252 35.0212 67.1292 15.5646 67.1292 15.5646C61.609 17.7001 50.1402 40.2413 50.1402 40.2413C50.1402 40.2413 25.8809 13.3103 13.7515 15.8017C13.7515 15.8017 67.1675 18.4711 86.9559 58.5114" stroke="#FF3400" stroke-width="2" stroke-miterlimit="10"/>
<path d="M13.7516 17.5222C14.3742 17.5222 14.879 16.752 14.879 15.8019C14.879 14.8518 14.3742 14.0817 13.7516 14.0817C13.1289 14.0817 12.6241 14.8518 12.6241 15.8019C12.6241 16.752 13.1289 17.5222 13.7516 17.5222Z" fill="#FF3400"/>
<path d="M23.9372 54.2999C24.5599 54.2999 25.0646 53.5298 25.0646 52.5797C25.0646 51.6296 24.5599 50.8594 23.9372 50.8594C23.3146 50.8594 22.8098 51.6296 22.8098 52.5797C22.8098 53.5298 23.3146 54.2999 23.9372 54.2999Z" fill="#FF3400"/>
<path d="M67.1288 17.2849C67.7514 17.2849 68.2562 16.5147 68.2562 15.5646C68.2562 14.6145 67.7514 13.8444 67.1288 13.8444C66.5061 13.8444 66.0013 14.6145 66.0013 15.5646C66.0013 16.5147 66.5061 17.2849 67.1288 17.2849Z" fill="#FF3400"/>
<path d="M86.9558 60.2318C87.5784 60.2318 88.0832 59.4616 88.0832 58.5116C88.0832 57.5615 87.5784 56.7913 86.9558 56.7913C86.3331 56.7913 85.8284 57.5615 85.8284 58.5116C85.8284 59.4616 86.3331 60.2318 86.9558 60.2318Z" fill="#FF3400"/>
<path d="M50.1397 41.9616C50.7624 41.9616 51.2672 41.1914 51.2672 40.2413C51.2672 39.2912 50.7624 38.5211 50.1397 38.5211C49.5171 38.5211 49.0123 39.2912 49.0123 40.2413C49.0123 41.1914 49.5171 41.9616 50.1397 41.9616Z" fill="#FF3400"/>
</g>
<defs>
<clipPath id="clip0_108_117">
<rect width="97.8983" height="76" fill="white"/>
</clipPath>
</defs>
</svg>
